<mxfile host="app.diagrams.net" agent="Mozilla/5.0 (Macintosh; Intel Mac OS X 10.15; rv:135.0) Gecko/20100101 Firefox/135.0" version="26.0.16">
  <diagram name="Page-1" id="LnfI6y9uAsMeLBiGhCIF">
    <mxGraphModel dx="1566" dy="1038" grid="1" gridSize="10" guides="1" tooltips="1" connect="1" arrows="1" fold="1" page="1" pageScale="1" pageWidth="850" pageHeight="1100" math="0" shadow="0">
      <root>
        <mxCell id="0" />
        <mxCell id="1" parent="0" />
        <mxCell id="FEZ-26H3Mb8yyC3y7fx9-3" style="edgeStyle=orthogonalEdgeStyle;rounded=0;orthogonalLoop=1;jettySize=auto;html=1;strokeWidth=2;" parent="1" source="FEZ-26H3Mb8yyC3y7fx9-1" target="FEZ-26H3Mb8yyC3y7fx9-2" edge="1">
          <mxGeometry relative="1" as="geometry" />
        </mxCell>
        <mxCell id="FEZ-26H3Mb8yyC3y7fx9-1" value="1" style="ellipse;whiteSpace=wrap;html=1;aspect=fixed;strokeWidth=2;" parent="1" vertex="1">
          <mxGeometry x="360" y="520" width="40" height="40" as="geometry" />
        </mxCell>
        <mxCell id="FEZ-26H3Mb8yyC3y7fx9-5" style="edgeStyle=orthogonalEdgeStyle;rounded=0;orthogonalLoop=1;jettySize=auto;html=1;strokeColor=default;strokeWidth=2;align=center;verticalAlign=middle;fontFamily=Helvetica;fontSize=11;fontColor=default;labelBackgroundColor=default;endArrow=classic;" parent="1" source="FEZ-26H3Mb8yyC3y7fx9-2" target="FEZ-26H3Mb8yyC3y7fx9-4" edge="1">
          <mxGeometry relative="1" as="geometry" />
        </mxCell>
        <mxCell id="FEZ-26H3Mb8yyC3y7fx9-2" value="2" style="ellipse;whiteSpace=wrap;html=1;aspect=fixed;strokeWidth=2;" parent="1" vertex="1">
          <mxGeometry x="440" y="520" width="40" height="40" as="geometry" />
        </mxCell>
        <mxCell id="FEZ-26H3Mb8yyC3y7fx9-7" style="edgeStyle=orthogonalEdgeStyle;rounded=0;orthogonalLoop=1;jettySize=auto;html=1;strokeColor=default;strokeWidth=2;align=center;verticalAlign=middle;fontFamily=Helvetica;fontSize=12;fontColor=default;labelBackgroundColor=default;endArrow=classic;" parent="1" source="FEZ-26H3Mb8yyC3y7fx9-4" target="FEZ-26H3Mb8yyC3y7fx9-6" edge="1">
          <mxGeometry relative="1" as="geometry" />
        </mxCell>
        <mxCell id="FEZ-26H3Mb8yyC3y7fx9-4" value="3" style="ellipse;whiteSpace=wrap;html=1;aspect=fixed;strokeWidth=2;" parent="1" vertex="1">
          <mxGeometry x="520" y="520" width="40" height="40" as="geometry" />
        </mxCell>
        <mxCell id="FEZ-26H3Mb8yyC3y7fx9-9" style="edgeStyle=orthogonalEdgeStyle;rounded=0;orthogonalLoop=1;jettySize=auto;html=1;strokeColor=default;strokeWidth=2;align=center;verticalAlign=middle;fontFamily=Helvetica;fontSize=12;fontColor=default;labelBackgroundColor=default;endArrow=classic;" parent="1" source="FEZ-26H3Mb8yyC3y7fx9-6" target="FEZ-26H3Mb8yyC3y7fx9-12" edge="1">
          <mxGeometry relative="1" as="geometry">
            <mxPoint x="680" y="540" as="targetPoint" />
          </mxGeometry>
        </mxCell>
        <mxCell id="FEZ-26H3Mb8yyC3y7fx9-6" value="4" style="ellipse;whiteSpace=wrap;html=1;aspect=fixed;strokeWidth=2;strokeColor=default;align=center;verticalAlign=middle;fontFamily=Helvetica;fontSize=12;fontColor=default;fillColor=default;" parent="1" vertex="1">
          <mxGeometry x="600" y="520" width="40" height="40" as="geometry" />
        </mxCell>
        <mxCell id="FEZ-26H3Mb8yyC3y7fx9-12" value="" style="verticalLabelPosition=bottom;verticalAlign=top;html=1;shape=mxgraph.basic.x;strokeColor=default;strokeWidth=2;align=center;fontFamily=Helvetica;fontSize=12;fontColor=default;fillColor=default;" parent="1" vertex="1">
          <mxGeometry x="680" y="532.5" width="20" height="15" as="geometry" />
        </mxCell>
        <mxCell id="FEZ-26H3Mb8yyC3y7fx9-16" style="edgeStyle=orthogonalEdgeStyle;rounded=0;orthogonalLoop=1;jettySize=auto;html=1;strokeWidth=2;" parent="1" source="FEZ-26H3Mb8yyC3y7fx9-17" target="FEZ-26H3Mb8yyC3y7fx9-19" edge="1">
          <mxGeometry relative="1" as="geometry" />
        </mxCell>
        <mxCell id="FEZ-26H3Mb8yyC3y7fx9-17" value="1" style="ellipse;whiteSpace=wrap;html=1;aspect=fixed;strokeWidth=2;" parent="1" vertex="1">
          <mxGeometry x="360" y="600" width="40" height="40" as="geometry" />
        </mxCell>
        <mxCell id="FEZ-26H3Mb8yyC3y7fx9-18" style="edgeStyle=orthogonalEdgeStyle;rounded=0;orthogonalLoop=1;jettySize=auto;html=1;strokeColor=default;strokeWidth=2;align=center;verticalAlign=middle;fontFamily=Helvetica;fontSize=11;fontColor=default;labelBackgroundColor=default;endArrow=classic;" parent="1" source="FEZ-26H3Mb8yyC3y7fx9-19" edge="1">
          <mxGeometry relative="1" as="geometry">
            <mxPoint x="520" y="620" as="targetPoint" />
          </mxGeometry>
        </mxCell>
        <mxCell id="FEZ-26H3Mb8yyC3y7fx9-19" value="2" style="ellipse;whiteSpace=wrap;html=1;aspect=fixed;strokeWidth=2;" parent="1" vertex="1">
          <mxGeometry x="440" y="600" width="40" height="40" as="geometry" />
        </mxCell>
        <mxCell id="FEZ-26H3Mb8yyC3y7fx9-20" style="edgeStyle=orthogonalEdgeStyle;rounded=0;orthogonalLoop=1;jettySize=auto;html=1;strokeColor=default;strokeWidth=2;align=center;verticalAlign=middle;fontFamily=Helvetica;fontSize=12;fontColor=default;labelBackgroundColor=default;endArrow=classic;" parent="1" edge="1">
          <mxGeometry relative="1" as="geometry">
            <mxPoint x="560" y="620" as="sourcePoint" />
          </mxGeometry>
        </mxCell>
        <mxCell id="FEZ-26H3Mb8yyC3y7fx9-24" value="" style="verticalLabelPosition=bottom;verticalAlign=top;html=1;shape=mxgraph.basic.x;strokeColor=default;strokeWidth=2;align=center;fontFamily=Helvetica;fontSize=12;fontColor=default;fillColor=default;" parent="1" vertex="1">
          <mxGeometry x="520" y="612.5" width="20" height="15" as="geometry" />
        </mxCell>
        <mxCell id="FEZ-26H3Mb8yyC3y7fx9-29" value="1" style="ellipse;whiteSpace=wrap;html=1;aspect=fixed;strokeWidth=2;" parent="1" vertex="1">
          <mxGeometry x="360" y="680" width="40" height="40" as="geometry" />
        </mxCell>
        <mxCell id="FEZ-26H3Mb8yyC3y7fx9-33" value="" style="edgeStyle=orthogonalEdgeStyle;rounded=0;orthogonalLoop=1;jettySize=auto;html=1;strokeColor=default;strokeWidth=2;align=center;verticalAlign=middle;fontFamily=Helvetica;fontSize=11;fontColor=default;labelBackgroundColor=default;endArrow=classic;" parent="1" source="FEZ-26H3Mb8yyC3y7fx9-29" target="FEZ-26H3Mb8yyC3y7fx9-32" edge="1">
          <mxGeometry relative="1" as="geometry">
            <mxPoint x="520" y="700" as="targetPoint" />
            <mxPoint x="400" y="700" as="sourcePoint" />
          </mxGeometry>
        </mxCell>
        <mxCell id="FEZ-26H3Mb8yyC3y7fx9-32" value="" style="verticalLabelPosition=bottom;verticalAlign=top;html=1;shape=mxgraph.basic.x;strokeColor=default;strokeWidth=2;align=center;fontFamily=Helvetica;fontSize=12;fontColor=default;fillColor=default;" parent="1" vertex="1">
          <mxGeometry x="440" y="692.5" width="20" height="15" as="geometry" />
        </mxCell>
        <mxCell id="FEZ-26H3Mb8yyC3y7fx9-34" value="" style="verticalLabelPosition=bottom;verticalAlign=top;html=1;shape=mxgraph.basic.x;strokeColor=default;strokeWidth=2;align=center;fontFamily=Helvetica;fontSize=12;fontColor=default;fillColor=default;" parent="1" vertex="1">
          <mxGeometry x="370" y="770" width="20" height="15" as="geometry" />
        </mxCell>
        <mxCell id="FEZ-26H3Mb8yyC3y7fx9-35" value="Case A:" style="text;html=1;align=center;verticalAlign=middle;resizable=0;points=[];autosize=1;strokeColor=none;fillColor=none;fontFamily=Helvetica;fontSize=12;fontColor=default;" parent="1" vertex="1">
          <mxGeometry x="270" y="525" width="70" height="30" as="geometry" />
        </mxCell>
        <mxCell id="FEZ-26H3Mb8yyC3y7fx9-36" value="Case B:" style="text;html=1;align=center;verticalAlign=middle;resizable=0;points=[];autosize=1;strokeColor=none;fillColor=none;fontFamily=Helvetica;fontSize=12;fontColor=default;" parent="1" vertex="1">
          <mxGeometry x="270" y="605" width="70" height="30" as="geometry" />
        </mxCell>
        <mxCell id="FEZ-26H3Mb8yyC3y7fx9-37" value="Case C:" style="text;html=1;align=center;verticalAlign=middle;resizable=0;points=[];autosize=1;strokeColor=none;fillColor=none;fontFamily=Helvetica;fontSize=12;fontColor=default;" parent="1" vertex="1">
          <mxGeometry x="270" y="685" width="70" height="30" as="geometry" />
        </mxCell>
        <mxCell id="FEZ-26H3Mb8yyC3y7fx9-38" value="Case D:" style="text;html=1;align=center;verticalAlign=middle;resizable=0;points=[];autosize=1;strokeColor=none;fillColor=none;fontFamily=Helvetica;fontSize=12;fontColor=default;" parent="1" vertex="1">
          <mxGeometry x="270" y="762.5" width="70" height="30" as="geometry" />
        </mxCell>
        <mxCell id="FEZ-26H3Mb8yyC3y7fx9-39" style="edgeStyle=orthogonalEdgeStyle;rounded=0;orthogonalLoop=1;jettySize=auto;html=1;strokeWidth=2;" parent="1" source="FEZ-26H3Mb8yyC3y7fx9-40" target="FEZ-26H3Mb8yyC3y7fx9-42" edge="1">
          <mxGeometry relative="1" as="geometry" />
        </mxCell>
        <mxCell id="FEZ-26H3Mb8yyC3y7fx9-40" value="1" style="ellipse;whiteSpace=wrap;html=1;aspect=fixed;strokeWidth=2;" parent="1" vertex="1">
          <mxGeometry x="155" y="5200" width="40" height="40" as="geometry" />
        </mxCell>
        <mxCell id="FEZ-26H3Mb8yyC3y7fx9-41" style="edgeStyle=orthogonalEdgeStyle;rounded=0;orthogonalLoop=1;jettySize=auto;html=1;strokeColor=default;strokeWidth=2;align=center;verticalAlign=middle;fontFamily=Helvetica;fontSize=11;fontColor=default;labelBackgroundColor=default;endArrow=classic;" parent="1" source="FEZ-26H3Mb8yyC3y7fx9-42" target="FEZ-26H3Mb8yyC3y7fx9-44" edge="1">
          <mxGeometry relative="1" as="geometry" />
        </mxCell>
        <mxCell id="FEZ-26H3Mb8yyC3y7fx9-42" value="2" style="ellipse;whiteSpace=wrap;html=1;aspect=fixed;strokeWidth=2;" parent="1" vertex="1">
          <mxGeometry x="235" y="5200" width="40" height="40" as="geometry" />
        </mxCell>
        <mxCell id="FEZ-26H3Mb8yyC3y7fx9-43" style="edgeStyle=orthogonalEdgeStyle;rounded=0;orthogonalLoop=1;jettySize=auto;html=1;strokeColor=default;strokeWidth=2;align=center;verticalAlign=middle;fontFamily=Helvetica;fontSize=12;fontColor=default;labelBackgroundColor=default;endArrow=classic;" parent="1" source="FEZ-26H3Mb8yyC3y7fx9-44" target="FEZ-26H3Mb8yyC3y7fx9-46" edge="1">
          <mxGeometry relative="1" as="geometry" />
        </mxCell>
        <mxCell id="FEZ-26H3Mb8yyC3y7fx9-44" value="3" style="ellipse;whiteSpace=wrap;html=1;aspect=fixed;strokeWidth=2;" parent="1" vertex="1">
          <mxGeometry x="315" y="5200" width="40" height="40" as="geometry" />
        </mxCell>
        <mxCell id="FEZ-26H3Mb8yyC3y7fx9-45" style="edgeStyle=orthogonalEdgeStyle;rounded=0;orthogonalLoop=1;jettySize=auto;html=1;strokeColor=default;strokeWidth=2;align=center;verticalAlign=middle;fontFamily=Helvetica;fontSize=12;fontColor=default;labelBackgroundColor=default;endArrow=classic;" parent="1" source="FEZ-26H3Mb8yyC3y7fx9-46" target="FEZ-26H3Mb8yyC3y7fx9-58" edge="1">
          <mxGeometry relative="1" as="geometry">
            <mxPoint x="464.99999999999994" y="5240" as="targetPoint" />
          </mxGeometry>
        </mxCell>
        <mxCell id="FEZ-26H3Mb8yyC3y7fx9-46" value="4" style="ellipse;whiteSpace=wrap;html=1;aspect=fixed;strokeWidth=2;strokeColor=default;align=center;verticalAlign=middle;fontFamily=Helvetica;fontSize=12;fontColor=default;fillColor=default;" parent="1" vertex="1">
          <mxGeometry x="395" y="5200" width="40" height="40" as="geometry" />
        </mxCell>
        <mxCell id="FEZ-26H3Mb8yyC3y7fx9-47" value="" style="verticalLabelPosition=bottom;verticalAlign=top;html=1;shape=mxgraph.basic.x;strokeColor=default;strokeWidth=2;align=center;fontFamily=Helvetica;fontSize=12;fontColor=default;fillColor=default;" parent="1" vertex="1">
          <mxGeometry x="555" y="5212.5" width="20" height="15" as="geometry" />
        </mxCell>
        <mxCell id="FEZ-26H3Mb8yyC3y7fx9-53" value="1" style="ellipse;whiteSpace=wrap;html=1;aspect=fixed;strokeWidth=2;" parent="1" vertex="1">
          <mxGeometry x="155" y="5320" width="40" height="40" as="geometry" />
        </mxCell>
        <mxCell id="FEZ-26H3Mb8yyC3y7fx9-54" value="" style="edgeStyle=orthogonalEdgeStyle;rounded=0;orthogonalLoop=1;jettySize=auto;html=1;strokeColor=default;strokeWidth=2;align=center;verticalAlign=middle;fontFamily=Helvetica;fontSize=11;fontColor=default;labelBackgroundColor=default;endArrow=classic;" parent="1" source="FEZ-26H3Mb8yyC3y7fx9-53" target="FEZ-26H3Mb8yyC3y7fx9-55" edge="1">
          <mxGeometry relative="1" as="geometry">
            <mxPoint x="315" y="5340" as="targetPoint" />
            <mxPoint x="195" y="5340" as="sourcePoint" />
          </mxGeometry>
        </mxCell>
        <mxCell id="FEZ-26H3Mb8yyC3y7fx9-55" value="" style="verticalLabelPosition=bottom;verticalAlign=top;html=1;shape=mxgraph.basic.x;strokeColor=default;strokeWidth=2;align=center;fontFamily=Helvetica;fontSize=12;fontColor=default;fillColor=default;" parent="1" vertex="1">
          <mxGeometry x="235" y="5332.5" width="20" height="15" as="geometry" />
        </mxCell>
        <mxCell id="FEZ-26H3Mb8yyC3y7fx9-56" value="" style="verticalLabelPosition=bottom;verticalAlign=top;html=1;shape=mxgraph.basic.x;strokeColor=default;strokeWidth=2;align=center;fontFamily=Helvetica;fontSize=12;fontColor=default;fillColor=default;" parent="1" vertex="1">
          <mxGeometry x="165" y="5420" width="20" height="15" as="geometry" />
        </mxCell>
        <mxCell id="FEZ-26H3Mb8yyC3y7fx9-57" value="&lt;div&gt;delete 3, delete 5, delete 1, delete 6&lt;/div&gt;" style="text;html=1;align=center;verticalAlign=middle;resizable=0;points=[];autosize=1;strokeColor=none;fillColor=none;fontFamily=Helvetica;fontSize=12;fontColor=default;" parent="1" vertex="1">
          <mxGeometry x="155" y="5240" width="210" height="30" as="geometry" />
        </mxCell>
        <mxCell id="FEZ-26H3Mb8yyC3y7fx9-58" value="5" style="ellipse;whiteSpace=wrap;html=1;aspect=fixed;strokeWidth=2;strokeColor=default;align=center;verticalAlign=middle;fontFamily=Helvetica;fontSize=12;fontColor=default;fillColor=default;" parent="1" vertex="1">
          <mxGeometry x="474.99999999999994" y="5200" width="40" height="40" as="geometry" />
        </mxCell>
        <mxCell id="FEZ-26H3Mb8yyC3y7fx9-60" style="edgeStyle=orthogonalEdgeStyle;rounded=0;orthogonalLoop=1;jettySize=auto;html=1;entryX=0.1;entryY=0.5;entryDx=0;entryDy=0;entryPerimeter=0;strokeColor=default;strokeWidth=2;align=center;verticalAlign=middle;fontFamily=Helvetica;fontSize=12;fontColor=default;labelBackgroundColor=default;endArrow=classic;" parent="1" source="FEZ-26H3Mb8yyC3y7fx9-58" target="FEZ-26H3Mb8yyC3y7fx9-47" edge="1">
          <mxGeometry relative="1" as="geometry" />
        </mxCell>
        <mxCell id="FEZ-26H3Mb8yyC3y7fx9-61" value="delete 1, delete 2" style="text;html=1;align=center;verticalAlign=middle;resizable=0;points=[];autosize=1;strokeColor=none;fillColor=none;fontFamily=Helvetica;fontSize=12;fontColor=default;" parent="1" vertex="1">
          <mxGeometry x="155" y="5360" width="120" height="30" as="geometry" />
        </mxCell>
        <mxCell id="FEZ-26H3Mb8yyC3y7fx9-62" value="delete 1 " style="text;html=1;align=center;verticalAlign=middle;resizable=0;points=[];autosize=1;strokeColor=none;fillColor=none;fontFamily=Helvetica;fontSize=12;fontColor=default;" parent="1" vertex="1">
          <mxGeometry x="204.06" y="5420" width="70" height="30" as="geometry" />
        </mxCell>
        <mxCell id="FEZ-26H3Mb8yyC3y7fx9-63" value="&lt;font style=&quot;font-size: 16px;&quot;&gt;More test cases for &quot;delete value from linked list&quot;&lt;/font&gt;" style="text;html=1;align=center;verticalAlign=middle;resizable=0;points=[];autosize=1;strokeColor=none;fillColor=none;fontFamily=Helvetica;fontSize=12;fontColor=default;" parent="1" vertex="1">
          <mxGeometry x="99.06" y="5140" width="370" height="30" as="geometry" />
        </mxCell>
        <mxCell id="FEZ-26H3Mb8yyC3y7fx9-64" value="&lt;font style=&quot;font-size: 16px;&quot;&gt;General test cases&lt;br&gt;&lt;/font&gt;" style="text;html=1;align=center;verticalAlign=middle;resizable=0;points=[];autosize=1;strokeColor=none;fillColor=none;fontFamily=Helvetica;fontSize=12;fontColor=default;" parent="1" vertex="1">
          <mxGeometry x="265" y="480" width="160" height="30" as="geometry" />
        </mxCell>
        <mxCell id="SE4oea5at5pP_NoJNJHg-1" style="edgeStyle=orthogonalEdgeStyle;rounded=0;orthogonalLoop=1;jettySize=auto;html=1;strokeWidth=2;" parent="1" source="SE4oea5at5pP_NoJNJHg-2" target="SE4oea5at5pP_NoJNJHg-4" edge="1">
          <mxGeometry relative="1" as="geometry" />
        </mxCell>
        <mxCell id="SE4oea5at5pP_NoJNJHg-2" value="1" style="ellipse;whiteSpace=wrap;html=1;aspect=fixed;strokeWidth=2;" parent="1" vertex="1">
          <mxGeometry x="275" y="1320" width="40" height="40" as="geometry" />
        </mxCell>
        <mxCell id="SE4oea5at5pP_NoJNJHg-3" style="edgeStyle=orthogonalEdgeStyle;rounded=0;orthogonalLoop=1;jettySize=auto;html=1;strokeColor=default;strokeWidth=2;align=center;verticalAlign=middle;fontFamily=Helvetica;fontSize=11;fontColor=default;labelBackgroundColor=default;endArrow=classic;" parent="1" source="SE4oea5at5pP_NoJNJHg-4" target="SE4oea5at5pP_NoJNJHg-6" edge="1">
          <mxGeometry relative="1" as="geometry" />
        </mxCell>
        <mxCell id="SE4oea5at5pP_NoJNJHg-4" value="2" style="ellipse;whiteSpace=wrap;html=1;aspect=fixed;strokeWidth=2;" parent="1" vertex="1">
          <mxGeometry x="355" y="1320" width="40" height="40" as="geometry" />
        </mxCell>
        <mxCell id="SE4oea5at5pP_NoJNJHg-5" style="edgeStyle=orthogonalEdgeStyle;rounded=0;orthogonalLoop=1;jettySize=auto;html=1;strokeColor=default;strokeWidth=2;align=center;verticalAlign=middle;fontFamily=Helvetica;fontSize=12;fontColor=default;labelBackgroundColor=default;endArrow=classic;" parent="1" source="SE4oea5at5pP_NoJNJHg-6" target="SE4oea5at5pP_NoJNJHg-8" edge="1">
          <mxGeometry relative="1" as="geometry" />
        </mxCell>
        <mxCell id="SE4oea5at5pP_NoJNJHg-6" value="3" style="ellipse;whiteSpace=wrap;html=1;aspect=fixed;strokeWidth=2;" parent="1" vertex="1">
          <mxGeometry x="435" y="1320" width="40" height="40" as="geometry" />
        </mxCell>
        <mxCell id="SE4oea5at5pP_NoJNJHg-7" style="edgeStyle=orthogonalEdgeStyle;rounded=0;orthogonalLoop=1;jettySize=auto;html=1;strokeColor=default;strokeWidth=2;align=center;verticalAlign=middle;fontFamily=Helvetica;fontSize=12;fontColor=default;labelBackgroundColor=default;endArrow=classic;" parent="1" source="SE4oea5at5pP_NoJNJHg-8" target="SE4oea5at5pP_NoJNJHg-9" edge="1">
          <mxGeometry relative="1" as="geometry">
            <mxPoint x="595" y="1340" as="targetPoint" />
          </mxGeometry>
        </mxCell>
        <mxCell id="SE4oea5at5pP_NoJNJHg-8" value="4" style="ellipse;whiteSpace=wrap;html=1;aspect=fixed;strokeWidth=2;strokeColor=default;align=center;verticalAlign=middle;fontFamily=Helvetica;fontSize=12;fontColor=default;fillColor=default;" parent="1" vertex="1">
          <mxGeometry x="515" y="1320" width="40" height="40" as="geometry" />
        </mxCell>
        <mxCell id="SE4oea5at5pP_NoJNJHg-9" value="" style="verticalLabelPosition=bottom;verticalAlign=top;html=1;shape=mxgraph.basic.x;strokeColor=default;strokeWidth=2;align=center;fontFamily=Helvetica;fontSize=12;fontColor=default;fillColor=default;" parent="1" vertex="1">
          <mxGeometry x="595" y="1332.5" width="20" height="15" as="geometry" />
        </mxCell>
        <mxCell id="SE4oea5at5pP_NoJNJHg-11" value="&lt;pre&gt;&lt;font style=&quot;font-size: 12px;&quot;&gt;&lt;span class=&quot;w&quot;&gt;&lt;/span&gt;&lt;span class=&quot;nf&quot;&gt;listLength&lt;/span&gt;&lt;/font&gt;&lt;/pre&gt;" style="text;html=1;align=center;verticalAlign=middle;whiteSpace=wrap;rounded=0;" parent="1" vertex="1">
          <mxGeometry x="170" y="1325" width="70" height="30" as="geometry" />
        </mxCell>
        <mxCell id="SE4oea5at5pP_NoJNJHg-14" value="&lt;font style=&quot;font-size: 36px;&quot;&gt;(&lt;/font&gt;" style="text;html=1;align=center;verticalAlign=middle;whiteSpace=wrap;rounded=0;" parent="1" vertex="1">
          <mxGeometry x="220" y="1325" width="60" height="30" as="geometry" />
        </mxCell>
        <mxCell id="SE4oea5at5pP_NoJNJHg-15" value="&lt;font style=&quot;font-size: 36px;&quot;&gt;)&lt;/font&gt;" style="text;html=1;align=center;verticalAlign=middle;whiteSpace=wrap;rounded=0;" parent="1" vertex="1">
          <mxGeometry x="615" y="1325" width="60" height="30" as="geometry" />
        </mxCell>
        <mxCell id="SE4oea5at5pP_NoJNJHg-18" style="edgeStyle=orthogonalEdgeStyle;rounded=0;orthogonalLoop=1;jettySize=auto;html=1;strokeColor=default;strokeWidth=2;align=center;verticalAlign=middle;fontFamily=Helvetica;fontSize=11;fontColor=default;labelBackgroundColor=default;endArrow=classic;" parent="1" source="SE4oea5at5pP_NoJNJHg-19" target="SE4oea5at5pP_NoJNJHg-21" edge="1">
          <mxGeometry relative="1" as="geometry" />
        </mxCell>
        <mxCell id="SE4oea5at5pP_NoJNJHg-19" value="2" style="ellipse;whiteSpace=wrap;html=1;aspect=fixed;strokeWidth=2;" parent="1" vertex="1">
          <mxGeometry x="355" y="1400" width="40" height="40" as="geometry" />
        </mxCell>
        <mxCell id="SE4oea5at5pP_NoJNJHg-20" style="edgeStyle=orthogonalEdgeStyle;rounded=0;orthogonalLoop=1;jettySize=auto;html=1;strokeColor=default;strokeWidth=2;align=center;verticalAlign=middle;fontFamily=Helvetica;fontSize=12;fontColor=default;labelBackgroundColor=default;endArrow=classic;" parent="1" source="SE4oea5at5pP_NoJNJHg-21" target="SE4oea5at5pP_NoJNJHg-23" edge="1">
          <mxGeometry relative="1" as="geometry" />
        </mxCell>
        <mxCell id="SE4oea5at5pP_NoJNJHg-21" value="3" style="ellipse;whiteSpace=wrap;html=1;aspect=fixed;strokeWidth=2;" parent="1" vertex="1">
          <mxGeometry x="435" y="1400" width="40" height="40" as="geometry" />
        </mxCell>
        <mxCell id="SE4oea5at5pP_NoJNJHg-22" style="edgeStyle=orthogonalEdgeStyle;rounded=0;orthogonalLoop=1;jettySize=auto;html=1;strokeColor=default;strokeWidth=2;align=center;verticalAlign=middle;fontFamily=Helvetica;fontSize=12;fontColor=default;labelBackgroundColor=default;endArrow=classic;" parent="1" source="SE4oea5at5pP_NoJNJHg-23" target="SE4oea5at5pP_NoJNJHg-24" edge="1">
          <mxGeometry relative="1" as="geometry">
            <mxPoint x="595" y="1420" as="targetPoint" />
          </mxGeometry>
        </mxCell>
        <mxCell id="SE4oea5at5pP_NoJNJHg-23" value="4" style="ellipse;whiteSpace=wrap;html=1;aspect=fixed;strokeWidth=2;strokeColor=default;align=center;verticalAlign=middle;fontFamily=Helvetica;fontSize=12;fontColor=default;fillColor=default;" parent="1" vertex="1">
          <mxGeometry x="515" y="1400" width="40" height="40" as="geometry" />
        </mxCell>
        <mxCell id="SE4oea5at5pP_NoJNJHg-24" value="" style="verticalLabelPosition=bottom;verticalAlign=top;html=1;shape=mxgraph.basic.x;strokeColor=default;strokeWidth=2;align=center;fontFamily=Helvetica;fontSize=12;fontColor=default;fillColor=default;" parent="1" vertex="1">
          <mxGeometry x="595" y="1412.5" width="20" height="15" as="geometry" />
        </mxCell>
        <mxCell id="SE4oea5at5pP_NoJNJHg-25" value="&lt;pre&gt;&lt;font style=&quot;font-size: 12px;&quot;&gt;&lt;span class=&quot;w&quot;&gt;&lt;/span&gt;&lt;span class=&quot;nf&quot;&gt;listLength&lt;/span&gt;&lt;/font&gt;&lt;/pre&gt;" style="text;html=1;align=center;verticalAlign=middle;whiteSpace=wrap;rounded=0;" parent="1" vertex="1">
          <mxGeometry x="250" y="1405" width="70" height="30" as="geometry" />
        </mxCell>
        <mxCell id="SE4oea5at5pP_NoJNJHg-26" value="&lt;font style=&quot;font-size: 36px;&quot;&gt;(&lt;/font&gt;" style="text;html=1;align=center;verticalAlign=middle;whiteSpace=wrap;rounded=0;" parent="1" vertex="1">
          <mxGeometry x="300" y="1405" width="60" height="30" as="geometry" />
        </mxCell>
        <mxCell id="SE4oea5at5pP_NoJNJHg-27" value="&lt;font style=&quot;font-size: 36px;&quot;&gt;)&lt;/font&gt;" style="text;html=1;align=center;verticalAlign=middle;whiteSpace=wrap;rounded=0;" parent="1" vertex="1">
          <mxGeometry x="615" y="1405" width="60" height="30" as="geometry" />
        </mxCell>
        <mxCell id="SE4oea5at5pP_NoJNJHg-29" value="1" style="text;html=1;align=center;verticalAlign=middle;whiteSpace=wrap;rounded=0;" parent="1" vertex="1">
          <mxGeometry x="160" y="1405" width="70" height="30" as="geometry" />
        </mxCell>
        <mxCell id="SE4oea5at5pP_NoJNJHg-30" value="+" style="text;html=1;align=center;verticalAlign=middle;whiteSpace=wrap;rounded=0;" parent="1" vertex="1">
          <mxGeometry x="195" y="1405" width="70" height="30" as="geometry" />
        </mxCell>
        <mxCell id="SE4oea5at5pP_NoJNJHg-33" style="edgeStyle=orthogonalEdgeStyle;rounded=0;orthogonalLoop=1;jettySize=auto;html=1;strokeColor=default;strokeWidth=2;align=center;verticalAlign=middle;fontFamily=Helvetica;fontSize=12;fontColor=default;labelBackgroundColor=default;endArrow=classic;" parent="1" source="SE4oea5at5pP_NoJNJHg-34" target="SE4oea5at5pP_NoJNJHg-36" edge="1">
          <mxGeometry relative="1" as="geometry" />
        </mxCell>
        <mxCell id="SE4oea5at5pP_NoJNJHg-34" value="3" style="ellipse;whiteSpace=wrap;html=1;aspect=fixed;strokeWidth=2;" parent="1" vertex="1">
          <mxGeometry x="435" y="1480" width="40" height="40" as="geometry" />
        </mxCell>
        <mxCell id="SE4oea5at5pP_NoJNJHg-35" style="edgeStyle=orthogonalEdgeStyle;rounded=0;orthogonalLoop=1;jettySize=auto;html=1;strokeColor=default;strokeWidth=2;align=center;verticalAlign=middle;fontFamily=Helvetica;fontSize=12;fontColor=default;labelBackgroundColor=default;endArrow=classic;" parent="1" source="SE4oea5at5pP_NoJNJHg-36" target="SE4oea5at5pP_NoJNJHg-37" edge="1">
          <mxGeometry relative="1" as="geometry">
            <mxPoint x="595" y="1500" as="targetPoint" />
          </mxGeometry>
        </mxCell>
        <mxCell id="SE4oea5at5pP_NoJNJHg-36" value="4" style="ellipse;whiteSpace=wrap;html=1;aspect=fixed;strokeWidth=2;strokeColor=default;align=center;verticalAlign=middle;fontFamily=Helvetica;fontSize=12;fontColor=default;fillColor=default;" parent="1" vertex="1">
          <mxGeometry x="515" y="1480" width="40" height="40" as="geometry" />
        </mxCell>
        <mxCell id="SE4oea5at5pP_NoJNJHg-37" value="" style="verticalLabelPosition=bottom;verticalAlign=top;html=1;shape=mxgraph.basic.x;strokeColor=default;strokeWidth=2;align=center;fontFamily=Helvetica;fontSize=12;fontColor=default;fillColor=default;" parent="1" vertex="1">
          <mxGeometry x="595" y="1492.5" width="20" height="15" as="geometry" />
        </mxCell>
        <mxCell id="SE4oea5at5pP_NoJNJHg-38" value="&lt;pre&gt;&lt;font style=&quot;font-size: 12px;&quot;&gt;&lt;span class=&quot;w&quot;&gt;&lt;/span&gt;&lt;span class=&quot;nf&quot;&gt;listLength&lt;/span&gt;&lt;/font&gt;&lt;/pre&gt;" style="text;html=1;align=center;verticalAlign=middle;whiteSpace=wrap;rounded=0;" parent="1" vertex="1">
          <mxGeometry x="330" y="1485" width="70" height="30" as="geometry" />
        </mxCell>
        <mxCell id="SE4oea5at5pP_NoJNJHg-39" value="&lt;font style=&quot;font-size: 36px;&quot;&gt;(&lt;/font&gt;" style="text;html=1;align=center;verticalAlign=middle;whiteSpace=wrap;rounded=0;" parent="1" vertex="1">
          <mxGeometry x="380" y="1485" width="60" height="30" as="geometry" />
        </mxCell>
        <mxCell id="SE4oea5at5pP_NoJNJHg-40" value="&lt;font style=&quot;font-size: 36px;&quot;&gt;)&lt;/font&gt;" style="text;html=1;align=center;verticalAlign=middle;whiteSpace=wrap;rounded=0;" parent="1" vertex="1">
          <mxGeometry x="615" y="1485" width="60" height="30" as="geometry" />
        </mxCell>
        <mxCell id="SE4oea5at5pP_NoJNJHg-41" value="1" style="text;html=1;align=center;verticalAlign=middle;whiteSpace=wrap;rounded=0;" parent="1" vertex="1">
          <mxGeometry x="240" y="1485" width="70" height="30" as="geometry" />
        </mxCell>
        <mxCell id="SE4oea5at5pP_NoJNJHg-42" value="+" style="text;html=1;align=center;verticalAlign=middle;whiteSpace=wrap;rounded=0;" parent="1" vertex="1">
          <mxGeometry x="280" y="1485" width="70" height="30" as="geometry" />
        </mxCell>
        <mxCell id="SE4oea5at5pP_NoJNJHg-43" value="" style="shape=curlyBracket;whiteSpace=wrap;html=1;rounded=1;labelPosition=left;verticalLabelPosition=middle;align=right;verticalAlign=middle;rotation=-90;" parent="1" vertex="1">
          <mxGeometry x="446.25" y="1261.25" width="22.5" height="400" as="geometry" />
        </mxCell>
        <mxCell id="SE4oea5at5pP_NoJNJHg-44" value="" style="shape=curlyBracket;whiteSpace=wrap;html=1;rounded=1;labelPosition=left;verticalLabelPosition=middle;align=right;verticalAlign=middle;rotation=-90;" parent="1" vertex="1">
          <mxGeometry x="404.38" y="1144.37" width="23.75" height="477.5" as="geometry" />
        </mxCell>
        <mxCell id="SE4oea5at5pP_NoJNJHg-45" value="" style="shape=curlyBracket;whiteSpace=wrap;html=1;rounded=1;labelPosition=left;verticalLabelPosition=middle;align=right;verticalAlign=middle;rotation=-90;" parent="1" vertex="1">
          <mxGeometry x="486.25" y="1378.75" width="22.5" height="320" as="geometry" />
        </mxCell>
        <mxCell id="SE4oea5at5pP_NoJNJHg-48" style="edgeStyle=orthogonalEdgeStyle;rounded=0;orthogonalLoop=1;jettySize=auto;html=1;strokeColor=default;strokeWidth=2;align=center;verticalAlign=middle;fontFamily=Helvetica;fontSize=12;fontColor=default;labelBackgroundColor=default;endArrow=classic;" parent="1" source="SE4oea5at5pP_NoJNJHg-49" target="SE4oea5at5pP_NoJNJHg-50" edge="1">
          <mxGeometry relative="1" as="geometry">
            <mxPoint x="592.5" y="1580" as="targetPoint" />
          </mxGeometry>
        </mxCell>
        <mxCell id="SE4oea5at5pP_NoJNJHg-49" value="4" style="ellipse;whiteSpace=wrap;html=1;aspect=fixed;strokeWidth=2;strokeColor=default;align=center;verticalAlign=middle;fontFamily=Helvetica;fontSize=12;fontColor=default;fillColor=default;" parent="1" vertex="1">
          <mxGeometry x="512.5" y="1560" width="40" height="40" as="geometry" />
        </mxCell>
        <mxCell id="SE4oea5at5pP_NoJNJHg-50" value="" style="verticalLabelPosition=bottom;verticalAlign=top;html=1;shape=mxgraph.basic.x;strokeColor=default;strokeWidth=2;align=center;fontFamily=Helvetica;fontSize=12;fontColor=default;fillColor=default;" parent="1" vertex="1">
          <mxGeometry x="592.5" y="1572.5" width="20" height="15" as="geometry" />
        </mxCell>
        <mxCell id="SE4oea5at5pP_NoJNJHg-51" value="&lt;pre&gt;&lt;font style=&quot;font-size: 12px;&quot;&gt;&lt;span class=&quot;w&quot;&gt;&lt;/span&gt;&lt;span class=&quot;nf&quot;&gt;listLength&lt;/span&gt;&lt;/font&gt;&lt;/pre&gt;" style="text;html=1;align=center;verticalAlign=middle;whiteSpace=wrap;rounded=0;" parent="1" vertex="1">
          <mxGeometry x="402.5" y="1565" width="70" height="30" as="geometry" />
        </mxCell>
        <mxCell id="SE4oea5at5pP_NoJNJHg-52" value="&lt;font style=&quot;font-size: 36px;&quot;&gt;(&lt;/font&gt;" style="text;html=1;align=center;verticalAlign=middle;whiteSpace=wrap;rounded=0;" parent="1" vertex="1">
          <mxGeometry x="452.5" y="1565" width="60" height="30" as="geometry" />
        </mxCell>
        <mxCell id="SE4oea5at5pP_NoJNJHg-53" value="&lt;font style=&quot;font-size: 36px;&quot;&gt;)&lt;/font&gt;" style="text;html=1;align=center;verticalAlign=middle;whiteSpace=wrap;rounded=0;" parent="1" vertex="1">
          <mxGeometry x="612.5" y="1565" width="60" height="30" as="geometry" />
        </mxCell>
        <mxCell id="SE4oea5at5pP_NoJNJHg-54" value="1" style="text;html=1;align=center;verticalAlign=middle;whiteSpace=wrap;rounded=0;" parent="1" vertex="1">
          <mxGeometry x="312.5" y="1565" width="70" height="30" as="geometry" />
        </mxCell>
        <mxCell id="SE4oea5at5pP_NoJNJHg-55" value="+" style="text;html=1;align=center;verticalAlign=middle;whiteSpace=wrap;rounded=0;" parent="1" vertex="1">
          <mxGeometry x="352.5" y="1565" width="70" height="30" as="geometry" />
        </mxCell>
        <mxCell id="SE4oea5at5pP_NoJNJHg-56" value="" style="shape=curlyBracket;whiteSpace=wrap;html=1;rounded=1;labelPosition=left;verticalLabelPosition=middle;align=right;verticalAlign=middle;rotation=-90;" parent="1" vertex="1">
          <mxGeometry x="521.25" y="1496.25" width="27.5" height="240" as="geometry" />
        </mxCell>
        <mxCell id="SE4oea5at5pP_NoJNJHg-59" value="" style="verticalLabelPosition=bottom;verticalAlign=top;html=1;shape=mxgraph.basic.x;strokeColor=default;strokeWidth=2;align=center;fontFamily=Helvetica;fontSize=12;fontColor=default;fillColor=default;" parent="1" vertex="1">
          <mxGeometry x="592.5" y="1656.25" width="20" height="15" as="geometry" />
        </mxCell>
        <mxCell id="SE4oea5at5pP_NoJNJHg-60" value="&lt;pre&gt;&lt;font style=&quot;font-size: 12px;&quot;&gt;&lt;span class=&quot;w&quot;&gt;&lt;/span&gt;&lt;span class=&quot;nf&quot;&gt;listLength&lt;/span&gt;&lt;/font&gt;&lt;/pre&gt;" style="text;html=1;align=center;verticalAlign=middle;whiteSpace=wrap;rounded=0;" parent="1" vertex="1">
          <mxGeometry x="482.5" y="1648.75" width="70" height="30" as="geometry" />
        </mxCell>
        <mxCell id="SE4oea5at5pP_NoJNJHg-61" value="&lt;font style=&quot;font-size: 36px;&quot;&gt;(&lt;/font&gt;" style="text;html=1;align=center;verticalAlign=middle;whiteSpace=wrap;rounded=0;" parent="1" vertex="1">
          <mxGeometry x="532.5" y="1648.75" width="60" height="30" as="geometry" />
        </mxCell>
        <mxCell id="SE4oea5at5pP_NoJNJHg-62" value="&lt;font style=&quot;font-size: 36px;&quot;&gt;)&lt;/font&gt;" style="text;html=1;align=center;verticalAlign=middle;whiteSpace=wrap;rounded=0;" parent="1" vertex="1">
          <mxGeometry x="612.5" y="1648.75" width="60" height="30" as="geometry" />
        </mxCell>
        <mxCell id="SE4oea5at5pP_NoJNJHg-63" value="1" style="text;html=1;align=center;verticalAlign=middle;whiteSpace=wrap;rounded=0;" parent="1" vertex="1">
          <mxGeometry x="392.5" y="1648.75" width="70" height="30" as="geometry" />
        </mxCell>
        <mxCell id="SE4oea5at5pP_NoJNJHg-64" value="+" style="text;html=1;align=center;verticalAlign=middle;whiteSpace=wrap;rounded=0;" parent="1" vertex="1">
          <mxGeometry x="432.5" y="1648.75" width="70" height="30" as="geometry" />
        </mxCell>
        <mxCell id="SE4oea5at5pP_NoJNJHg-65" value="" style="shape=curlyBracket;whiteSpace=wrap;html=1;rounded=1;labelPosition=left;verticalLabelPosition=middle;align=right;verticalAlign=middle;rotation=-90;" parent="1" vertex="1">
          <mxGeometry x="561.25" y="1620" width="27.5" height="160" as="geometry" />
        </mxCell>
        <mxCell id="SE4oea5at5pP_NoJNJHg-66" value="0" style="text;html=1;align=center;verticalAlign=middle;whiteSpace=wrap;rounded=0;" parent="1" vertex="1">
          <mxGeometry x="540" y="1720" width="70" height="30" as="geometry" />
        </mxCell>
        <mxCell id="SE4oea5at5pP_NoJNJHg-67" value="1" style="text;html=1;align=center;verticalAlign=middle;whiteSpace=wrap;rounded=0;fontSize=16;" parent="1" vertex="1">
          <mxGeometry x="160" y="1770" width="70" height="30" as="geometry" />
        </mxCell>
        <mxCell id="SE4oea5at5pP_NoJNJHg-68" value="+" style="text;html=1;align=center;verticalAlign=middle;whiteSpace=wrap;rounded=0;fontSize=16;" parent="1" vertex="1">
          <mxGeometry x="190" y="1770" width="70" height="30" as="geometry" />
        </mxCell>
        <mxCell id="SE4oea5at5pP_NoJNJHg-69" value="1" style="text;html=1;align=center;verticalAlign=middle;whiteSpace=wrap;rounded=0;fontSize=16;" parent="1" vertex="1">
          <mxGeometry x="235" y="1770" width="70" height="30" as="geometry" />
        </mxCell>
        <mxCell id="SE4oea5at5pP_NoJNJHg-70" value="+" style="text;html=1;align=center;verticalAlign=middle;whiteSpace=wrap;rounded=0;fontSize=16;" parent="1" vertex="1">
          <mxGeometry x="275" y="1770" width="70" height="30" as="geometry" />
        </mxCell>
        <mxCell id="SE4oea5at5pP_NoJNJHg-71" value="1" style="text;html=1;align=center;verticalAlign=middle;whiteSpace=wrap;rounded=0;fontSize=16;" parent="1" vertex="1">
          <mxGeometry x="310" y="1770" width="70" height="30" as="geometry" />
        </mxCell>
        <mxCell id="SE4oea5at5pP_NoJNJHg-72" value="+" style="text;html=1;align=center;verticalAlign=middle;whiteSpace=wrap;rounded=0;fontSize=16;" parent="1" vertex="1">
          <mxGeometry x="350" y="1770" width="70" height="30" as="geometry" />
        </mxCell>
        <mxCell id="SE4oea5at5pP_NoJNJHg-73" value="1" style="text;html=1;align=center;verticalAlign=middle;whiteSpace=wrap;rounded=0;fontSize=16;" parent="1" vertex="1">
          <mxGeometry x="390" y="1770" width="70" height="30" as="geometry" />
        </mxCell>
        <mxCell id="SE4oea5at5pP_NoJNJHg-74" value="+" style="text;html=1;align=center;verticalAlign=middle;whiteSpace=wrap;rounded=0;fontSize=16;" parent="1" vertex="1">
          <mxGeometry x="432.5" y="1770" width="70" height="30" as="geometry" />
        </mxCell>
        <mxCell id="SE4oea5at5pP_NoJNJHg-75" value="0" style="text;html=1;align=center;verticalAlign=middle;whiteSpace=wrap;rounded=0;fontSize=16;" parent="1" vertex="1">
          <mxGeometry x="540" y="1770" width="70" height="30" as="geometry" />
        </mxCell>
        <mxCell id="SE4oea5at5pP_NoJNJHg-76" value="=&amp;nbsp;&amp;nbsp; 4" style="text;html=1;align=center;verticalAlign=middle;whiteSpace=wrap;rounded=0;fontSize=16;" parent="1" vertex="1">
          <mxGeometry x="655" y="1770" width="70" height="30" as="geometry" />
        </mxCell>
        <mxCell id="SE4oea5at5pP_NoJNJHg-77" value="&lt;div align=&quot;left&quot;&gt;&lt;font style=&quot;font-size: 36px;&quot;&gt;List Length&lt;/font&gt;&lt;/div&gt;" style="text;html=1;align=left;verticalAlign=middle;whiteSpace=wrap;rounded=0;" parent="1" vertex="1">
          <mxGeometry x="105" y="1250" width="240" height="30" as="geometry" />
        </mxCell>
        <mxCell id="SE4oea5at5pP_NoJNJHg-78" value="recurse..." style="text;html=1;align=center;verticalAlign=middle;whiteSpace=wrap;rounded=0;" parent="1" vertex="1">
          <mxGeometry x="672.5" y="1360" width="60" height="30" as="geometry" />
        </mxCell>
        <mxCell id="SE4oea5at5pP_NoJNJHg-79" value="recurse..." style="text;html=1;align=center;verticalAlign=middle;whiteSpace=wrap;rounded=0;" parent="1" vertex="1">
          <mxGeometry x="675" y="1440" width="60" height="30" as="geometry" />
        </mxCell>
        <mxCell id="SE4oea5at5pP_NoJNJHg-80" value="recurse..." style="text;html=1;align=center;verticalAlign=middle;whiteSpace=wrap;rounded=0;" parent="1" vertex="1">
          <mxGeometry x="675" y="1515" width="60" height="30" as="geometry" />
        </mxCell>
        <mxCell id="SE4oea5at5pP_NoJNJHg-81" value="recurse..." style="text;html=1;align=center;verticalAlign=middle;whiteSpace=wrap;rounded=0;" parent="1" vertex="1">
          <mxGeometry x="677.5" y="1595" width="60" height="30" as="geometry" />
        </mxCell>
        <mxCell id="SE4oea5at5pP_NoJNJHg-82" value="base" style="text;html=1;align=center;verticalAlign=middle;whiteSpace=wrap;rounded=0;" parent="1" vertex="1">
          <mxGeometry x="665" y="1671.25" width="60" height="30" as="geometry" />
        </mxCell>
        <mxCell id="SE4oea5at5pP_NoJNJHg-84" style="edgeStyle=orthogonalEdgeStyle;rounded=0;orthogonalLoop=1;jettySize=auto;html=1;strokeWidth=2;" parent="1" source="SE4oea5at5pP_NoJNJHg-85" target="SE4oea5at5pP_NoJNJHg-87" edge="1">
          <mxGeometry relative="1" as="geometry" />
        </mxCell>
        <mxCell id="SE4oea5at5pP_NoJNJHg-85" value="1" style="ellipse;whiteSpace=wrap;html=1;aspect=fixed;strokeWidth=2;" parent="1" vertex="1">
          <mxGeometry x="273.75" y="2210.63" width="40" height="40" as="geometry" />
        </mxCell>
        <mxCell id="SE4oea5at5pP_NoJNJHg-86" style="edgeStyle=orthogonalEdgeStyle;rounded=0;orthogonalLoop=1;jettySize=auto;html=1;strokeColor=default;strokeWidth=2;align=center;verticalAlign=middle;fontFamily=Helvetica;fontSize=11;fontColor=default;labelBackgroundColor=default;endArrow=classic;" parent="1" source="SE4oea5at5pP_NoJNJHg-87" target="SE4oea5at5pP_NoJNJHg-89" edge="1">
          <mxGeometry relative="1" as="geometry" />
        </mxCell>
        <mxCell id="SE4oea5at5pP_NoJNJHg-87" value="2" style="ellipse;whiteSpace=wrap;html=1;aspect=fixed;strokeWidth=2;" parent="1" vertex="1">
          <mxGeometry x="353.75" y="2210.63" width="40" height="40" as="geometry" />
        </mxCell>
        <mxCell id="SE4oea5at5pP_NoJNJHg-88" style="edgeStyle=orthogonalEdgeStyle;rounded=0;orthogonalLoop=1;jettySize=auto;html=1;strokeColor=default;strokeWidth=2;align=center;verticalAlign=middle;fontFamily=Helvetica;fontSize=12;fontColor=default;labelBackgroundColor=default;endArrow=classic;" parent="1" source="SE4oea5at5pP_NoJNJHg-89" target="SE4oea5at5pP_NoJNJHg-91" edge="1">
          <mxGeometry relative="1" as="geometry" />
        </mxCell>
        <mxCell id="SE4oea5at5pP_NoJNJHg-89" value="3" style="ellipse;whiteSpace=wrap;html=1;aspect=fixed;strokeWidth=2;" parent="1" vertex="1">
          <mxGeometry x="433.75" y="2210.63" width="40" height="40" as="geometry" />
        </mxCell>
        <mxCell id="SE4oea5at5pP_NoJNJHg-90" style="edgeStyle=orthogonalEdgeStyle;rounded=0;orthogonalLoop=1;jettySize=auto;html=1;strokeColor=default;strokeWidth=2;align=center;verticalAlign=middle;fontFamily=Helvetica;fontSize=12;fontColor=default;labelBackgroundColor=default;endArrow=classic;" parent="1" source="SE4oea5at5pP_NoJNJHg-91" target="SE4oea5at5pP_NoJNJHg-92" edge="1">
          <mxGeometry relative="1" as="geometry">
            <mxPoint x="593.75" y="2230.63" as="targetPoint" />
          </mxGeometry>
        </mxCell>
        <mxCell id="SE4oea5at5pP_NoJNJHg-91" value="4" style="ellipse;whiteSpace=wrap;html=1;aspect=fixed;strokeWidth=2;strokeColor=default;align=center;verticalAlign=middle;fontFamily=Helvetica;fontSize=12;fontColor=default;fillColor=default;" parent="1" vertex="1">
          <mxGeometry x="513.75" y="2210.63" width="40" height="40" as="geometry" />
        </mxCell>
        <mxCell id="SE4oea5at5pP_NoJNJHg-92" value="" style="verticalLabelPosition=bottom;verticalAlign=top;html=1;shape=mxgraph.basic.x;strokeColor=default;strokeWidth=2;align=center;fontFamily=Helvetica;fontSize=12;fontColor=default;fillColor=default;" parent="1" vertex="1">
          <mxGeometry x="593.75" y="2223.13" width="20" height="15" as="geometry" />
        </mxCell>
        <mxCell id="SE4oea5at5pP_NoJNJHg-93" value="&lt;pre&gt;&lt;font style=&quot;font-size: 12px;&quot;&gt;&lt;span class=&quot;w&quot;&gt;&lt;/span&gt;&lt;span class=&quot;nf&quot;&gt;listCountOdds&lt;/span&gt;&lt;/font&gt;&lt;font style=&quot;font-size: 14px;&quot;&gt;&lt;span class=&quot;p&quot;&gt;&lt;/span&gt;&lt;/font&gt;&lt;/pre&gt;" style="text;html=1;align=center;verticalAlign=middle;whiteSpace=wrap;rounded=0;" parent="1" vertex="1">
          <mxGeometry x="158.75" y="2215.63" width="70" height="30" as="geometry" />
        </mxCell>
        <mxCell id="SE4oea5at5pP_NoJNJHg-94" value="&lt;font style=&quot;font-size: 36px;&quot;&gt;(&lt;/font&gt;" style="text;html=1;align=center;verticalAlign=middle;whiteSpace=wrap;rounded=0;" parent="1" vertex="1">
          <mxGeometry x="218.75" y="2215.63" width="60" height="30" as="geometry" />
        </mxCell>
        <mxCell id="SE4oea5at5pP_NoJNJHg-95" value="&lt;font style=&quot;font-size: 36px;&quot;&gt;)&lt;/font&gt;" style="text;html=1;align=center;verticalAlign=middle;whiteSpace=wrap;rounded=0;" parent="1" vertex="1">
          <mxGeometry x="613.75" y="2215.63" width="60" height="30" as="geometry" />
        </mxCell>
        <mxCell id="SE4oea5at5pP_NoJNJHg-96" style="edgeStyle=orthogonalEdgeStyle;rounded=0;orthogonalLoop=1;jettySize=auto;html=1;strokeColor=default;strokeWidth=2;align=center;verticalAlign=middle;fontFamily=Helvetica;fontSize=11;fontColor=default;labelBackgroundColor=default;endArrow=classic;" parent="1" source="SE4oea5at5pP_NoJNJHg-97" target="SE4oea5at5pP_NoJNJHg-99" edge="1">
          <mxGeometry relative="1" as="geometry" />
        </mxCell>
        <mxCell id="SE4oea5at5pP_NoJNJHg-97" value="2" style="ellipse;whiteSpace=wrap;html=1;aspect=fixed;strokeWidth=2;" parent="1" vertex="1">
          <mxGeometry x="353.75" y="2290.63" width="40" height="40" as="geometry" />
        </mxCell>
        <mxCell id="SE4oea5at5pP_NoJNJHg-98" style="edgeStyle=orthogonalEdgeStyle;rounded=0;orthogonalLoop=1;jettySize=auto;html=1;strokeColor=default;strokeWidth=2;align=center;verticalAlign=middle;fontFamily=Helvetica;fontSize=12;fontColor=default;labelBackgroundColor=default;endArrow=classic;" parent="1" source="SE4oea5at5pP_NoJNJHg-99" target="SE4oea5at5pP_NoJNJHg-101" edge="1">
          <mxGeometry relative="1" as="geometry" />
        </mxCell>
        <mxCell id="SE4oea5at5pP_NoJNJHg-99" value="3" style="ellipse;whiteSpace=wrap;html=1;aspect=fixed;strokeWidth=2;" parent="1" vertex="1">
          <mxGeometry x="433.75" y="2290.63" width="40" height="40" as="geometry" />
        </mxCell>
        <mxCell id="SE4oea5at5pP_NoJNJHg-100" style="edgeStyle=orthogonalEdgeStyle;rounded=0;orthogonalLoop=1;jettySize=auto;html=1;strokeColor=default;strokeWidth=2;align=center;verticalAlign=middle;fontFamily=Helvetica;fontSize=12;fontColor=default;labelBackgroundColor=default;endArrow=classic;" parent="1" source="SE4oea5at5pP_NoJNJHg-101" target="SE4oea5at5pP_NoJNJHg-102" edge="1">
          <mxGeometry relative="1" as="geometry">
            <mxPoint x="593.75" y="2310.63" as="targetPoint" />
          </mxGeometry>
        </mxCell>
        <mxCell id="SE4oea5at5pP_NoJNJHg-101" value="4" style="ellipse;whiteSpace=wrap;html=1;aspect=fixed;strokeWidth=2;strokeColor=default;align=center;verticalAlign=middle;fontFamily=Helvetica;fontSize=12;fontColor=default;fillColor=default;" parent="1" vertex="1">
          <mxGeometry x="513.75" y="2290.63" width="40" height="40" as="geometry" />
        </mxCell>
        <mxCell id="SE4oea5at5pP_NoJNJHg-102" value="" style="verticalLabelPosition=bottom;verticalAlign=top;html=1;shape=mxgraph.basic.x;strokeColor=default;strokeWidth=2;align=center;fontFamily=Helvetica;fontSize=12;fontColor=default;fillColor=default;" parent="1" vertex="1">
          <mxGeometry x="593.75" y="2303.13" width="20" height="15" as="geometry" />
        </mxCell>
        <mxCell id="SE4oea5at5pP_NoJNJHg-103" value="&lt;pre&gt;&lt;span class=&quot;w&quot;&gt;&lt;/span&gt;&lt;span class=&quot;nf&quot;&gt;listCountOdds&lt;/span&gt;&lt;span class=&quot;p&quot;&gt;&lt;/span&gt;&lt;/pre&gt;" style="text;html=1;align=center;verticalAlign=middle;whiteSpace=wrap;rounded=0;" parent="1" vertex="1">
          <mxGeometry x="235" y="2295" width="70" height="30.63" as="geometry" />
        </mxCell>
        <mxCell id="SE4oea5at5pP_NoJNJHg-104" value="&lt;font style=&quot;font-size: 36px;&quot;&gt;(&lt;/font&gt;" style="text;html=1;align=center;verticalAlign=middle;whiteSpace=wrap;rounded=0;" parent="1" vertex="1">
          <mxGeometry x="298.75" y="2295.63" width="60" height="30" as="geometry" />
        </mxCell>
        <mxCell id="SE4oea5at5pP_NoJNJHg-105" value="&lt;font style=&quot;font-size: 36px;&quot;&gt;)&lt;/font&gt;" style="text;html=1;align=center;verticalAlign=middle;whiteSpace=wrap;rounded=0;" parent="1" vertex="1">
          <mxGeometry x="613.75" y="2295.63" width="60" height="30" as="geometry" />
        </mxCell>
        <mxCell id="SE4oea5at5pP_NoJNJHg-106" value="1" style="text;html=1;align=center;verticalAlign=middle;whiteSpace=wrap;rounded=0;" parent="1" vertex="1">
          <mxGeometry x="130" y="2295.63" width="70" height="30" as="geometry" />
        </mxCell>
        <mxCell id="SE4oea5at5pP_NoJNJHg-107" value="+" style="text;html=1;align=center;verticalAlign=middle;whiteSpace=wrap;rounded=0;" parent="1" vertex="1">
          <mxGeometry x="160" y="2295.63" width="70" height="30" as="geometry" />
        </mxCell>
        <mxCell id="SE4oea5at5pP_NoJNJHg-108" style="edgeStyle=orthogonalEdgeStyle;rounded=0;orthogonalLoop=1;jettySize=auto;html=1;strokeColor=default;strokeWidth=2;align=center;verticalAlign=middle;fontFamily=Helvetica;fontSize=12;fontColor=default;labelBackgroundColor=default;endArrow=classic;" parent="1" source="SE4oea5at5pP_NoJNJHg-109" target="SE4oea5at5pP_NoJNJHg-111" edge="1">
          <mxGeometry relative="1" as="geometry" />
        </mxCell>
        <mxCell id="SE4oea5at5pP_NoJNJHg-109" value="3" style="ellipse;whiteSpace=wrap;html=1;aspect=fixed;strokeWidth=2;" parent="1" vertex="1">
          <mxGeometry x="433.75" y="2370.63" width="40" height="40" as="geometry" />
        </mxCell>
        <mxCell id="SE4oea5at5pP_NoJNJHg-110" style="edgeStyle=orthogonalEdgeStyle;rounded=0;orthogonalLoop=1;jettySize=auto;html=1;strokeColor=default;strokeWidth=2;align=center;verticalAlign=middle;fontFamily=Helvetica;fontSize=12;fontColor=default;labelBackgroundColor=default;endArrow=classic;" parent="1" source="SE4oea5at5pP_NoJNJHg-111" target="SE4oea5at5pP_NoJNJHg-112" edge="1">
          <mxGeometry relative="1" as="geometry">
            <mxPoint x="593.75" y="2390.63" as="targetPoint" />
          </mxGeometry>
        </mxCell>
        <mxCell id="SE4oea5at5pP_NoJNJHg-111" value="4" style="ellipse;whiteSpace=wrap;html=1;aspect=fixed;strokeWidth=2;strokeColor=default;align=center;verticalAlign=middle;fontFamily=Helvetica;fontSize=12;fontColor=default;fillColor=default;" parent="1" vertex="1">
          <mxGeometry x="513.75" y="2370.63" width="40" height="40" as="geometry" />
        </mxCell>
        <mxCell id="SE4oea5at5pP_NoJNJHg-112" value="" style="verticalLabelPosition=bottom;verticalAlign=top;html=1;shape=mxgraph.basic.x;strokeColor=default;strokeWidth=2;align=center;fontFamily=Helvetica;fontSize=12;fontColor=default;fillColor=default;" parent="1" vertex="1">
          <mxGeometry x="593.75" y="2383.13" width="20" height="15" as="geometry" />
        </mxCell>
        <mxCell id="SE4oea5at5pP_NoJNJHg-113" value="&lt;pre&gt;&lt;span class=&quot;w&quot;&gt;&lt;/span&gt;&lt;span class=&quot;nf&quot;&gt;listCountOdds&lt;/span&gt;&lt;span class=&quot;p&quot;&gt;&lt;/span&gt;&lt;/pre&gt;" style="text;html=1;align=center;verticalAlign=middle;whiteSpace=wrap;rounded=0;" parent="1" vertex="1">
          <mxGeometry x="315" y="2375.63" width="70" height="30" as="geometry" />
        </mxCell>
        <mxCell id="SE4oea5at5pP_NoJNJHg-114" value="&lt;font style=&quot;font-size: 36px;&quot;&gt;(&lt;/font&gt;" style="text;html=1;align=center;verticalAlign=middle;whiteSpace=wrap;rounded=0;" parent="1" vertex="1">
          <mxGeometry x="378.75" y="2375.63" width="60" height="30" as="geometry" />
        </mxCell>
        <mxCell id="SE4oea5at5pP_NoJNJHg-115" value="&lt;font style=&quot;font-size: 36px;&quot;&gt;)&lt;/font&gt;" style="text;html=1;align=center;verticalAlign=middle;whiteSpace=wrap;rounded=0;" parent="1" vertex="1">
          <mxGeometry x="613.75" y="2375.63" width="60" height="30" as="geometry" />
        </mxCell>
        <mxCell id="SE4oea5at5pP_NoJNJHg-116" value="0" style="text;html=1;align=center;verticalAlign=middle;whiteSpace=wrap;rounded=0;" parent="1" vertex="1">
          <mxGeometry x="195" y="2375.63" width="70" height="30" as="geometry" />
        </mxCell>
        <mxCell id="SE4oea5at5pP_NoJNJHg-117" value="+" style="text;html=1;align=center;verticalAlign=middle;whiteSpace=wrap;rounded=0;" parent="1" vertex="1">
          <mxGeometry x="235" y="2375.63" width="70" height="30" as="geometry" />
        </mxCell>
        <mxCell id="SE4oea5at5pP_NoJNJHg-118" value="" style="shape=curlyBracket;whiteSpace=wrap;html=1;rounded=1;labelPosition=left;verticalLabelPosition=middle;align=right;verticalAlign=middle;rotation=-90;" parent="1" vertex="1">
          <mxGeometry x="426.56" y="2133.44" width="22.5" height="436.88" as="geometry" />
        </mxCell>
        <mxCell id="SE4oea5at5pP_NoJNJHg-119" value="" style="shape=curlyBracket;whiteSpace=wrap;html=1;rounded=1;labelPosition=left;verticalLabelPosition=middle;align=right;verticalAlign=middle;rotation=-90;" parent="1" vertex="1">
          <mxGeometry x="388.13" y="2020" width="23.75" height="507.5" as="geometry" />
        </mxCell>
        <mxCell id="SE4oea5at5pP_NoJNJHg-120" value="" style="shape=curlyBracket;whiteSpace=wrap;html=1;rounded=1;labelPosition=left;verticalLabelPosition=middle;align=right;verticalAlign=middle;rotation=-90;" parent="1" vertex="1">
          <mxGeometry x="467.81" y="2252.19" width="22.5" height="354.38" as="geometry" />
        </mxCell>
        <mxCell id="SE4oea5at5pP_NoJNJHg-121" style="edgeStyle=orthogonalEdgeStyle;rounded=0;orthogonalLoop=1;jettySize=auto;html=1;strokeColor=default;strokeWidth=2;align=center;verticalAlign=middle;fontFamily=Helvetica;fontSize=12;fontColor=default;labelBackgroundColor=default;endArrow=classic;" parent="1" source="SE4oea5at5pP_NoJNJHg-122" target="SE4oea5at5pP_NoJNJHg-123" edge="1">
          <mxGeometry relative="1" as="geometry">
            <mxPoint x="591.25" y="2470.63" as="targetPoint" />
          </mxGeometry>
        </mxCell>
        <mxCell id="SE4oea5at5pP_NoJNJHg-122" value="4" style="ellipse;whiteSpace=wrap;html=1;aspect=fixed;strokeWidth=2;strokeColor=default;align=center;verticalAlign=middle;fontFamily=Helvetica;fontSize=12;fontColor=default;fillColor=default;" parent="1" vertex="1">
          <mxGeometry x="511.25" y="2450.63" width="40" height="40" as="geometry" />
        </mxCell>
        <mxCell id="SE4oea5at5pP_NoJNJHg-123" value="" style="verticalLabelPosition=bottom;verticalAlign=top;html=1;shape=mxgraph.basic.x;strokeColor=default;strokeWidth=2;align=center;fontFamily=Helvetica;fontSize=12;fontColor=default;fillColor=default;" parent="1" vertex="1">
          <mxGeometry x="591.25" y="2463.13" width="20" height="15" as="geometry" />
        </mxCell>
        <mxCell id="SE4oea5at5pP_NoJNJHg-124" value="&lt;pre&gt;&lt;span class=&quot;w&quot;&gt;&lt;/span&gt;&lt;span class=&quot;nf&quot;&gt;listCountOdds&lt;/span&gt;&lt;span class=&quot;p&quot;&gt;&lt;/span&gt;&lt;/pre&gt;" style="text;html=1;align=center;verticalAlign=middle;whiteSpace=wrap;rounded=0;" parent="1" vertex="1">
          <mxGeometry x="388.75" y="2455.63" width="70" height="30" as="geometry" />
        </mxCell>
        <mxCell id="SE4oea5at5pP_NoJNJHg-125" value="&lt;font style=&quot;font-size: 36px;&quot;&gt;(&lt;/font&gt;" style="text;html=1;align=center;verticalAlign=middle;whiteSpace=wrap;rounded=0;" parent="1" vertex="1">
          <mxGeometry x="451.25" y="2455.63" width="60" height="30" as="geometry" />
        </mxCell>
        <mxCell id="SE4oea5at5pP_NoJNJHg-126" value="&lt;font style=&quot;font-size: 36px;&quot;&gt;)&lt;/font&gt;" style="text;html=1;align=center;verticalAlign=middle;whiteSpace=wrap;rounded=0;" parent="1" vertex="1">
          <mxGeometry x="611.25" y="2455.63" width="60" height="30" as="geometry" />
        </mxCell>
        <mxCell id="SE4oea5at5pP_NoJNJHg-127" value="1" style="text;html=1;align=center;verticalAlign=middle;whiteSpace=wrap;rounded=0;" parent="1" vertex="1">
          <mxGeometry x="275" y="2455.63" width="70" height="30" as="geometry" />
        </mxCell>
        <mxCell id="SE4oea5at5pP_NoJNJHg-128" value="+" style="text;html=1;align=center;verticalAlign=middle;whiteSpace=wrap;rounded=0;" parent="1" vertex="1">
          <mxGeometry x="315" y="2455.63" width="70" height="30" as="geometry" />
        </mxCell>
        <mxCell id="SE4oea5at5pP_NoJNJHg-129" value="" style="shape=curlyBracket;whiteSpace=wrap;html=1;rounded=1;labelPosition=left;verticalLabelPosition=middle;align=right;verticalAlign=middle;rotation=-90;" parent="1" vertex="1">
          <mxGeometry x="499.06" y="2365.94" width="27.5" height="281.88" as="geometry" />
        </mxCell>
        <mxCell id="SE4oea5at5pP_NoJNJHg-130" value="" style="verticalLabelPosition=bottom;verticalAlign=top;html=1;shape=mxgraph.basic.x;strokeColor=default;strokeWidth=2;align=center;fontFamily=Helvetica;fontSize=12;fontColor=default;fillColor=default;" parent="1" vertex="1">
          <mxGeometry x="591.25" y="2546.88" width="20" height="15" as="geometry" />
        </mxCell>
        <mxCell id="SE4oea5at5pP_NoJNJHg-132" value="&lt;pre&gt;&lt;span class=&quot;w&quot;&gt;&lt;/span&gt;&lt;span class=&quot;nf&quot;&gt;listCountOdds&lt;/span&gt;&lt;span class=&quot;p&quot;&gt;&lt;/span&gt;&lt;/pre&gt;" style="text;html=1;align=center;verticalAlign=middle;whiteSpace=wrap;rounded=0;" parent="1" vertex="1">
          <mxGeometry x="473.75" y="2539.38" width="60" height="30" as="geometry" />
        </mxCell>
        <mxCell id="SE4oea5at5pP_NoJNJHg-133" value="&lt;font style=&quot;font-size: 36px;&quot;&gt;)&lt;/font&gt;" style="text;html=1;align=center;verticalAlign=middle;whiteSpace=wrap;rounded=0;" parent="1" vertex="1">
          <mxGeometry x="611.25" y="2539.38" width="60" height="30" as="geometry" />
        </mxCell>
        <mxCell id="SE4oea5at5pP_NoJNJHg-134" value="0" style="text;html=1;align=center;verticalAlign=middle;whiteSpace=wrap;rounded=0;" parent="1" vertex="1">
          <mxGeometry x="348.75" y="2539.38" width="70" height="30" as="geometry" />
        </mxCell>
        <mxCell id="SE4oea5at5pP_NoJNJHg-135" value="+" style="text;html=1;align=center;verticalAlign=middle;whiteSpace=wrap;rounded=0;" parent="1" vertex="1">
          <mxGeometry x="392.5" y="2539.38" width="70" height="30" as="geometry" />
        </mxCell>
        <mxCell id="SE4oea5at5pP_NoJNJHg-136" value="" style="shape=curlyBracket;whiteSpace=wrap;html=1;rounded=1;labelPosition=left;verticalLabelPosition=middle;align=right;verticalAlign=middle;rotation=-90;" parent="1" vertex="1">
          <mxGeometry x="542.18" y="2492.82" width="27.5" height="195.63" as="geometry" />
        </mxCell>
        <mxCell id="SE4oea5at5pP_NoJNJHg-137" value="0" style="text;html=1;align=center;verticalAlign=middle;whiteSpace=wrap;rounded=0;" parent="1" vertex="1">
          <mxGeometry x="520" y="2606.57" width="70" height="30" as="geometry" />
        </mxCell>
        <mxCell id="SE4oea5at5pP_NoJNJHg-138" value="1" style="text;html=1;align=center;verticalAlign=middle;whiteSpace=wrap;rounded=0;fontSize=16;" parent="1" vertex="1">
          <mxGeometry x="130" y="2660.63" width="70" height="30" as="geometry" />
        </mxCell>
        <mxCell id="SE4oea5at5pP_NoJNJHg-139" value="+" style="text;html=1;align=center;verticalAlign=middle;whiteSpace=wrap;rounded=0;fontSize=16;" parent="1" vertex="1">
          <mxGeometry x="160" y="2660.63" width="70" height="30" as="geometry" />
        </mxCell>
        <mxCell id="SE4oea5at5pP_NoJNJHg-140" value="0" style="text;html=1;align=center;verticalAlign=middle;whiteSpace=wrap;rounded=0;fontSize=16;" parent="1" vertex="1">
          <mxGeometry x="195" y="2660.63" width="70" height="30" as="geometry" />
        </mxCell>
        <mxCell id="SE4oea5at5pP_NoJNJHg-141" value="+" style="text;html=1;align=center;verticalAlign=middle;whiteSpace=wrap;rounded=0;fontSize=16;" parent="1" vertex="1">
          <mxGeometry x="235" y="2660.63" width="70" height="30" as="geometry" />
        </mxCell>
        <mxCell id="SE4oea5at5pP_NoJNJHg-142" value="1" style="text;html=1;align=center;verticalAlign=middle;whiteSpace=wrap;rounded=0;fontSize=16;" parent="1" vertex="1">
          <mxGeometry x="273.75" y="2660.63" width="70" height="30" as="geometry" />
        </mxCell>
        <mxCell id="SE4oea5at5pP_NoJNJHg-143" value="+" style="text;html=1;align=center;verticalAlign=middle;whiteSpace=wrap;rounded=0;fontSize=16;" parent="1" vertex="1">
          <mxGeometry x="315" y="2660.63" width="70" height="30" as="geometry" />
        </mxCell>
        <mxCell id="SE4oea5at5pP_NoJNJHg-144" value="0" style="text;html=1;align=center;verticalAlign=middle;whiteSpace=wrap;rounded=0;fontSize=16;" parent="1" vertex="1">
          <mxGeometry x="352.5" y="2660.63" width="70" height="30" as="geometry" />
        </mxCell>
        <mxCell id="SE4oea5at5pP_NoJNJHg-145" value="+" style="text;html=1;align=center;verticalAlign=middle;whiteSpace=wrap;rounded=0;fontSize=16;" parent="1" vertex="1">
          <mxGeometry x="392.5" y="2660.63" width="70" height="30" as="geometry" />
        </mxCell>
        <mxCell id="SE4oea5at5pP_NoJNJHg-146" value="0" style="text;html=1;align=center;verticalAlign=middle;whiteSpace=wrap;rounded=0;fontSize=16;" parent="1" vertex="1">
          <mxGeometry x="522.5" y="2660.63" width="70" height="30" as="geometry" />
        </mxCell>
        <mxCell id="SE4oea5at5pP_NoJNJHg-147" value="2" style="text;html=1;align=center;verticalAlign=middle;whiteSpace=wrap;rounded=0;fontSize=16;" parent="1" vertex="1">
          <mxGeometry x="665" y="2660.63" width="70" height="30" as="geometry" />
        </mxCell>
        <mxCell id="SE4oea5at5pP_NoJNJHg-148" value="&lt;div align=&quot;left&quot;&gt;&lt;font style=&quot;font-size: 36px;&quot;&gt;List Count Odds&lt;/font&gt;&lt;/div&gt;" style="text;html=1;align=left;verticalAlign=middle;whiteSpace=wrap;rounded=0;" parent="1" vertex="1">
          <mxGeometry x="103.75" y="2140.63" width="356.25" height="30" as="geometry" />
        </mxCell>
        <mxCell id="SE4oea5at5pP_NoJNJHg-149" value="recurse..." style="text;html=1;align=center;verticalAlign=middle;whiteSpace=wrap;rounded=0;" parent="1" vertex="1">
          <mxGeometry x="671.25" y="2250.63" width="60" height="30" as="geometry" />
        </mxCell>
        <mxCell id="SE4oea5at5pP_NoJNJHg-150" value="recurse..." style="text;html=1;align=center;verticalAlign=middle;whiteSpace=wrap;rounded=0;" parent="1" vertex="1">
          <mxGeometry x="673.75" y="2330.63" width="60" height="30" as="geometry" />
        </mxCell>
        <mxCell id="SE4oea5at5pP_NoJNJHg-151" value="recurse..." style="text;html=1;align=center;verticalAlign=middle;whiteSpace=wrap;rounded=0;" parent="1" vertex="1">
          <mxGeometry x="673.75" y="2405.63" width="60" height="30" as="geometry" />
        </mxCell>
        <mxCell id="SE4oea5at5pP_NoJNJHg-152" value="recurse..." style="text;html=1;align=center;verticalAlign=middle;whiteSpace=wrap;rounded=0;" parent="1" vertex="1">
          <mxGeometry x="676.25" y="2485.63" width="60" height="30" as="geometry" />
        </mxCell>
        <mxCell id="SE4oea5at5pP_NoJNJHg-153" value="base" style="text;html=1;align=center;verticalAlign=middle;whiteSpace=wrap;rounded=0;" parent="1" vertex="1">
          <mxGeometry x="663.75" y="2561.88" width="60" height="30" as="geometry" />
        </mxCell>
        <mxCell id="SE4oea5at5pP_NoJNJHg-157" value="&lt;font style=&quot;font-size: 36px;&quot;&gt;(&lt;/font&gt;" style="text;html=1;align=center;verticalAlign=middle;whiteSpace=wrap;rounded=0;" parent="1" vertex="1">
          <mxGeometry x="533.75" y="2539.38" width="60" height="30" as="geometry" />
        </mxCell>
        <mxCell id="SE4oea5at5pP_NoJNJHg-160" style="edgeStyle=orthogonalEdgeStyle;rounded=0;orthogonalLoop=1;jettySize=auto;html=1;strokeWidth=2;" parent="1" source="SE4oea5at5pP_NoJNJHg-161" target="SE4oea5at5pP_NoJNJHg-163" edge="1">
          <mxGeometry relative="1" as="geometry" />
        </mxCell>
        <mxCell id="SE4oea5at5pP_NoJNJHg-161" value="1" style="ellipse;whiteSpace=wrap;html=1;aspect=fixed;strokeWidth=2;" parent="1" vertex="1">
          <mxGeometry x="275" y="2851.26" width="40" height="40" as="geometry" />
        </mxCell>
        <mxCell id="SE4oea5at5pP_NoJNJHg-162" style="edgeStyle=orthogonalEdgeStyle;rounded=0;orthogonalLoop=1;jettySize=auto;html=1;strokeColor=default;strokeWidth=2;align=center;verticalAlign=middle;fontFamily=Helvetica;fontSize=11;fontColor=default;labelBackgroundColor=default;endArrow=classic;" parent="1" source="SE4oea5at5pP_NoJNJHg-163" target="SE4oea5at5pP_NoJNJHg-165" edge="1">
          <mxGeometry relative="1" as="geometry" />
        </mxCell>
        <mxCell id="SE4oea5at5pP_NoJNJHg-163" value="2" style="ellipse;whiteSpace=wrap;html=1;aspect=fixed;strokeWidth=2;" parent="1" vertex="1">
          <mxGeometry x="355" y="2851.26" width="40" height="40" as="geometry" />
        </mxCell>
        <mxCell id="SE4oea5at5pP_NoJNJHg-164" style="edgeStyle=orthogonalEdgeStyle;rounded=0;orthogonalLoop=1;jettySize=auto;html=1;strokeColor=default;strokeWidth=2;align=center;verticalAlign=middle;fontFamily=Helvetica;fontSize=12;fontColor=default;labelBackgroundColor=default;endArrow=classic;" parent="1" source="SE4oea5at5pP_NoJNJHg-165" target="SE4oea5at5pP_NoJNJHg-167" edge="1">
          <mxGeometry relative="1" as="geometry" />
        </mxCell>
        <mxCell id="SE4oea5at5pP_NoJNJHg-165" value="3" style="ellipse;whiteSpace=wrap;html=1;aspect=fixed;strokeWidth=2;" parent="1" vertex="1">
          <mxGeometry x="435" y="2851.26" width="40" height="40" as="geometry" />
        </mxCell>
        <mxCell id="SE4oea5at5pP_NoJNJHg-166" style="edgeStyle=orthogonalEdgeStyle;rounded=0;orthogonalLoop=1;jettySize=auto;html=1;strokeColor=default;strokeWidth=2;align=center;verticalAlign=middle;fontFamily=Helvetica;fontSize=12;fontColor=default;labelBackgroundColor=default;endArrow=classic;" parent="1" source="SE4oea5at5pP_NoJNJHg-167" target="SE4oea5at5pP_NoJNJHg-168" edge="1">
          <mxGeometry relative="1" as="geometry">
            <mxPoint x="595" y="2871.26" as="targetPoint" />
          </mxGeometry>
        </mxCell>
        <mxCell id="SE4oea5at5pP_NoJNJHg-167" value="4" style="ellipse;whiteSpace=wrap;html=1;aspect=fixed;strokeWidth=2;strokeColor=default;align=center;verticalAlign=middle;fontFamily=Helvetica;fontSize=12;fontColor=default;fillColor=default;" parent="1" vertex="1">
          <mxGeometry x="515" y="2851.26" width="40" height="40" as="geometry" />
        </mxCell>
        <mxCell id="SE4oea5at5pP_NoJNJHg-168" value="" style="verticalLabelPosition=bottom;verticalAlign=top;html=1;shape=mxgraph.basic.x;strokeColor=default;strokeWidth=2;align=center;fontFamily=Helvetica;fontSize=12;fontColor=default;fillColor=default;" parent="1" vertex="1">
          <mxGeometry x="595" y="2863.76" width="20" height="15" as="geometry" />
        </mxCell>
        <mxCell id="SE4oea5at5pP_NoJNJHg-169" value="&lt;pre&gt;&lt;span class=&quot;w&quot;&gt;&lt;/span&gt;&lt;span class=&quot;nf&quot;&gt;listIsSorted&lt;/span&gt;&lt;span class=&quot;p&quot;&gt;&lt;/span&gt;&lt;/pre&gt;" style="text;html=1;align=center;verticalAlign=middle;whiteSpace=wrap;rounded=0;" parent="1" vertex="1">
          <mxGeometry x="160" y="2856.26" width="70" height="30" as="geometry" />
        </mxCell>
        <mxCell id="SE4oea5at5pP_NoJNJHg-170" value="&lt;font style=&quot;font-size: 36px;&quot;&gt;(&lt;/font&gt;" style="text;html=1;align=center;verticalAlign=middle;whiteSpace=wrap;rounded=0;" parent="1" vertex="1">
          <mxGeometry x="220" y="2856.26" width="60" height="30" as="geometry" />
        </mxCell>
        <mxCell id="SE4oea5at5pP_NoJNJHg-171" value="&lt;font style=&quot;font-size: 36px;&quot;&gt;)&lt;/font&gt;" style="text;html=1;align=center;verticalAlign=middle;whiteSpace=wrap;rounded=0;" parent="1" vertex="1">
          <mxGeometry x="615" y="2856.26" width="60" height="30" as="geometry" />
        </mxCell>
        <mxCell id="SE4oea5at5pP_NoJNJHg-172" style="edgeStyle=orthogonalEdgeStyle;rounded=0;orthogonalLoop=1;jettySize=auto;html=1;strokeColor=default;strokeWidth=2;align=center;verticalAlign=middle;fontFamily=Helvetica;fontSize=11;fontColor=default;labelBackgroundColor=default;endArrow=classic;" parent="1" source="SE4oea5at5pP_NoJNJHg-173" target="SE4oea5at5pP_NoJNJHg-175" edge="1">
          <mxGeometry relative="1" as="geometry" />
        </mxCell>
        <mxCell id="SE4oea5at5pP_NoJNJHg-173" value="2" style="ellipse;whiteSpace=wrap;html=1;aspect=fixed;strokeWidth=2;" parent="1" vertex="1">
          <mxGeometry x="355" y="2931.26" width="40" height="40" as="geometry" />
        </mxCell>
        <mxCell id="SE4oea5at5pP_NoJNJHg-174" style="edgeStyle=orthogonalEdgeStyle;rounded=0;orthogonalLoop=1;jettySize=auto;html=1;strokeColor=default;strokeWidth=2;align=center;verticalAlign=middle;fontFamily=Helvetica;fontSize=12;fontColor=default;labelBackgroundColor=default;endArrow=classic;" parent="1" source="SE4oea5at5pP_NoJNJHg-175" target="SE4oea5at5pP_NoJNJHg-177" edge="1">
          <mxGeometry relative="1" as="geometry" />
        </mxCell>
        <mxCell id="SE4oea5at5pP_NoJNJHg-175" value="3" style="ellipse;whiteSpace=wrap;html=1;aspect=fixed;strokeWidth=2;" parent="1" vertex="1">
          <mxGeometry x="435" y="2931.26" width="40" height="40" as="geometry" />
        </mxCell>
        <mxCell id="SE4oea5at5pP_NoJNJHg-176" style="edgeStyle=orthogonalEdgeStyle;rounded=0;orthogonalLoop=1;jettySize=auto;html=1;strokeColor=default;strokeWidth=2;align=center;verticalAlign=middle;fontFamily=Helvetica;fontSize=12;fontColor=default;labelBackgroundColor=default;endArrow=classic;" parent="1" source="SE4oea5at5pP_NoJNJHg-177" target="SE4oea5at5pP_NoJNJHg-178" edge="1">
          <mxGeometry relative="1" as="geometry">
            <mxPoint x="595" y="2951.26" as="targetPoint" />
          </mxGeometry>
        </mxCell>
        <mxCell id="SE4oea5at5pP_NoJNJHg-177" value="4" style="ellipse;whiteSpace=wrap;html=1;aspect=fixed;strokeWidth=2;strokeColor=default;align=center;verticalAlign=middle;fontFamily=Helvetica;fontSize=12;fontColor=default;fillColor=default;" parent="1" vertex="1">
          <mxGeometry x="515" y="2931.26" width="40" height="40" as="geometry" />
        </mxCell>
        <mxCell id="SE4oea5at5pP_NoJNJHg-178" value="" style="verticalLabelPosition=bottom;verticalAlign=top;html=1;shape=mxgraph.basic.x;strokeColor=default;strokeWidth=2;align=center;fontFamily=Helvetica;fontSize=12;fontColor=default;fillColor=default;" parent="1" vertex="1">
          <mxGeometry x="595" y="2943.76" width="20" height="15" as="geometry" />
        </mxCell>
        <mxCell id="SE4oea5at5pP_NoJNJHg-179" value="&lt;pre&gt;&lt;span class=&quot;w&quot;&gt;&lt;/span&gt;&lt;span class=&quot;nf&quot;&gt;listIsSorted&lt;/span&gt;&lt;span class=&quot;p&quot;&gt;&lt;/span&gt;&lt;/pre&gt;" style="text;html=1;align=center;verticalAlign=middle;whiteSpace=wrap;rounded=0;" parent="1" vertex="1">
          <mxGeometry x="236.25" y="2935.63" width="70" height="30.63" as="geometry" />
        </mxCell>
        <mxCell id="SE4oea5at5pP_NoJNJHg-180" value="&lt;font style=&quot;font-size: 36px;&quot;&gt;(&lt;/font&gt;" style="text;html=1;align=center;verticalAlign=middle;whiteSpace=wrap;rounded=0;" parent="1" vertex="1">
          <mxGeometry x="300" y="2936.26" width="60" height="30" as="geometry" />
        </mxCell>
        <mxCell id="SE4oea5at5pP_NoJNJHg-181" value="&lt;font style=&quot;font-size: 36px;&quot;&gt;)&lt;/font&gt;" style="text;html=1;align=center;verticalAlign=middle;whiteSpace=wrap;rounded=0;" parent="1" vertex="1">
          <mxGeometry x="615" y="2936.26" width="60" height="30" as="geometry" />
        </mxCell>
        <mxCell id="SE4oea5at5pP_NoJNJHg-182" value="&lt;pre&gt;true&lt;span class=&quot;p&quot;&gt;&lt;/span&gt;&lt;/pre&gt;" style="text;html=1;align=center;verticalAlign=middle;whiteSpace=wrap;rounded=0;fontColor=#00CC00;" parent="1" vertex="1">
          <mxGeometry x="131.25" y="2936.26" width="70" height="30" as="geometry" />
        </mxCell>
        <mxCell id="SE4oea5at5pP_NoJNJHg-183" value="&amp;amp;&amp;amp;" style="text;html=1;align=center;verticalAlign=middle;whiteSpace=wrap;rounded=0;" parent="1" vertex="1">
          <mxGeometry x="166.25" y="2936.26" width="70" height="30" as="geometry" />
        </mxCell>
        <mxCell id="SE4oea5at5pP_NoJNJHg-184" style="edgeStyle=orthogonalEdgeStyle;rounded=0;orthogonalLoop=1;jettySize=auto;html=1;strokeColor=default;strokeWidth=2;align=center;verticalAlign=middle;fontFamily=Helvetica;fontSize=12;fontColor=default;labelBackgroundColor=default;endArrow=classic;" parent="1" source="SE4oea5at5pP_NoJNJHg-185" target="SE4oea5at5pP_NoJNJHg-187" edge="1">
          <mxGeometry relative="1" as="geometry" />
        </mxCell>
        <mxCell id="SE4oea5at5pP_NoJNJHg-185" value="3" style="ellipse;whiteSpace=wrap;html=1;aspect=fixed;strokeWidth=2;" parent="1" vertex="1">
          <mxGeometry x="435" y="3011.26" width="40" height="40" as="geometry" />
        </mxCell>
        <mxCell id="SE4oea5at5pP_NoJNJHg-186" style="edgeStyle=orthogonalEdgeStyle;rounded=0;orthogonalLoop=1;jettySize=auto;html=1;strokeColor=default;strokeWidth=2;align=center;verticalAlign=middle;fontFamily=Helvetica;fontSize=12;fontColor=default;labelBackgroundColor=default;endArrow=classic;" parent="1" source="SE4oea5at5pP_NoJNJHg-187" target="SE4oea5at5pP_NoJNJHg-188" edge="1">
          <mxGeometry relative="1" as="geometry">
            <mxPoint x="595" y="3031.26" as="targetPoint" />
          </mxGeometry>
        </mxCell>
        <mxCell id="SE4oea5at5pP_NoJNJHg-187" value="4" style="ellipse;whiteSpace=wrap;html=1;aspect=fixed;strokeWidth=2;strokeColor=default;align=center;verticalAlign=middle;fontFamily=Helvetica;fontSize=12;fontColor=default;fillColor=default;" parent="1" vertex="1">
          <mxGeometry x="515" y="3011.26" width="40" height="40" as="geometry" />
        </mxCell>
        <mxCell id="SE4oea5at5pP_NoJNJHg-188" value="" style="verticalLabelPosition=bottom;verticalAlign=top;html=1;shape=mxgraph.basic.x;strokeColor=default;strokeWidth=2;align=center;fontFamily=Helvetica;fontSize=12;fontColor=default;fillColor=default;" parent="1" vertex="1">
          <mxGeometry x="595" y="3023.76" width="20" height="15" as="geometry" />
        </mxCell>
        <mxCell id="SE4oea5at5pP_NoJNJHg-189" value="&lt;pre&gt;&lt;span class=&quot;w&quot;&gt;&lt;/span&gt;&lt;span class=&quot;nf&quot;&gt;listIsSorted&lt;/span&gt;&lt;span class=&quot;p&quot;&gt;&lt;/span&gt;&lt;/pre&gt;" style="text;html=1;align=center;verticalAlign=middle;whiteSpace=wrap;rounded=0;" parent="1" vertex="1">
          <mxGeometry x="316.25" y="3016.26" width="70" height="30" as="geometry" />
        </mxCell>
        <mxCell id="SE4oea5at5pP_NoJNJHg-190" value="&lt;font style=&quot;font-size: 36px;&quot;&gt;(&lt;/font&gt;" style="text;html=1;align=center;verticalAlign=middle;whiteSpace=wrap;rounded=0;" parent="1" vertex="1">
          <mxGeometry x="380" y="3016.26" width="60" height="30" as="geometry" />
        </mxCell>
        <mxCell id="SE4oea5at5pP_NoJNJHg-191" value="&lt;font style=&quot;font-size: 36px;&quot;&gt;)&lt;/font&gt;" style="text;html=1;align=center;verticalAlign=middle;whiteSpace=wrap;rounded=0;" parent="1" vertex="1">
          <mxGeometry x="615" y="3016.26" width="60" height="30" as="geometry" />
        </mxCell>
        <mxCell id="SE4oea5at5pP_NoJNJHg-193" value="&amp;amp;&amp;amp;" style="text;html=1;align=center;verticalAlign=middle;whiteSpace=wrap;rounded=0;" parent="1" vertex="1">
          <mxGeometry x="240" y="3016.26" width="70" height="30" as="geometry" />
        </mxCell>
        <mxCell id="SE4oea5at5pP_NoJNJHg-194" value="" style="shape=curlyBracket;whiteSpace=wrap;html=1;rounded=1;labelPosition=left;verticalLabelPosition=middle;align=right;verticalAlign=middle;rotation=-90;" parent="1" vertex="1">
          <mxGeometry x="427.81" y="2774.07" width="22.5" height="436.88" as="geometry" />
        </mxCell>
        <mxCell id="SE4oea5at5pP_NoJNJHg-195" value="" style="shape=curlyBracket;whiteSpace=wrap;html=1;rounded=1;labelPosition=left;verticalLabelPosition=middle;align=right;verticalAlign=middle;rotation=-90;" parent="1" vertex="1">
          <mxGeometry x="389.38" y="2660.63" width="23.75" height="507.5" as="geometry" />
        </mxCell>
        <mxCell id="SE4oea5at5pP_NoJNJHg-196" value="" style="shape=curlyBracket;whiteSpace=wrap;html=1;rounded=1;labelPosition=left;verticalLabelPosition=middle;align=right;verticalAlign=middle;rotation=-90;" parent="1" vertex="1">
          <mxGeometry x="469.06" y="2892.82" width="22.5" height="354.38" as="geometry" />
        </mxCell>
        <mxCell id="SE4oea5at5pP_NoJNJHg-197" style="edgeStyle=orthogonalEdgeStyle;rounded=0;orthogonalLoop=1;jettySize=auto;html=1;strokeColor=default;strokeWidth=2;align=center;verticalAlign=middle;fontFamily=Helvetica;fontSize=12;fontColor=default;labelBackgroundColor=default;endArrow=classic;" parent="1" source="SE4oea5at5pP_NoJNJHg-198" target="SE4oea5at5pP_NoJNJHg-199" edge="1">
          <mxGeometry relative="1" as="geometry">
            <mxPoint x="592.5" y="3111.26" as="targetPoint" />
          </mxGeometry>
        </mxCell>
        <mxCell id="SE4oea5at5pP_NoJNJHg-198" value="4" style="ellipse;whiteSpace=wrap;html=1;aspect=fixed;strokeWidth=2;strokeColor=default;align=center;verticalAlign=middle;fontFamily=Helvetica;fontSize=12;fontColor=default;fillColor=default;" parent="1" vertex="1">
          <mxGeometry x="512.5" y="3091.26" width="40" height="40" as="geometry" />
        </mxCell>
        <mxCell id="SE4oea5at5pP_NoJNJHg-199" value="" style="verticalLabelPosition=bottom;verticalAlign=top;html=1;shape=mxgraph.basic.x;strokeColor=default;strokeWidth=2;align=center;fontFamily=Helvetica;fontSize=12;fontColor=default;fillColor=default;" parent="1" vertex="1">
          <mxGeometry x="592.5" y="3103.76" width="20" height="15" as="geometry" />
        </mxCell>
        <mxCell id="SE4oea5at5pP_NoJNJHg-200" value="&lt;pre&gt;&lt;span class=&quot;w&quot;&gt;&lt;/span&gt;&lt;span class=&quot;nf&quot;&gt;listIsSorted&lt;/span&gt;&lt;span class=&quot;p&quot;&gt;&lt;/span&gt;&lt;/pre&gt;" style="text;html=1;align=center;verticalAlign=middle;whiteSpace=wrap;rounded=0;" parent="1" vertex="1">
          <mxGeometry x="390" y="3096.26" width="70" height="30" as="geometry" />
        </mxCell>
        <mxCell id="SE4oea5at5pP_NoJNJHg-201" value="&lt;font style=&quot;font-size: 36px;&quot;&gt;(&lt;/font&gt;" style="text;html=1;align=center;verticalAlign=middle;whiteSpace=wrap;rounded=0;" parent="1" vertex="1">
          <mxGeometry x="452.5" y="3096.26" width="60" height="30" as="geometry" />
        </mxCell>
        <mxCell id="SE4oea5at5pP_NoJNJHg-202" value="&lt;font style=&quot;font-size: 36px;&quot;&gt;)&lt;/font&gt;" style="text;html=1;align=center;verticalAlign=middle;whiteSpace=wrap;rounded=0;" parent="1" vertex="1">
          <mxGeometry x="612.5" y="3096.26" width="60" height="30" as="geometry" />
        </mxCell>
        <mxCell id="SE4oea5at5pP_NoJNJHg-203" value="&lt;pre&gt;true&lt;span class=&quot;p&quot;&gt;&lt;/span&gt;&lt;/pre&gt;" style="text;html=1;align=center;verticalAlign=middle;whiteSpace=wrap;rounded=0;fontColor=#00CC00;" parent="1" vertex="1">
          <mxGeometry x="276.25" y="3096.26" width="70" height="30" as="geometry" />
        </mxCell>
        <mxCell id="SE4oea5at5pP_NoJNJHg-204" value="&amp;amp;&amp;amp;" style="text;html=1;align=center;verticalAlign=middle;whiteSpace=wrap;rounded=0;" parent="1" vertex="1">
          <mxGeometry x="316.25" y="3096.26" width="70" height="30" as="geometry" />
        </mxCell>
        <mxCell id="SE4oea5at5pP_NoJNJHg-205" value="" style="shape=curlyBracket;whiteSpace=wrap;html=1;rounded=1;labelPosition=left;verticalLabelPosition=middle;align=right;verticalAlign=middle;rotation=-90;" parent="1" vertex="1">
          <mxGeometry x="500.31" y="3006.57" width="27.5" height="281.88" as="geometry" />
        </mxCell>
        <mxCell id="SE4oea5at5pP_NoJNJHg-213" value="&lt;pre&gt;true&lt;span class=&quot;p&quot;&gt;&lt;/span&gt;&lt;/pre&gt;" style="text;html=1;align=center;verticalAlign=middle;whiteSpace=wrap;rounded=0;fontColor=#00CC00;" parent="1" vertex="1">
          <mxGeometry x="130" y="3225.0000000000005" width="70" height="30" as="geometry" />
        </mxCell>
        <mxCell id="SE4oea5at5pP_NoJNJHg-214" value="&amp;amp;&amp;amp;" style="text;html=1;align=center;verticalAlign=middle;whiteSpace=wrap;rounded=0;" parent="1" vertex="1">
          <mxGeometry x="160" y="3225.0000000000005" width="70" height="30" as="geometry" />
        </mxCell>
        <mxCell id="SE4oea5at5pP_NoJNJHg-215" value="&lt;pre&gt;true&lt;span class=&quot;p&quot;&gt;&lt;/span&gt;&lt;/pre&gt;" style="text;html=1;align=center;verticalAlign=middle;whiteSpace=wrap;rounded=0;fontColor=#00CC00;" parent="1" vertex="1">
          <mxGeometry x="195" y="3225.0000000000005" width="70" height="30" as="geometry" />
        </mxCell>
        <mxCell id="SE4oea5at5pP_NoJNJHg-216" value="&amp;amp;&amp;amp;" style="text;html=1;align=center;verticalAlign=middle;whiteSpace=wrap;rounded=0;" parent="1" vertex="1">
          <mxGeometry x="235" y="3225.0000000000005" width="70" height="30" as="geometry" />
        </mxCell>
        <mxCell id="SE4oea5at5pP_NoJNJHg-217" value="&lt;pre&gt;true&lt;span class=&quot;p&quot;&gt;&lt;/span&gt;&lt;/pre&gt;" style="text;html=1;align=center;verticalAlign=middle;whiteSpace=wrap;rounded=0;fontColor=#00CC00;" parent="1" vertex="1">
          <mxGeometry x="273.75" y="3225.0000000000005" width="70" height="30" as="geometry" />
        </mxCell>
        <mxCell id="SE4oea5at5pP_NoJNJHg-218" value="&amp;amp;&amp;amp;" style="text;html=1;align=center;verticalAlign=middle;whiteSpace=wrap;rounded=0;" parent="1" vertex="1">
          <mxGeometry x="315" y="3225.0000000000005" width="70" height="30" as="geometry" />
        </mxCell>
        <mxCell id="SE4oea5at5pP_NoJNJHg-219" value="&lt;pre&gt;true&lt;span class=&quot;p&quot;&gt;&lt;/span&gt;&lt;/pre&gt;" style="text;html=1;align=center;verticalAlign=middle;whiteSpace=wrap;rounded=0;fontColor=#00CC00;" parent="1" vertex="1">
          <mxGeometry x="352.5" y="3225.0000000000005" width="70" height="30" as="geometry" />
        </mxCell>
        <mxCell id="SE4oea5at5pP_NoJNJHg-220" value="&amp;amp;&amp;amp;" style="text;html=1;align=center;verticalAlign=middle;whiteSpace=wrap;rounded=0;" parent="1" vertex="1">
          <mxGeometry x="392.5" y="3225.0000000000005" width="70" height="30" as="geometry" />
        </mxCell>
        <mxCell id="SE4oea5at5pP_NoJNJHg-223" value="&lt;div align=&quot;left&quot;&gt;&lt;font style=&quot;font-size: 36px;&quot;&gt;List Is Sorted&lt;/font&gt;&lt;/div&gt;" style="text;html=1;align=left;verticalAlign=middle;whiteSpace=wrap;rounded=0;" parent="1" vertex="1">
          <mxGeometry x="105" y="2781.26" width="240" height="30" as="geometry" />
        </mxCell>
        <mxCell id="SE4oea5at5pP_NoJNJHg-224" value="recurse..." style="text;html=1;align=center;verticalAlign=middle;whiteSpace=wrap;rounded=0;" parent="1" vertex="1">
          <mxGeometry x="672.5" y="2891.26" width="60" height="30" as="geometry" />
        </mxCell>
        <mxCell id="SE4oea5at5pP_NoJNJHg-225" value="recurse..." style="text;html=1;align=center;verticalAlign=middle;whiteSpace=wrap;rounded=0;" parent="1" vertex="1">
          <mxGeometry x="675" y="2971.26" width="60" height="30" as="geometry" />
        </mxCell>
        <mxCell id="SE4oea5at5pP_NoJNJHg-226" value="recurse..." style="text;html=1;align=center;verticalAlign=middle;whiteSpace=wrap;rounded=0;" parent="1" vertex="1">
          <mxGeometry x="675" y="3046.26" width="60" height="30" as="geometry" />
        </mxCell>
        <mxCell id="SE4oea5at5pP_NoJNJHg-227" value="base" style="text;html=1;align=center;verticalAlign=middle;whiteSpace=wrap;rounded=0;" parent="1" vertex="1">
          <mxGeometry x="663.75" y="3126.26" width="60" height="30" as="geometry" />
        </mxCell>
        <mxCell id="SE4oea5at5pP_NoJNJHg-230" value="&lt;pre&gt;true&lt;span class=&quot;p&quot;&gt;&lt;/span&gt;&lt;/pre&gt;" style="text;html=1;align=center;verticalAlign=middle;whiteSpace=wrap;rounded=0;fontColor=#00CC00;" parent="1" vertex="1">
          <mxGeometry x="201.25" y="3016.26" width="70" height="30" as="geometry" />
        </mxCell>
        <mxCell id="SE4oea5at5pP_NoJNJHg-232" value="&lt;pre&gt;true&lt;span class=&quot;p&quot;&gt;&lt;/span&gt;&lt;/pre&gt;" style="text;html=1;align=center;verticalAlign=middle;whiteSpace=wrap;rounded=0;fontColor=#00CC00;" parent="1" vertex="1">
          <mxGeometry x="480" y="3175" width="70" height="30" as="geometry" />
        </mxCell>
        <mxCell id="SE4oea5at5pP_NoJNJHg-233" value="&lt;pre&gt;true&lt;span class=&quot;p&quot;&gt;&lt;/span&gt;&lt;/pre&gt;" style="text;html=1;align=center;verticalAlign=middle;whiteSpace=wrap;rounded=0;fontColor=#00CC00;" parent="1" vertex="1">
          <mxGeometry x="480" y="3225.0000000000005" width="70" height="30" as="geometry" />
        </mxCell>
        <mxCell id="SE4oea5at5pP_NoJNJHg-234" style="edgeStyle=orthogonalEdgeStyle;rounded=0;orthogonalLoop=1;jettySize=auto;html=1;strokeWidth=2;" parent="1" source="SE4oea5at5pP_NoJNJHg-235" target="SE4oea5at5pP_NoJNJHg-237" edge="1">
          <mxGeometry relative="1" as="geometry" />
        </mxCell>
        <mxCell id="SE4oea5at5pP_NoJNJHg-235" value="1" style="ellipse;whiteSpace=wrap;html=1;aspect=fixed;strokeWidth=2;" parent="1" vertex="1">
          <mxGeometry x="275" y="3365.63" width="40" height="40" as="geometry" />
        </mxCell>
        <mxCell id="SE4oea5at5pP_NoJNJHg-236" style="edgeStyle=orthogonalEdgeStyle;rounded=0;orthogonalLoop=1;jettySize=auto;html=1;strokeColor=default;strokeWidth=2;align=center;verticalAlign=middle;fontFamily=Helvetica;fontSize=11;fontColor=default;labelBackgroundColor=default;endArrow=classic;" parent="1" source="SE4oea5at5pP_NoJNJHg-237" target="SE4oea5at5pP_NoJNJHg-239" edge="1">
          <mxGeometry relative="1" as="geometry" />
        </mxCell>
        <mxCell id="SE4oea5at5pP_NoJNJHg-237" value="2" style="ellipse;whiteSpace=wrap;html=1;aspect=fixed;strokeWidth=2;" parent="1" vertex="1">
          <mxGeometry x="355" y="3365.63" width="40" height="40" as="geometry" />
        </mxCell>
        <mxCell id="SE4oea5at5pP_NoJNJHg-238" style="edgeStyle=orthogonalEdgeStyle;rounded=0;orthogonalLoop=1;jettySize=auto;html=1;strokeColor=default;strokeWidth=2;align=center;verticalAlign=middle;fontFamily=Helvetica;fontSize=12;fontColor=default;labelBackgroundColor=default;endArrow=classic;" parent="1" source="SE4oea5at5pP_NoJNJHg-239" target="SE4oea5at5pP_NoJNJHg-241" edge="1">
          <mxGeometry relative="1" as="geometry" />
        </mxCell>
        <mxCell id="SE4oea5at5pP_NoJNJHg-239" value="8" style="ellipse;whiteSpace=wrap;html=1;aspect=fixed;strokeWidth=2;" parent="1" vertex="1">
          <mxGeometry x="435" y="3365.63" width="40" height="40" as="geometry" />
        </mxCell>
        <mxCell id="SE4oea5at5pP_NoJNJHg-240" style="edgeStyle=orthogonalEdgeStyle;rounded=0;orthogonalLoop=1;jettySize=auto;html=1;strokeColor=default;strokeWidth=2;align=center;verticalAlign=middle;fontFamily=Helvetica;fontSize=12;fontColor=default;labelBackgroundColor=default;endArrow=classic;" parent="1" source="SE4oea5at5pP_NoJNJHg-241" target="SE4oea5at5pP_NoJNJHg-300" edge="1">
          <mxGeometry relative="1" as="geometry">
            <mxPoint x="595" y="3385.6299999999997" as="targetPoint" />
          </mxGeometry>
        </mxCell>
        <mxCell id="SE4oea5at5pP_NoJNJHg-241" value="5" style="ellipse;whiteSpace=wrap;html=1;aspect=fixed;strokeWidth=2;strokeColor=default;align=center;verticalAlign=middle;fontFamily=Helvetica;fontSize=12;fontColor=default;fillColor=default;" parent="1" vertex="1">
          <mxGeometry x="515" y="3365.63" width="40" height="40" as="geometry" />
        </mxCell>
        <mxCell id="SE4oea5at5pP_NoJNJHg-243" value="&lt;pre&gt;&lt;span class=&quot;w&quot;&gt;&lt;/span&gt;&lt;span class=&quot;nf&quot;&gt;listIsSorted&lt;/span&gt;&lt;span class=&quot;p&quot;&gt;&lt;/span&gt;&lt;/pre&gt;" style="text;html=1;align=center;verticalAlign=middle;whiteSpace=wrap;rounded=0;" parent="1" vertex="1">
          <mxGeometry x="160" y="3370.63" width="70" height="30" as="geometry" />
        </mxCell>
        <mxCell id="SE4oea5at5pP_NoJNJHg-244" value="&lt;font style=&quot;font-size: 36px;&quot;&gt;(&lt;/font&gt;" style="text;html=1;align=center;verticalAlign=middle;whiteSpace=wrap;rounded=0;" parent="1" vertex="1">
          <mxGeometry x="220" y="3370.63" width="60" height="30" as="geometry" />
        </mxCell>
        <mxCell id="SE4oea5at5pP_NoJNJHg-245" value="&lt;font style=&quot;font-size: 36px;&quot;&gt;)&lt;/font&gt;" style="text;html=1;align=center;verticalAlign=middle;whiteSpace=wrap;rounded=0;" parent="1" vertex="1">
          <mxGeometry x="703.75" y="3370.63" width="60" height="30" as="geometry" />
        </mxCell>
        <mxCell id="SE4oea5at5pP_NoJNJHg-253" value="&lt;pre&gt;&lt;span class=&quot;w&quot;&gt;&lt;/span&gt;&lt;span class=&quot;nf&quot;&gt;listIsSorted&lt;/span&gt;&lt;span class=&quot;p&quot;&gt;&lt;/span&gt;&lt;/pre&gt;" style="text;html=1;align=center;verticalAlign=middle;whiteSpace=wrap;rounded=0;" parent="1" vertex="1">
          <mxGeometry x="236.25" y="3450" width="70" height="30.63" as="geometry" />
        </mxCell>
        <mxCell id="SE4oea5at5pP_NoJNJHg-254" value="&lt;font style=&quot;font-size: 36px;&quot;&gt;(&lt;/font&gt;" style="text;html=1;align=center;verticalAlign=middle;whiteSpace=wrap;rounded=0;" parent="1" vertex="1">
          <mxGeometry x="300" y="3450.63" width="60" height="30" as="geometry" />
        </mxCell>
        <mxCell id="SE4oea5at5pP_NoJNJHg-255" value="&lt;font style=&quot;font-size: 36px;&quot;&gt;)&lt;/font&gt;" style="text;html=1;align=center;verticalAlign=middle;whiteSpace=wrap;rounded=0;" parent="1" vertex="1">
          <mxGeometry x="703.75" y="3450.63" width="60" height="30" as="geometry" />
        </mxCell>
        <mxCell id="SE4oea5at5pP_NoJNJHg-256" value="&lt;pre&gt;&lt;span style=&quot;color: rgb(0, 204, 0);&quot;&gt;true&lt;span class=&quot;p&quot;&gt;&lt;/span&gt;&lt;/span&gt;&lt;/pre&gt;" style="text;html=1;align=center;verticalAlign=middle;whiteSpace=wrap;rounded=0;" parent="1" vertex="1">
          <mxGeometry x="131.25" y="3450.63" width="70" height="30" as="geometry" />
        </mxCell>
        <mxCell id="SE4oea5at5pP_NoJNJHg-257" value="&amp;amp;&amp;amp;" style="text;html=1;align=center;verticalAlign=middle;whiteSpace=wrap;rounded=0;" parent="1" vertex="1">
          <mxGeometry x="166.25" y="3450.63" width="70" height="30" as="geometry" />
        </mxCell>
        <mxCell id="SE4oea5at5pP_NoJNJHg-263" value="&lt;pre&gt;&lt;span class=&quot;w&quot;&gt;&lt;/span&gt;&lt;span class=&quot;nf&quot;&gt;listIsSorted&lt;/span&gt;&lt;span class=&quot;p&quot;&gt;&lt;/span&gt;&lt;/pre&gt;" style="text;html=1;align=center;verticalAlign=middle;whiteSpace=wrap;rounded=0;" parent="1" vertex="1">
          <mxGeometry x="316.25" y="3530.63" width="70" height="30" as="geometry" />
        </mxCell>
        <mxCell id="SE4oea5at5pP_NoJNJHg-264" value="&lt;font style=&quot;font-size: 36px;&quot;&gt;(&lt;/font&gt;" style="text;html=1;align=center;verticalAlign=middle;whiteSpace=wrap;rounded=0;" parent="1" vertex="1">
          <mxGeometry x="380" y="3530.63" width="60" height="30" as="geometry" />
        </mxCell>
        <mxCell id="SE4oea5at5pP_NoJNJHg-265" value="&lt;font style=&quot;font-size: 36px;&quot;&gt;)&lt;/font&gt;" style="text;html=1;align=center;verticalAlign=middle;whiteSpace=wrap;rounded=0;" parent="1" vertex="1">
          <mxGeometry x="703.75" y="3530.63" width="60" height="30" as="geometry" />
        </mxCell>
        <mxCell id="SE4oea5at5pP_NoJNJHg-266" value="&amp;amp;&amp;amp;" style="text;html=1;align=center;verticalAlign=middle;whiteSpace=wrap;rounded=0;" parent="1" vertex="1">
          <mxGeometry x="240" y="3530.63" width="70" height="30" as="geometry" />
        </mxCell>
        <mxCell id="SE4oea5at5pP_NoJNJHg-267" value="" style="shape=curlyBracket;whiteSpace=wrap;html=1;rounded=1;labelPosition=left;verticalLabelPosition=middle;align=right;verticalAlign=middle;rotation=-90;" parent="1" vertex="1">
          <mxGeometry x="478.23" y="3249.34" width="22.5" height="515.08" as="geometry" />
        </mxCell>
        <mxCell id="SE4oea5at5pP_NoJNJHg-268" value="" style="shape=curlyBracket;whiteSpace=wrap;html=1;rounded=1;labelPosition=left;verticalLabelPosition=middle;align=right;verticalAlign=middle;rotation=-90;" parent="1" vertex="1">
          <mxGeometry x="438.76" y="3131.88" width="23.75" height="593.75" as="geometry" />
        </mxCell>
        <mxCell id="SE4oea5at5pP_NoJNJHg-269" value="" style="shape=curlyBracket;whiteSpace=wrap;html=1;rounded=1;labelPosition=left;verticalLabelPosition=middle;align=right;verticalAlign=middle;rotation=-90;" parent="1" vertex="1">
          <mxGeometry x="516.66" y="3361.37" width="22.5" height="446.03" as="geometry" />
        </mxCell>
        <mxCell id="SE4oea5at5pP_NoJNJHg-273" value="&lt;pre&gt;&lt;span class=&quot;w&quot;&gt;&lt;/span&gt;&lt;span class=&quot;nf&quot;&gt;listIsSorted&lt;/span&gt;&lt;span class=&quot;p&quot;&gt;&lt;/span&gt;&lt;/pre&gt;" style="text;html=1;align=center;verticalAlign=middle;whiteSpace=wrap;rounded=0;" parent="1" vertex="1">
          <mxGeometry x="390" y="3610.63" width="70" height="30" as="geometry" />
        </mxCell>
        <mxCell id="SE4oea5at5pP_NoJNJHg-274" value="&lt;font style=&quot;font-size: 36px;&quot;&gt;(&lt;/font&gt;" style="text;html=1;align=center;verticalAlign=middle;whiteSpace=wrap;rounded=0;" parent="1" vertex="1">
          <mxGeometry x="452.5" y="3610.63" width="60" height="30" as="geometry" />
        </mxCell>
        <mxCell id="SE4oea5at5pP_NoJNJHg-275" value="&lt;font style=&quot;font-size: 36px;&quot;&gt;)&lt;/font&gt;" style="text;html=1;align=center;verticalAlign=middle;whiteSpace=wrap;rounded=0;" parent="1" vertex="1">
          <mxGeometry x="701.25" y="3610.63" width="60" height="30" as="geometry" />
        </mxCell>
        <mxCell id="SE4oea5at5pP_NoJNJHg-276" value="&lt;pre&gt;&lt;span style=&quot;color: rgb(204, 0, 0);&quot;&gt;false&lt;/span&gt;&lt;/pre&gt;" style="text;html=1;align=center;verticalAlign=middle;whiteSpace=wrap;rounded=0;" parent="1" vertex="1">
          <mxGeometry x="276.25" y="3610.63" width="70" height="30" as="geometry" />
        </mxCell>
        <mxCell id="SE4oea5at5pP_NoJNJHg-277" value="&amp;amp;&amp;amp;" style="text;html=1;align=center;verticalAlign=middle;whiteSpace=wrap;rounded=0;" parent="1" vertex="1">
          <mxGeometry x="316.25" y="3610.63" width="70" height="30" as="geometry" />
        </mxCell>
        <mxCell id="SE4oea5at5pP_NoJNJHg-278" value="" style="shape=curlyBracket;whiteSpace=wrap;html=1;rounded=1;labelPosition=left;verticalLabelPosition=middle;align=right;verticalAlign=middle;rotation=-90;" parent="1" vertex="1">
          <mxGeometry x="551.48" y="3479.93" width="27.5" height="363.91" as="geometry" />
        </mxCell>
        <mxCell id="SE4oea5at5pP_NoJNJHg-279" value="&lt;pre&gt;&lt;span style=&quot;color: rgb(0, 204, 0);&quot;&gt;true&lt;span class=&quot;p&quot;&gt;&lt;/span&gt;&lt;/span&gt;&lt;/pre&gt;" style="text;html=1;align=center;verticalAlign=middle;whiteSpace=wrap;rounded=0;" parent="1" vertex="1">
          <mxGeometry x="130" y="3813.84" width="70" height="30" as="geometry" />
        </mxCell>
        <mxCell id="SE4oea5at5pP_NoJNJHg-280" value="&amp;amp;&amp;amp;" style="text;html=1;align=center;verticalAlign=middle;whiteSpace=wrap;rounded=0;" parent="1" vertex="1">
          <mxGeometry x="160" y="3813.84" width="70" height="30" as="geometry" />
        </mxCell>
        <mxCell id="SE4oea5at5pP_NoJNJHg-281" value="&lt;pre&gt;&lt;span style=&quot;color: rgb(0, 204, 0);&quot;&gt;true&lt;span class=&quot;p&quot;&gt;&lt;/span&gt;&lt;/span&gt;&lt;/pre&gt;" style="text;html=1;align=center;verticalAlign=middle;whiteSpace=wrap;rounded=0;" parent="1" vertex="1">
          <mxGeometry x="195" y="3813.84" width="70" height="30" as="geometry" />
        </mxCell>
        <mxCell id="SE4oea5at5pP_NoJNJHg-282" value="&amp;amp;&amp;amp;" style="text;html=1;align=center;verticalAlign=middle;whiteSpace=wrap;rounded=0;" parent="1" vertex="1">
          <mxGeometry x="235" y="3813.84" width="70" height="30" as="geometry" />
        </mxCell>
        <mxCell id="SE4oea5at5pP_NoJNJHg-284" value="&amp;amp;&amp;amp;" style="text;html=1;align=center;verticalAlign=middle;whiteSpace=wrap;rounded=0;" parent="1" vertex="1">
          <mxGeometry x="315" y="3813.84" width="70" height="30" as="geometry" />
        </mxCell>
        <mxCell id="SE4oea5at5pP_NoJNJHg-285" value="&lt;pre&gt;&lt;span style=&quot;color: rgb(0, 204, 0);&quot;&gt;true&lt;span class=&quot;p&quot;&gt;&lt;/span&gt;&lt;/span&gt;&lt;/pre&gt;" style="text;html=1;align=center;verticalAlign=middle;whiteSpace=wrap;rounded=0;" parent="1" vertex="1">
          <mxGeometry x="352.5" y="3813.84" width="70" height="30" as="geometry" />
        </mxCell>
        <mxCell id="SE4oea5at5pP_NoJNJHg-286" value="&amp;amp;&amp;amp;" style="text;html=1;align=center;verticalAlign=middle;whiteSpace=wrap;rounded=0;" parent="1" vertex="1">
          <mxGeometry x="392.5" y="3813.84" width="70" height="30" as="geometry" />
        </mxCell>
        <mxCell id="SE4oea5at5pP_NoJNJHg-288" value="recurse..." style="text;html=1;align=center;verticalAlign=middle;whiteSpace=wrap;rounded=0;" parent="1" vertex="1">
          <mxGeometry x="772.5" y="3405.63" width="60" height="30" as="geometry" />
        </mxCell>
        <mxCell id="SE4oea5at5pP_NoJNJHg-289" value="recurse..." style="text;html=1;align=center;verticalAlign=middle;whiteSpace=wrap;rounded=0;" parent="1" vertex="1">
          <mxGeometry x="775" y="3485.63" width="60" height="30" as="geometry" />
        </mxCell>
        <mxCell id="SE4oea5at5pP_NoJNJHg-290" value="recurse..." style="text;html=1;align=center;verticalAlign=middle;whiteSpace=wrap;rounded=0;" parent="1" vertex="1">
          <mxGeometry x="775" y="3560.63" width="60" height="30" as="geometry" />
        </mxCell>
        <mxCell id="SE4oea5at5pP_NoJNJHg-291" value="base" style="text;html=1;align=center;verticalAlign=middle;whiteSpace=wrap;rounded=0;" parent="1" vertex="1">
          <mxGeometry x="763.75" y="3713.83" width="60" height="30" as="geometry" />
        </mxCell>
        <mxCell id="SE4oea5at5pP_NoJNJHg-292" value="&lt;pre&gt;&lt;span style=&quot;color: rgb(0, 204, 0);&quot;&gt;true&lt;span class=&quot;p&quot;&gt;&lt;/span&gt;&lt;/span&gt;&lt;/pre&gt;" style="text;html=1;align=center;verticalAlign=middle;whiteSpace=wrap;rounded=0;" parent="1" vertex="1">
          <mxGeometry x="201.25" y="3530.63" width="70" height="30" as="geometry" />
        </mxCell>
        <mxCell id="SE4oea5at5pP_NoJNJHg-294" value="&lt;pre&gt;&lt;span style=&quot;color: rgb(0, 204, 0);&quot;&gt;true&lt;span class=&quot;p&quot;&gt;&lt;/span&gt;&lt;/span&gt;&lt;/pre&gt;" style="text;html=1;align=center;verticalAlign=middle;whiteSpace=wrap;rounded=0;" parent="1" vertex="1">
          <mxGeometry x="480" y="3813.84" width="70" height="30" as="geometry" />
        </mxCell>
        <mxCell id="SE4oea5at5pP_NoJNJHg-295" value="=" style="text;html=1;align=center;verticalAlign=middle;whiteSpace=wrap;rounded=0;" parent="1" vertex="1">
          <mxGeometry x="630" y="3225.0000000000005" width="70" height="30" as="geometry" />
        </mxCell>
        <mxCell id="SE4oea5at5pP_NoJNJHg-296" value="&lt;pre&gt;true&lt;span class=&quot;p&quot;&gt;&lt;/span&gt;&lt;/pre&gt;" style="text;html=1;align=center;verticalAlign=middle;whiteSpace=wrap;rounded=0;fillColor=#d5e8d4;strokeColor=#82b366;" parent="1" vertex="1">
          <mxGeometry x="680" y="3225.0000000000005" width="70" height="30" as="geometry" />
        </mxCell>
        <mxCell id="SE4oea5at5pP_NoJNJHg-297" value="=" style="text;html=1;align=center;verticalAlign=middle;whiteSpace=wrap;rounded=0;fontSize=16;" parent="1" vertex="1">
          <mxGeometry x="630" y="2660.6300000000006" width="70" height="30" as="geometry" />
        </mxCell>
        <mxCell id="SE4oea5at5pP_NoJNJHg-300" value="6" style="ellipse;whiteSpace=wrap;html=1;aspect=fixed;strokeWidth=2;strokeColor=default;align=center;verticalAlign=middle;fontFamily=Helvetica;fontSize=12;fontColor=default;fillColor=default;" parent="1" vertex="1">
          <mxGeometry x="595" y="3365.63" width="40" height="40" as="geometry" />
        </mxCell>
        <mxCell id="SE4oea5at5pP_NoJNJHg-301" value="" style="verticalLabelPosition=bottom;verticalAlign=top;html=1;shape=mxgraph.basic.x;strokeColor=default;strokeWidth=2;align=center;fontFamily=Helvetica;fontSize=12;fontColor=default;fillColor=default;" parent="1" vertex="1">
          <mxGeometry x="681.25" y="3378.13" width="20" height="15" as="geometry" />
        </mxCell>
        <mxCell id="SE4oea5at5pP_NoJNJHg-306" style="edgeStyle=orthogonalEdgeStyle;shape=connector;rounded=0;orthogonalLoop=1;jettySize=auto;html=1;strokeColor=default;strokeWidth=2;align=center;verticalAlign=middle;fontFamily=Helvetica;fontSize=12;fontColor=default;labelBackgroundColor=default;endArrow=classic;" parent="1" source="SE4oea5at5pP_NoJNJHg-300" edge="1">
          <mxGeometry relative="1" as="geometry">
            <mxPoint x="680" y="3385" as="targetPoint" />
          </mxGeometry>
        </mxCell>
        <mxCell id="SE4oea5at5pP_NoJNJHg-307" style="edgeStyle=orthogonalEdgeStyle;rounded=0;orthogonalLoop=1;jettySize=auto;html=1;strokeColor=default;strokeWidth=2;align=center;verticalAlign=middle;fontFamily=Helvetica;fontSize=11;fontColor=default;labelBackgroundColor=default;endArrow=classic;" parent="1" source="SE4oea5at5pP_NoJNJHg-308" target="SE4oea5at5pP_NoJNJHg-310" edge="1">
          <mxGeometry relative="1" as="geometry" />
        </mxCell>
        <mxCell id="SE4oea5at5pP_NoJNJHg-308" value="2" style="ellipse;whiteSpace=wrap;html=1;aspect=fixed;strokeWidth=2;" parent="1" vertex="1">
          <mxGeometry x="355" y="3445.63" width="40" height="40" as="geometry" />
        </mxCell>
        <mxCell id="SE4oea5at5pP_NoJNJHg-309" style="edgeStyle=orthogonalEdgeStyle;rounded=0;orthogonalLoop=1;jettySize=auto;html=1;strokeColor=default;strokeWidth=2;align=center;verticalAlign=middle;fontFamily=Helvetica;fontSize=12;fontColor=default;labelBackgroundColor=default;endArrow=classic;" parent="1" source="SE4oea5at5pP_NoJNJHg-310" target="SE4oea5at5pP_NoJNJHg-312" edge="1">
          <mxGeometry relative="1" as="geometry" />
        </mxCell>
        <mxCell id="SE4oea5at5pP_NoJNJHg-310" value="8" style="ellipse;whiteSpace=wrap;html=1;aspect=fixed;strokeWidth=2;" parent="1" vertex="1">
          <mxGeometry x="435" y="3445.63" width="40" height="40" as="geometry" />
        </mxCell>
        <mxCell id="SE4oea5at5pP_NoJNJHg-311" style="edgeStyle=orthogonalEdgeStyle;rounded=0;orthogonalLoop=1;jettySize=auto;html=1;strokeColor=default;strokeWidth=2;align=center;verticalAlign=middle;fontFamily=Helvetica;fontSize=12;fontColor=default;labelBackgroundColor=default;endArrow=classic;" parent="1" source="SE4oea5at5pP_NoJNJHg-312" target="SE4oea5at5pP_NoJNJHg-313" edge="1">
          <mxGeometry relative="1" as="geometry">
            <mxPoint x="595" y="3465.6299999999997" as="targetPoint" />
          </mxGeometry>
        </mxCell>
        <mxCell id="SE4oea5at5pP_NoJNJHg-312" value="5" style="ellipse;whiteSpace=wrap;html=1;aspect=fixed;strokeWidth=2;strokeColor=default;align=center;verticalAlign=middle;fontFamily=Helvetica;fontSize=12;fontColor=default;fillColor=default;" parent="1" vertex="1">
          <mxGeometry x="515" y="3445.63" width="40" height="40" as="geometry" />
        </mxCell>
        <mxCell id="SE4oea5at5pP_NoJNJHg-313" value="6" style="ellipse;whiteSpace=wrap;html=1;aspect=fixed;strokeWidth=2;strokeColor=default;align=center;verticalAlign=middle;fontFamily=Helvetica;fontSize=12;fontColor=default;fillColor=default;" parent="1" vertex="1">
          <mxGeometry x="595" y="3445.63" width="40" height="40" as="geometry" />
        </mxCell>
        <mxCell id="SE4oea5at5pP_NoJNJHg-314" value="" style="verticalLabelPosition=bottom;verticalAlign=top;html=1;shape=mxgraph.basic.x;strokeColor=default;strokeWidth=2;align=center;fontFamily=Helvetica;fontSize=12;fontColor=default;fillColor=default;" parent="1" vertex="1">
          <mxGeometry x="681.25" y="3458.13" width="20" height="15" as="geometry" />
        </mxCell>
        <mxCell id="SE4oea5at5pP_NoJNJHg-315" style="edgeStyle=orthogonalEdgeStyle;shape=connector;rounded=0;orthogonalLoop=1;jettySize=auto;html=1;strokeColor=default;strokeWidth=2;align=center;verticalAlign=middle;fontFamily=Helvetica;fontSize=12;fontColor=default;labelBackgroundColor=default;endArrow=classic;" parent="1" source="SE4oea5at5pP_NoJNJHg-313" edge="1">
          <mxGeometry relative="1" as="geometry">
            <mxPoint x="680" y="3465" as="targetPoint" />
          </mxGeometry>
        </mxCell>
        <mxCell id="SE4oea5at5pP_NoJNJHg-316" style="edgeStyle=orthogonalEdgeStyle;rounded=0;orthogonalLoop=1;jettySize=auto;html=1;strokeColor=default;strokeWidth=2;align=center;verticalAlign=middle;fontFamily=Helvetica;fontSize=12;fontColor=default;labelBackgroundColor=default;endArrow=classic;" parent="1" source="SE4oea5at5pP_NoJNJHg-317" target="SE4oea5at5pP_NoJNJHg-319" edge="1">
          <mxGeometry relative="1" as="geometry" />
        </mxCell>
        <mxCell id="SE4oea5at5pP_NoJNJHg-317" value="8" style="ellipse;whiteSpace=wrap;html=1;aspect=fixed;strokeWidth=2;" parent="1" vertex="1">
          <mxGeometry x="432.5" y="3525.63" width="40" height="40" as="geometry" />
        </mxCell>
        <mxCell id="SE4oea5at5pP_NoJNJHg-318" style="edgeStyle=orthogonalEdgeStyle;rounded=0;orthogonalLoop=1;jettySize=auto;html=1;strokeColor=default;strokeWidth=2;align=center;verticalAlign=middle;fontFamily=Helvetica;fontSize=12;fontColor=default;labelBackgroundColor=default;endArrow=classic;" parent="1" source="SE4oea5at5pP_NoJNJHg-319" target="SE4oea5at5pP_NoJNJHg-320" edge="1">
          <mxGeometry relative="1" as="geometry">
            <mxPoint x="592.5" y="3545.6299999999997" as="targetPoint" />
          </mxGeometry>
        </mxCell>
        <mxCell id="SE4oea5at5pP_NoJNJHg-319" value="5" style="ellipse;whiteSpace=wrap;html=1;aspect=fixed;strokeWidth=2;strokeColor=default;align=center;verticalAlign=middle;fontFamily=Helvetica;fontSize=12;fontColor=default;fillColor=default;" parent="1" vertex="1">
          <mxGeometry x="512.5" y="3525.63" width="40" height="40" as="geometry" />
        </mxCell>
        <mxCell id="SE4oea5at5pP_NoJNJHg-320" value="6" style="ellipse;whiteSpace=wrap;html=1;aspect=fixed;strokeWidth=2;strokeColor=default;align=center;verticalAlign=middle;fontFamily=Helvetica;fontSize=12;fontColor=default;fillColor=default;" parent="1" vertex="1">
          <mxGeometry x="592.5" y="3525.63" width="40" height="40" as="geometry" />
        </mxCell>
        <mxCell id="SE4oea5at5pP_NoJNJHg-321" value="" style="verticalLabelPosition=bottom;verticalAlign=top;html=1;shape=mxgraph.basic.x;strokeColor=default;strokeWidth=2;align=center;fontFamily=Helvetica;fontSize=12;fontColor=default;fillColor=default;" parent="1" vertex="1">
          <mxGeometry x="678.75" y="3538.13" width="20" height="15" as="geometry" />
        </mxCell>
        <mxCell id="SE4oea5at5pP_NoJNJHg-322" style="edgeStyle=orthogonalEdgeStyle;shape=connector;rounded=0;orthogonalLoop=1;jettySize=auto;html=1;strokeColor=default;strokeWidth=2;align=center;verticalAlign=middle;fontFamily=Helvetica;fontSize=12;fontColor=default;labelBackgroundColor=default;endArrow=classic;" parent="1" source="SE4oea5at5pP_NoJNJHg-320" edge="1">
          <mxGeometry relative="1" as="geometry">
            <mxPoint x="677.5" y="3545" as="targetPoint" />
          </mxGeometry>
        </mxCell>
        <mxCell id="SE4oea5at5pP_NoJNJHg-323" style="edgeStyle=orthogonalEdgeStyle;rounded=0;orthogonalLoop=1;jettySize=auto;html=1;strokeColor=default;strokeWidth=2;align=center;verticalAlign=middle;fontFamily=Helvetica;fontSize=12;fontColor=default;labelBackgroundColor=default;endArrow=classic;" parent="1" source="SE4oea5at5pP_NoJNJHg-324" target="SE4oea5at5pP_NoJNJHg-325" edge="1">
          <mxGeometry relative="1" as="geometry">
            <mxPoint x="591.25" y="3625.6299999999997" as="targetPoint" />
          </mxGeometry>
        </mxCell>
        <mxCell id="SE4oea5at5pP_NoJNJHg-324" value="5" style="ellipse;whiteSpace=wrap;html=1;aspect=fixed;strokeWidth=2;strokeColor=default;align=center;verticalAlign=middle;fontFamily=Helvetica;fontSize=12;fontColor=default;fillColor=default;" parent="1" vertex="1">
          <mxGeometry x="511.25" y="3605.63" width="40" height="40" as="geometry" />
        </mxCell>
        <mxCell id="SE4oea5at5pP_NoJNJHg-325" value="6" style="ellipse;whiteSpace=wrap;html=1;aspect=fixed;strokeWidth=2;strokeColor=default;align=center;verticalAlign=middle;fontFamily=Helvetica;fontSize=12;fontColor=default;fillColor=default;" parent="1" vertex="1">
          <mxGeometry x="591.25" y="3605.63" width="40" height="40" as="geometry" />
        </mxCell>
        <mxCell id="SE4oea5at5pP_NoJNJHg-326" value="" style="verticalLabelPosition=bottom;verticalAlign=top;html=1;shape=mxgraph.basic.x;strokeColor=default;strokeWidth=2;align=center;fontFamily=Helvetica;fontSize=12;fontColor=default;fillColor=default;" parent="1" vertex="1">
          <mxGeometry x="677.5" y="3618.13" width="20" height="15" as="geometry" />
        </mxCell>
        <mxCell id="SE4oea5at5pP_NoJNJHg-327" style="edgeStyle=orthogonalEdgeStyle;shape=connector;rounded=0;orthogonalLoop=1;jettySize=auto;html=1;strokeColor=default;strokeWidth=2;align=center;verticalAlign=middle;fontFamily=Helvetica;fontSize=12;fontColor=default;labelBackgroundColor=default;endArrow=classic;" parent="1" source="SE4oea5at5pP_NoJNJHg-325" edge="1">
          <mxGeometry relative="1" as="geometry">
            <mxPoint x="676.25" y="3625" as="targetPoint" />
          </mxGeometry>
        </mxCell>
        <mxCell id="SE4oea5at5pP_NoJNJHg-328" value="&lt;pre&gt;&lt;span class=&quot;w&quot;&gt;&lt;/span&gt;&lt;span class=&quot;nf&quot;&gt;listIsSorted&lt;/span&gt;&lt;span class=&quot;p&quot;&gt;&lt;/span&gt;&lt;/pre&gt;" style="text;html=1;align=center;verticalAlign=middle;whiteSpace=wrap;rounded=0;" parent="1" vertex="1">
          <mxGeometry x="466.65999999999997" y="3691.33" width="70" height="30" as="geometry" />
        </mxCell>
        <mxCell id="SE4oea5at5pP_NoJNJHg-329" value="&lt;font style=&quot;font-size: 36px;&quot;&gt;(&lt;/font&gt;" style="text;html=1;align=center;verticalAlign=middle;whiteSpace=wrap;rounded=0;" parent="1" vertex="1">
          <mxGeometry x="529.16" y="3691.33" width="60" height="30" as="geometry" />
        </mxCell>
        <mxCell id="SE4oea5at5pP_NoJNJHg-330" value="&lt;font style=&quot;font-size: 36px;&quot;&gt;)&lt;/font&gt;" style="text;html=1;align=center;verticalAlign=middle;whiteSpace=wrap;rounded=0;" parent="1" vertex="1">
          <mxGeometry x="701.25" y="3691.33" width="60" height="30" as="geometry" />
        </mxCell>
        <mxCell id="SE4oea5at5pP_NoJNJHg-331" value="" style="shape=curlyBracket;whiteSpace=wrap;html=1;rounded=1;labelPosition=left;verticalLabelPosition=middle;align=right;verticalAlign=middle;rotation=-90;" parent="1" vertex="1">
          <mxGeometry x="588.67" y="3597.81" width="27.5" height="289.54" as="geometry" />
        </mxCell>
        <mxCell id="SE4oea5at5pP_NoJNJHg-334" value="6" style="ellipse;whiteSpace=wrap;html=1;aspect=fixed;strokeWidth=2;strokeColor=default;align=center;verticalAlign=middle;fontFamily=Helvetica;fontSize=12;fontColor=default;fillColor=default;" parent="1" vertex="1">
          <mxGeometry x="591.25" y="3686.33" width="40" height="40" as="geometry" />
        </mxCell>
        <mxCell id="SE4oea5at5pP_NoJNJHg-335" value="" style="verticalLabelPosition=bottom;verticalAlign=top;html=1;shape=mxgraph.basic.x;strokeColor=default;strokeWidth=2;align=center;fontFamily=Helvetica;fontSize=12;fontColor=default;fillColor=default;" parent="1" vertex="1">
          <mxGeometry x="677.5" y="3698.83" width="20" height="15" as="geometry" />
        </mxCell>
        <mxCell id="SE4oea5at5pP_NoJNJHg-336" style="edgeStyle=orthogonalEdgeStyle;shape=connector;rounded=0;orthogonalLoop=1;jettySize=auto;html=1;strokeColor=default;strokeWidth=2;align=center;verticalAlign=middle;fontFamily=Helvetica;fontSize=12;fontColor=default;labelBackgroundColor=default;endArrow=classic;" parent="1" source="SE4oea5at5pP_NoJNJHg-334" edge="1">
          <mxGeometry relative="1" as="geometry">
            <mxPoint x="676.25" y="3705.7" as="targetPoint" />
          </mxGeometry>
        </mxCell>
        <mxCell id="SE4oea5at5pP_NoJNJHg-337" value="&amp;amp;&amp;amp;" style="text;html=1;align=center;verticalAlign=middle;whiteSpace=wrap;rounded=0;" parent="1" vertex="1">
          <mxGeometry x="400.63" y="3691.33" width="70" height="30" as="geometry" />
        </mxCell>
        <mxCell id="SE4oea5at5pP_NoJNJHg-338" value="&lt;pre&gt;&lt;span style=&quot;color: rgb(0, 204, 0);&quot;&gt;true&lt;span class=&quot;p&quot;&gt;&lt;/span&gt;&lt;/span&gt;&lt;/pre&gt;" style="text;html=1;align=center;verticalAlign=middle;whiteSpace=wrap;rounded=0;" parent="1" vertex="1">
          <mxGeometry x="361.88" y="3691.33" width="70" height="30" as="geometry" />
        </mxCell>
        <mxCell id="SE4oea5at5pP_NoJNJHg-339" value="&lt;pre&gt;&lt;span style=&quot;color: rgb(0, 204, 0);&quot;&gt;true&lt;span class=&quot;p&quot;&gt;&lt;/span&gt;&lt;/span&gt;&lt;/pre&gt;" style="text;html=1;align=center;verticalAlign=middle;whiteSpace=wrap;rounded=0;" parent="1" vertex="1">
          <mxGeometry x="566.25" y="3764.42" width="70" height="30" as="geometry" />
        </mxCell>
        <mxCell id="SE4oea5at5pP_NoJNJHg-340" value="=" style="text;html=1;align=center;verticalAlign=middle;whiteSpace=wrap;rounded=0;" parent="1" vertex="1">
          <mxGeometry x="710" y="3813.8400000000006" width="70" height="30" as="geometry" />
        </mxCell>
        <mxCell id="SE4oea5at5pP_NoJNJHg-341" value="&lt;pre&gt;false&lt;/pre&gt;" style="text;html=1;align=center;verticalAlign=middle;whiteSpace=wrap;rounded=0;fillColor=#f8cecc;strokeColor=#b85450;" parent="1" vertex="1">
          <mxGeometry x="760" y="3813.8400000000006" width="70" height="30" as="geometry" />
        </mxCell>
        <mxCell id="SE4oea5at5pP_NoJNJHg-342" value="&lt;pre&gt;&lt;span style=&quot;color: rgb(204, 0, 0);&quot; class=&quot;nf&quot;&gt;false&lt;/span&gt;&lt;/pre&gt;" style="text;html=1;align=center;verticalAlign=middle;whiteSpace=wrap;rounded=0;" parent="1" vertex="1">
          <mxGeometry x="273.75" y="3813.84" width="70" height="30" as="geometry" />
        </mxCell>
        <mxCell id="SE4oea5at5pP_NoJNJHg-345" value="recurse..." style="text;html=1;align=center;verticalAlign=middle;whiteSpace=wrap;rounded=0;" parent="1" vertex="1">
          <mxGeometry x="775" y="3640.63" width="60" height="30" as="geometry" />
        </mxCell>
        <mxCell id="SE4oea5at5pP_NoJNJHg-346" style="edgeStyle=orthogonalEdgeStyle;rounded=0;orthogonalLoop=1;jettySize=auto;html=1;strokeWidth=2;" parent="1" source="SE4oea5at5pP_NoJNJHg-347" target="SE4oea5at5pP_NoJNJHg-349" edge="1">
          <mxGeometry relative="1" as="geometry" />
        </mxCell>
        <mxCell id="SE4oea5at5pP_NoJNJHg-347" value="1" style="ellipse;whiteSpace=wrap;html=1;aspect=fixed;strokeWidth=2;" parent="1" vertex="1">
          <mxGeometry x="269.06" y="4075.94" width="40" height="40" as="geometry" />
        </mxCell>
        <mxCell id="SE4oea5at5pP_NoJNJHg-348" style="edgeStyle=orthogonalEdgeStyle;rounded=0;orthogonalLoop=1;jettySize=auto;html=1;strokeColor=default;strokeWidth=2;align=center;verticalAlign=middle;fontFamily=Helvetica;fontSize=11;fontColor=default;labelBackgroundColor=default;endArrow=classic;" parent="1" source="SE4oea5at5pP_NoJNJHg-349" target="SE4oea5at5pP_NoJNJHg-351" edge="1">
          <mxGeometry relative="1" as="geometry" />
        </mxCell>
        <mxCell id="SE4oea5at5pP_NoJNJHg-349" value="2" style="ellipse;whiteSpace=wrap;html=1;aspect=fixed;strokeWidth=2;" parent="1" vertex="1">
          <mxGeometry x="349.06" y="4075.94" width="40" height="40" as="geometry" />
        </mxCell>
        <mxCell id="SE4oea5at5pP_NoJNJHg-350" style="edgeStyle=orthogonalEdgeStyle;rounded=0;orthogonalLoop=1;jettySize=auto;html=1;strokeColor=default;strokeWidth=2;align=center;verticalAlign=middle;fontFamily=Helvetica;fontSize=12;fontColor=default;labelBackgroundColor=default;endArrow=classic;" parent="1" source="SE4oea5at5pP_NoJNJHg-351" target="SE4oea5at5pP_NoJNJHg-353" edge="1">
          <mxGeometry relative="1" as="geometry" />
        </mxCell>
        <mxCell id="SE4oea5at5pP_NoJNJHg-351" value="3" style="ellipse;whiteSpace=wrap;html=1;aspect=fixed;strokeWidth=2;" parent="1" vertex="1">
          <mxGeometry x="429.06" y="4075.94" width="40" height="40" as="geometry" />
        </mxCell>
        <mxCell id="SE4oea5at5pP_NoJNJHg-352" style="edgeStyle=orthogonalEdgeStyle;rounded=0;orthogonalLoop=1;jettySize=auto;html=1;strokeColor=default;strokeWidth=2;align=center;verticalAlign=middle;fontFamily=Helvetica;fontSize=12;fontColor=default;labelBackgroundColor=default;endArrow=classic;" parent="1" source="SE4oea5at5pP_NoJNJHg-353" target="SE4oea5at5pP_NoJNJHg-354" edge="1">
          <mxGeometry relative="1" as="geometry">
            <mxPoint x="589.06" y="4095.94" as="targetPoint" />
          </mxGeometry>
        </mxCell>
        <mxCell id="SE4oea5at5pP_NoJNJHg-353" value="2" style="ellipse;whiteSpace=wrap;html=1;aspect=fixed;strokeWidth=2;strokeColor=default;align=center;verticalAlign=middle;fontFamily=Helvetica;fontSize=12;fontColor=default;fillColor=default;" parent="1" vertex="1">
          <mxGeometry x="509.06" y="4075.94" width="40" height="40" as="geometry" />
        </mxCell>
        <mxCell id="SE4oea5at5pP_NoJNJHg-354" value="" style="verticalLabelPosition=bottom;verticalAlign=top;html=1;shape=mxgraph.basic.x;strokeColor=default;strokeWidth=2;align=center;fontFamily=Helvetica;fontSize=12;fontColor=default;fillColor=default;" parent="1" vertex="1">
          <mxGeometry x="589.06" y="4088.44" width="20" height="15" as="geometry" />
        </mxCell>
        <mxCell id="SE4oea5at5pP_NoJNJHg-355" value="&lt;pre&gt;&lt;span class=&quot;o&quot;&gt;&lt;/span&gt;&lt;span class=&quot;n&quot;&gt;listDelete&lt;/span&gt;&lt;span class=&quot;p&quot;&gt;&lt;/span&gt;&lt;/pre&gt;" style="text;html=1;align=center;verticalAlign=middle;whiteSpace=wrap;rounded=0;" parent="1" vertex="1">
          <mxGeometry x="159.06" y="4080.94" width="70" height="30" as="geometry" />
        </mxCell>
        <mxCell id="SE4oea5at5pP_NoJNJHg-356" value="&lt;font style=&quot;font-size: 36px;&quot;&gt;(&lt;/font&gt;" style="text;html=1;align=center;verticalAlign=middle;whiteSpace=wrap;rounded=0;" parent="1" vertex="1">
          <mxGeometry x="214.06" y="4080.94" width="60" height="30" as="geometry" />
        </mxCell>
        <mxCell id="SE4oea5at5pP_NoJNJHg-357" value="&lt;font style=&quot;font-size: 36px;&quot;&gt;)&lt;/font&gt;" style="text;html=1;align=center;verticalAlign=middle;whiteSpace=wrap;rounded=0;" parent="1" vertex="1">
          <mxGeometry x="672.81" y="4080.94" width="60" height="30" as="geometry" />
        </mxCell>
        <mxCell id="SE4oea5at5pP_NoJNJHg-358" style="edgeStyle=orthogonalEdgeStyle;rounded=0;orthogonalLoop=1;jettySize=auto;html=1;strokeColor=default;strokeWidth=2;align=center;verticalAlign=middle;fontFamily=Helvetica;fontSize=11;fontColor=default;labelBackgroundColor=default;endArrow=classic;" parent="1" source="SE4oea5at5pP_NoJNJHg-359" target="SE4oea5at5pP_NoJNJHg-361" edge="1">
          <mxGeometry relative="1" as="geometry" />
        </mxCell>
        <mxCell id="SE4oea5at5pP_NoJNJHg-359" value="2" style="ellipse;whiteSpace=wrap;html=1;aspect=fixed;strokeWidth=2;" parent="1" vertex="1">
          <mxGeometry x="349.06" y="4155.94" width="40" height="40" as="geometry" />
        </mxCell>
        <mxCell id="SE4oea5at5pP_NoJNJHg-360" style="edgeStyle=orthogonalEdgeStyle;rounded=0;orthogonalLoop=1;jettySize=auto;html=1;strokeColor=default;strokeWidth=2;align=center;verticalAlign=middle;fontFamily=Helvetica;fontSize=12;fontColor=default;labelBackgroundColor=default;endArrow=classic;" parent="1" source="SE4oea5at5pP_NoJNJHg-361" target="SE4oea5at5pP_NoJNJHg-363" edge="1">
          <mxGeometry relative="1" as="geometry" />
        </mxCell>
        <mxCell id="SE4oea5at5pP_NoJNJHg-361" value="3" style="ellipse;whiteSpace=wrap;html=1;aspect=fixed;strokeWidth=2;" parent="1" vertex="1">
          <mxGeometry x="429.06" y="4155.94" width="40" height="40" as="geometry" />
        </mxCell>
        <mxCell id="SE4oea5at5pP_NoJNJHg-362" style="edgeStyle=orthogonalEdgeStyle;rounded=0;orthogonalLoop=1;jettySize=auto;html=1;strokeColor=default;strokeWidth=2;align=center;verticalAlign=middle;fontFamily=Helvetica;fontSize=12;fontColor=default;labelBackgroundColor=default;endArrow=classic;" parent="1" source="SE4oea5at5pP_NoJNJHg-363" target="SE4oea5at5pP_NoJNJHg-364" edge="1">
          <mxGeometry relative="1" as="geometry">
            <mxPoint x="589.06" y="4175.94" as="targetPoint" />
          </mxGeometry>
        </mxCell>
        <mxCell id="SE4oea5at5pP_NoJNJHg-363" value="2" style="ellipse;whiteSpace=wrap;html=1;aspect=fixed;strokeWidth=2;strokeColor=default;align=center;verticalAlign=middle;fontFamily=Helvetica;fontSize=12;fontColor=default;fillColor=default;" parent="1" vertex="1">
          <mxGeometry x="509.06" y="4155.94" width="40" height="40" as="geometry" />
        </mxCell>
        <mxCell id="SE4oea5at5pP_NoJNJHg-364" value="" style="verticalLabelPosition=bottom;verticalAlign=top;html=1;shape=mxgraph.basic.x;strokeColor=default;strokeWidth=2;align=center;fontFamily=Helvetica;fontSize=12;fontColor=default;fillColor=default;" parent="1" vertex="1">
          <mxGeometry x="589.06" y="4168.44" width="20" height="15" as="geometry" />
        </mxCell>
        <mxCell id="SE4oea5at5pP_NoJNJHg-365" value="&lt;pre&gt;&lt;span class=&quot;o&quot;&gt;&lt;/span&gt;&lt;span class=&quot;n&quot;&gt;listDelete&lt;/span&gt;&lt;span class=&quot;p&quot;&gt;&lt;/span&gt;&lt;/pre&gt;" style="text;html=1;align=center;verticalAlign=middle;whiteSpace=wrap;rounded=0;" parent="1" vertex="1">
          <mxGeometry x="242.81" y="4160.3099999999995" width="70" height="30.63" as="geometry" />
        </mxCell>
        <mxCell id="SE4oea5at5pP_NoJNJHg-366" value="&lt;font style=&quot;font-size: 36px;&quot;&gt;(&lt;/font&gt;" style="text;html=1;align=center;verticalAlign=middle;whiteSpace=wrap;rounded=0;" parent="1" vertex="1">
          <mxGeometry x="294.06" y="4160.94" width="60" height="30" as="geometry" />
        </mxCell>
        <mxCell id="SE4oea5at5pP_NoJNJHg-367" value="&lt;font style=&quot;font-size: 36px;&quot;&gt;)&lt;/font&gt;" style="text;html=1;align=center;verticalAlign=middle;whiteSpace=wrap;rounded=0;" parent="1" vertex="1">
          <mxGeometry x="672.81" y="4160.94" width="60" height="30" as="geometry" />
        </mxCell>
        <mxCell id="SE4oea5at5pP_NoJNJHg-370" style="edgeStyle=orthogonalEdgeStyle;rounded=0;orthogonalLoop=1;jettySize=auto;html=1;strokeColor=default;strokeWidth=2;align=center;verticalAlign=middle;fontFamily=Helvetica;fontSize=12;fontColor=default;labelBackgroundColor=default;endArrow=classic;" parent="1" source="SE4oea5at5pP_NoJNJHg-371" target="SE4oea5at5pP_NoJNJHg-373" edge="1">
          <mxGeometry relative="1" as="geometry" />
        </mxCell>
        <mxCell id="SE4oea5at5pP_NoJNJHg-371" value="3" style="ellipse;whiteSpace=wrap;html=1;aspect=fixed;strokeWidth=2;" parent="1" vertex="1">
          <mxGeometry x="429.06" y="4235.94" width="40" height="40" as="geometry" />
        </mxCell>
        <mxCell id="SE4oea5at5pP_NoJNJHg-372" style="edgeStyle=orthogonalEdgeStyle;rounded=0;orthogonalLoop=1;jettySize=auto;html=1;strokeColor=default;strokeWidth=2;align=center;verticalAlign=middle;fontFamily=Helvetica;fontSize=12;fontColor=default;labelBackgroundColor=default;endArrow=classic;" parent="1" source="SE4oea5at5pP_NoJNJHg-373" target="SE4oea5at5pP_NoJNJHg-374" edge="1">
          <mxGeometry relative="1" as="geometry">
            <mxPoint x="589.06" y="4255.94" as="targetPoint" />
          </mxGeometry>
        </mxCell>
        <mxCell id="SE4oea5at5pP_NoJNJHg-373" value="2" style="ellipse;whiteSpace=wrap;html=1;aspect=fixed;strokeWidth=2;strokeColor=default;align=center;verticalAlign=middle;fontFamily=Helvetica;fontSize=12;fontColor=default;fillColor=default;" parent="1" vertex="1">
          <mxGeometry x="509.06" y="4235.94" width="40" height="40" as="geometry" />
        </mxCell>
        <mxCell id="SE4oea5at5pP_NoJNJHg-374" value="" style="verticalLabelPosition=bottom;verticalAlign=top;html=1;shape=mxgraph.basic.x;strokeColor=default;strokeWidth=2;align=center;fontFamily=Helvetica;fontSize=12;fontColor=default;fillColor=default;" parent="1" vertex="1">
          <mxGeometry x="589.06" y="4248.44" width="20" height="15" as="geometry" />
        </mxCell>
        <mxCell id="SE4oea5at5pP_NoJNJHg-379" value="" style="shape=curlyBracket;whiteSpace=wrap;html=1;rounded=1;labelPosition=left;verticalLabelPosition=middle;align=right;verticalAlign=middle;rotation=-90;" parent="1" vertex="1">
          <mxGeometry x="464.91" y="3982.11" width="22.5" height="470.16" as="geometry" />
        </mxCell>
        <mxCell id="SE4oea5at5pP_NoJNJHg-380" value="" style="shape=curlyBracket;whiteSpace=wrap;html=1;rounded=1;labelPosition=left;verticalLabelPosition=middle;align=right;verticalAlign=middle;rotation=-90;" parent="1" vertex="1">
          <mxGeometry x="420.63" y="3860" width="23.75" height="558.13" as="geometry" />
        </mxCell>
        <mxCell id="SE4oea5at5pP_NoJNJHg-399" value="&lt;div align=&quot;left&quot;&gt;&lt;font style=&quot;font-size: 36px;&quot;&gt;List Delete&lt;/font&gt;&lt;/div&gt;" style="text;html=1;align=left;verticalAlign=middle;whiteSpace=wrap;rounded=0;" parent="1" vertex="1">
          <mxGeometry x="97.5" y="3975.63" width="240" height="30" as="geometry" />
        </mxCell>
        <mxCell id="SE4oea5at5pP_NoJNJHg-400" value="recurse..." style="text;html=1;align=center;verticalAlign=middle;whiteSpace=wrap;rounded=0;" parent="1" vertex="1">
          <mxGeometry x="721.56" y="4117.5" width="60" height="30" as="geometry" />
        </mxCell>
        <mxCell id="SE4oea5at5pP_NoJNJHg-403" value="base" style="text;html=1;align=center;verticalAlign=middle;whiteSpace=wrap;rounded=0;" parent="1" vertex="1">
          <mxGeometry x="710" y="4198.44" width="60" height="30" as="geometry" />
        </mxCell>
        <mxCell id="SE4oea5at5pP_NoJNJHg-409" value="&lt;font style=&quot;font-size: 36px;&quot;&gt;,&lt;/font&gt;" style="text;html=1;align=center;verticalAlign=middle;whiteSpace=wrap;rounded=0;" parent="1" vertex="1">
          <mxGeometry x="605.31" y="4088.44" width="60" height="30" as="geometry" />
        </mxCell>
        <mxCell id="SE4oea5at5pP_NoJNJHg-413" value="&lt;pre&gt;&lt;font style=&quot;font-size: 18px;&quot;&gt;&lt;span class=&quot;n&quot;&gt;2&lt;/span&gt;&lt;/font&gt;&lt;/pre&gt;" style="text;html=1;align=center;verticalAlign=middle;whiteSpace=wrap;rounded=0;" parent="1" vertex="1">
          <mxGeometry x="631.56" y="4080.94" width="70" height="30" as="geometry" />
        </mxCell>
        <mxCell id="SE4oea5at5pP_NoJNJHg-414" value="&lt;font style=&quot;font-size: 36px;&quot;&gt;,&lt;/font&gt;" style="text;html=1;align=center;verticalAlign=middle;whiteSpace=wrap;rounded=0;" parent="1" vertex="1">
          <mxGeometry x="606.56" y="4168.44" width="60" height="30" as="geometry" />
        </mxCell>
        <mxCell id="SE4oea5at5pP_NoJNJHg-415" value="&lt;pre&gt;&lt;font style=&quot;font-size: 18px;&quot;&gt;&lt;span class=&quot;n&quot;&gt;2&lt;/span&gt;&lt;/font&gt;&lt;/pre&gt;" style="text;html=1;align=center;verticalAlign=middle;whiteSpace=wrap;rounded=0;" parent="1" vertex="1">
          <mxGeometry x="632.81" y="4160.94" width="70" height="30" as="geometry" />
        </mxCell>
        <mxCell id="SE4oea5at5pP_NoJNJHg-421" style="edgeStyle=orthogonalEdgeStyle;rounded=0;orthogonalLoop=1;jettySize=auto;html=1;strokeWidth=2;" parent="1" source="SE4oea5at5pP_NoJNJHg-422" edge="1">
          <mxGeometry relative="1" as="geometry">
            <mxPoint x="221.56" y="4176.3099999999995" as="targetPoint" />
          </mxGeometry>
        </mxCell>
        <mxCell id="SE4oea5at5pP_NoJNJHg-422" value="1" style="ellipse;whiteSpace=wrap;html=1;aspect=fixed;strokeWidth=2;" parent="1" vertex="1">
          <mxGeometry x="151.06" y="4155.94" width="40" height="40" as="geometry" />
        </mxCell>
        <mxCell id="SE4oea5at5pP_NoJNJHg-423" style="edgeStyle=orthogonalEdgeStyle;rounded=0;orthogonalLoop=1;jettySize=auto;html=1;strokeWidth=2;" parent="1" source="SE4oea5at5pP_NoJNJHg-424" edge="1">
          <mxGeometry relative="1" as="geometry">
            <mxPoint x="221.56" y="4256.3099999999995" as="targetPoint" />
          </mxGeometry>
        </mxCell>
        <mxCell id="SE4oea5at5pP_NoJNJHg-424" value="1" style="ellipse;whiteSpace=wrap;html=1;aspect=fixed;strokeWidth=2;" parent="1" vertex="1">
          <mxGeometry x="151.06" y="4235.94" width="40" height="40" as="geometry" />
        </mxCell>
        <mxCell id="SE4oea5at5pP_NoJNJHg-450" style="edgeStyle=orthogonalEdgeStyle;rounded=0;orthogonalLoop=1;jettySize=auto;html=1;strokeWidth=2;" parent="1" source="SE4oea5at5pP_NoJNJHg-451" target="SE4oea5at5pP_NoJNJHg-572" edge="1">
          <mxGeometry relative="1" as="geometry">
            <mxPoint x="322.75" y="4359.999999999999" as="targetPoint" />
          </mxGeometry>
        </mxCell>
        <mxCell id="SE4oea5at5pP_NoJNJHg-451" value="1" style="ellipse;whiteSpace=wrap;html=1;aspect=fixed;strokeWidth=2;" parent="1" vertex="1">
          <mxGeometry x="150.5" y="4339.999999999999" width="40" height="40" as="geometry" />
        </mxCell>
        <mxCell id="SE4oea5at5pP_NoJNJHg-455" style="edgeStyle=orthogonalEdgeStyle;rounded=0;orthogonalLoop=1;jettySize=auto;html=1;strokeWidth=2;" parent="1" source="SE4oea5at5pP_NoJNJHg-456" target="SE4oea5at5pP_NoJNJHg-458" edge="1">
          <mxGeometry relative="1" as="geometry" />
        </mxCell>
        <mxCell id="SE4oea5at5pP_NoJNJHg-456" value="1" style="ellipse;whiteSpace=wrap;html=1;aspect=fixed;strokeWidth=2;" parent="1" vertex="1">
          <mxGeometry x="430" y="2030" width="40" height="40" as="geometry" />
        </mxCell>
        <mxCell id="SE4oea5at5pP_NoJNJHg-457" style="edgeStyle=orthogonalEdgeStyle;rounded=0;orthogonalLoop=1;jettySize=auto;html=1;strokeColor=default;strokeWidth=2;align=center;verticalAlign=middle;fontFamily=Helvetica;fontSize=11;fontColor=default;labelBackgroundColor=default;endArrow=classic;" parent="1" source="SE4oea5at5pP_NoJNJHg-458" target="SE4oea5at5pP_NoJNJHg-460" edge="1">
          <mxGeometry relative="1" as="geometry" />
        </mxCell>
        <mxCell id="SE4oea5at5pP_NoJNJHg-458" value="2" style="ellipse;whiteSpace=wrap;html=1;aspect=fixed;strokeWidth=2;" parent="1" vertex="1">
          <mxGeometry x="510" y="2030" width="40" height="40" as="geometry" />
        </mxCell>
        <mxCell id="SE4oea5at5pP_NoJNJHg-459" style="edgeStyle=orthogonalEdgeStyle;rounded=0;orthogonalLoop=1;jettySize=auto;html=1;strokeColor=default;strokeWidth=2;align=center;verticalAlign=middle;fontFamily=Helvetica;fontSize=12;fontColor=default;labelBackgroundColor=default;endArrow=classic;" parent="1" source="SE4oea5at5pP_NoJNJHg-460" target="SE4oea5at5pP_NoJNJHg-462" edge="1">
          <mxGeometry relative="1" as="geometry" />
        </mxCell>
        <mxCell id="SE4oea5at5pP_NoJNJHg-460" value="3" style="ellipse;whiteSpace=wrap;html=1;aspect=fixed;strokeWidth=2;" parent="1" vertex="1">
          <mxGeometry x="590" y="2030" width="40" height="40" as="geometry" />
        </mxCell>
        <mxCell id="SE4oea5at5pP_NoJNJHg-461" style="edgeStyle=orthogonalEdgeStyle;rounded=0;orthogonalLoop=1;jettySize=auto;html=1;strokeColor=default;strokeWidth=2;align=center;verticalAlign=middle;fontFamily=Helvetica;fontSize=12;fontColor=default;labelBackgroundColor=default;endArrow=classic;" parent="1" source="SE4oea5at5pP_NoJNJHg-462" target="SE4oea5at5pP_NoJNJHg-463" edge="1">
          <mxGeometry relative="1" as="geometry">
            <mxPoint x="750" y="2050" as="targetPoint" />
          </mxGeometry>
        </mxCell>
        <mxCell id="SE4oea5at5pP_NoJNJHg-462" value="4" style="ellipse;whiteSpace=wrap;html=1;aspect=fixed;strokeWidth=2;strokeColor=default;align=center;verticalAlign=middle;fontFamily=Helvetica;fontSize=12;fontColor=default;fillColor=default;" parent="1" vertex="1">
          <mxGeometry x="670" y="2030" width="40" height="40" as="geometry" />
        </mxCell>
        <mxCell id="SE4oea5at5pP_NoJNJHg-463" value="" style="verticalLabelPosition=bottom;verticalAlign=top;html=1;shape=mxgraph.basic.x;strokeColor=default;strokeWidth=2;align=center;fontFamily=Helvetica;fontSize=12;fontColor=default;fillColor=default;" parent="1" vertex="1">
          <mxGeometry x="750" y="2042.5" width="20" height="15" as="geometry" />
        </mxCell>
        <mxCell id="SE4oea5at5pP_NoJNJHg-464" value="&lt;pre&gt;&lt;font style=&quot;font-size: 12px;&quot;&gt;&lt;span class=&quot;w&quot;&gt;&lt;/span&gt;&lt;span class=&quot;nf&quot;&gt;listLength&lt;/span&gt;&lt;/font&gt;&lt;/pre&gt;" style="text;html=1;align=center;verticalAlign=middle;whiteSpace=wrap;rounded=0;" parent="1" vertex="1">
          <mxGeometry x="325" y="2035" width="70" height="30" as="geometry" />
        </mxCell>
        <mxCell id="SE4oea5at5pP_NoJNJHg-465" value="&lt;font style=&quot;font-size: 36px;&quot;&gt;(&lt;/font&gt;" style="text;html=1;align=center;verticalAlign=middle;whiteSpace=wrap;rounded=0;" parent="1" vertex="1">
          <mxGeometry x="375" y="2035" width="60" height="30" as="geometry" />
        </mxCell>
        <mxCell id="SE4oea5at5pP_NoJNJHg-466" value="&lt;font style=&quot;font-size: 36px;&quot;&gt;)&lt;/font&gt;" style="text;html=1;align=center;verticalAlign=middle;whiteSpace=wrap;rounded=0;" parent="1" vertex="1">
          <mxGeometry x="770" y="2035" width="60" height="30" as="geometry" />
        </mxCell>
        <mxCell id="SE4oea5at5pP_NoJNJHg-467" style="edgeStyle=orthogonalEdgeStyle;rounded=0;orthogonalLoop=1;jettySize=auto;html=1;strokeWidth=2;" parent="1" source="SE4oea5at5pP_NoJNJHg-468" target="SE4oea5at5pP_NoJNJHg-470" edge="1">
          <mxGeometry relative="1" as="geometry" />
        </mxCell>
        <mxCell id="SE4oea5at5pP_NoJNJHg-468" value="1" style="ellipse;whiteSpace=wrap;html=1;aspect=fixed;strokeWidth=2;" parent="1" vertex="1">
          <mxGeometry x="430" y="1935.94" width="40" height="40" as="geometry" />
        </mxCell>
        <mxCell id="SE4oea5at5pP_NoJNJHg-469" style="edgeStyle=orthogonalEdgeStyle;rounded=0;orthogonalLoop=1;jettySize=auto;html=1;strokeColor=default;strokeWidth=2;align=center;verticalAlign=middle;fontFamily=Helvetica;fontSize=11;fontColor=default;labelBackgroundColor=default;endArrow=classic;" parent="1" source="SE4oea5at5pP_NoJNJHg-470" target="SE4oea5at5pP_NoJNJHg-472" edge="1">
          <mxGeometry relative="1" as="geometry" />
        </mxCell>
        <mxCell id="SE4oea5at5pP_NoJNJHg-470" value="2" style="ellipse;whiteSpace=wrap;html=1;aspect=fixed;strokeWidth=2;" parent="1" vertex="1">
          <mxGeometry x="510" y="1935.94" width="40" height="40" as="geometry" />
        </mxCell>
        <mxCell id="SE4oea5at5pP_NoJNJHg-471" style="edgeStyle=orthogonalEdgeStyle;rounded=0;orthogonalLoop=1;jettySize=auto;html=1;strokeColor=default;strokeWidth=2;align=center;verticalAlign=middle;fontFamily=Helvetica;fontSize=12;fontColor=default;labelBackgroundColor=default;endArrow=classic;" parent="1" source="SE4oea5at5pP_NoJNJHg-472" target="SE4oea5at5pP_NoJNJHg-474" edge="1">
          <mxGeometry relative="1" as="geometry" />
        </mxCell>
        <mxCell id="SE4oea5at5pP_NoJNJHg-472" value="3" style="ellipse;whiteSpace=wrap;html=1;aspect=fixed;strokeWidth=2;" parent="1" vertex="1">
          <mxGeometry x="590" y="1935.94" width="40" height="40" as="geometry" />
        </mxCell>
        <mxCell id="SE4oea5at5pP_NoJNJHg-473" style="edgeStyle=orthogonalEdgeStyle;rounded=0;orthogonalLoop=1;jettySize=auto;html=1;strokeColor=default;strokeWidth=2;align=center;verticalAlign=middle;fontFamily=Helvetica;fontSize=12;fontColor=default;labelBackgroundColor=default;endArrow=classic;" parent="1" source="SE4oea5at5pP_NoJNJHg-474" target="SE4oea5at5pP_NoJNJHg-475" edge="1">
          <mxGeometry relative="1" as="geometry">
            <mxPoint x="750" y="1955.94" as="targetPoint" />
          </mxGeometry>
        </mxCell>
        <mxCell id="SE4oea5at5pP_NoJNJHg-474" value="4" style="ellipse;whiteSpace=wrap;html=1;aspect=fixed;strokeWidth=2;strokeColor=default;align=center;verticalAlign=middle;fontFamily=Helvetica;fontSize=12;fontColor=default;fillColor=default;" parent="1" vertex="1">
          <mxGeometry x="670" y="1935.94" width="40" height="40" as="geometry" />
        </mxCell>
        <mxCell id="SE4oea5at5pP_NoJNJHg-475" value="" style="verticalLabelPosition=bottom;verticalAlign=top;html=1;shape=mxgraph.basic.x;strokeColor=default;strokeWidth=2;align=center;fontFamily=Helvetica;fontSize=12;fontColor=default;fillColor=default;" parent="1" vertex="1">
          <mxGeometry x="750" y="1948.44" width="20" height="15" as="geometry" />
        </mxCell>
        <mxCell id="SE4oea5at5pP_NoJNJHg-476" value="&lt;pre&gt;&lt;font style=&quot;font-size: 12px;&quot;&gt;&lt;span class=&quot;w&quot;&gt;&lt;/span&gt;&lt;span class=&quot;nf&quot;&gt;listLengthContainer&lt;/span&gt;&lt;/font&gt;&lt;/pre&gt;" style="text;html=1;align=center;verticalAlign=middle;whiteSpace=wrap;rounded=0;" parent="1" vertex="1">
          <mxGeometry x="175.00000000000003" y="1942.5" width="70" height="30" as="geometry" />
        </mxCell>
        <mxCell id="SE4oea5at5pP_NoJNJHg-477" value="&lt;font style=&quot;font-size: 36px;&quot;&gt;(&lt;/font&gt;" style="text;html=1;align=center;verticalAlign=middle;whiteSpace=wrap;rounded=0;" parent="1" vertex="1">
          <mxGeometry x="265" y="1942.5" width="60" height="30" as="geometry" />
        </mxCell>
        <mxCell id="SE4oea5at5pP_NoJNJHg-478" value="&lt;font style=&quot;font-size: 36px;&quot;&gt;)&lt;/font&gt;" style="text;html=1;align=center;verticalAlign=middle;whiteSpace=wrap;rounded=0;" parent="1" vertex="1">
          <mxGeometry x="770" y="1940.94" width="60" height="30" as="geometry" />
        </mxCell>
        <mxCell id="SE4oea5at5pP_NoJNJHg-479" value="" style="rounded=1;whiteSpace=wrap;html=1;fontFamily=Helvetica;fontSize=12;fontColor=default;labelBackgroundColor=default;strokeWidth=2;align=center;" parent="1" vertex="1">
          <mxGeometry x="320" y="1912.5" width="90" height="70" as="geometry" />
        </mxCell>
        <mxCell id="SE4oea5at5pP_NoJNJHg-480" value="head&amp;nbsp;&amp;nbsp;&amp;nbsp; " style="rounded=1;whiteSpace=wrap;html=1;fontFamily=Helvetica;fontSize=12;fontColor=default;labelBackgroundColor=default;strokeWidth=2;align=center;" parent="1" vertex="1">
          <mxGeometry x="330" y="1942.5" width="65" height="25" as="geometry" />
        </mxCell>
        <mxCell id="SE4oea5at5pP_NoJNJHg-483" style="edgeStyle=orthogonalEdgeStyle;shape=connector;rounded=0;orthogonalLoop=1;jettySize=auto;html=1;strokeColor=default;strokeWidth=2;align=center;verticalAlign=middle;fontFamily=Helvetica;fontSize=12;fontColor=default;labelBackgroundColor=default;endArrow=classic;" parent="1" source="SE4oea5at5pP_NoJNJHg-481" target="SE4oea5at5pP_NoJNJHg-468" edge="1">
          <mxGeometry relative="1" as="geometry" />
        </mxCell>
        <mxCell id="SE4oea5at5pP_NoJNJHg-481" value="" style="ellipse;whiteSpace=wrap;html=1;aspect=fixed;fontFamily=Helvetica;fontSize=12;fontColor=default;labelBackgroundColor=default;strokeColor=none;fillColor=#B3B3B3;" parent="1" vertex="1">
          <mxGeometry x="375" y="1950.94" width="10" height="10" as="geometry" />
        </mxCell>
        <mxCell id="SE4oea5at5pP_NoJNJHg-484" value="&lt;pre&gt;&lt;font style=&quot;font-size: 9px;&quot;&gt;&lt;span class=&quot;w&quot;&gt;&lt;/span&gt;&lt;span class=&quot;nf&quot;&gt;struct list&lt;/span&gt;&lt;/font&gt;&lt;/pre&gt;" style="text;html=1;align=center;verticalAlign=middle;whiteSpace=wrap;rounded=0;" parent="1" vertex="1">
          <mxGeometry x="320" y="1910" width="70" height="30" as="geometry" />
        </mxCell>
        <mxCell id="SE4oea5at5pP_NoJNJHg-485" value="&lt;div align=&quot;left&quot;&gt;&lt;font style=&quot;font-size: 18px;&quot;&gt;With container wrapper&lt;/font&gt;&lt;/div&gt;" style="text;html=1;align=left;verticalAlign=middle;whiteSpace=wrap;rounded=0;" parent="1" vertex="1">
          <mxGeometry x="100" y="1850" width="240" height="30" as="geometry" />
        </mxCell>
        <mxCell id="SE4oea5at5pP_NoJNJHg-487" value="&lt;font style=&quot;font-size: 24px;&quot;&gt;=&lt;/font&gt;" style="text;html=1;align=center;verticalAlign=middle;whiteSpace=wrap;rounded=0;fontSize=16;" parent="1" vertex="1">
          <mxGeometry x="246.88" y="2035" width="70" height="30" as="geometry" />
        </mxCell>
        <mxCell id="SE4oea5at5pP_NoJNJHg-488" value="&lt;font style=&quot;font-size: 24px;&quot;&gt;=&amp;nbsp;&amp;nbsp;&amp;nbsp; 4&lt;/font&gt;" style="text;html=1;align=center;verticalAlign=middle;whiteSpace=wrap;rounded=0;fontSize=16;" parent="1" vertex="1">
          <mxGeometry x="832.5" y="2035" width="70" height="30" as="geometry" />
        </mxCell>
        <mxCell id="SE4oea5at5pP_NoJNJHg-489" style="edgeStyle=orthogonalEdgeStyle;rounded=0;orthogonalLoop=1;jettySize=auto;html=1;strokeWidth=2;" parent="1" source="SE4oea5at5pP_NoJNJHg-490" target="SE4oea5at5pP_NoJNJHg-492" edge="1">
          <mxGeometry relative="1" as="geometry" />
        </mxCell>
        <mxCell id="SE4oea5at5pP_NoJNJHg-490" value="1" style="ellipse;whiteSpace=wrap;html=1;aspect=fixed;strokeWidth=2;" parent="1" vertex="1">
          <mxGeometry x="268.5" y="4515.9400000000005" width="40" height="40" as="geometry" />
        </mxCell>
        <mxCell id="SE4oea5at5pP_NoJNJHg-491" style="edgeStyle=orthogonalEdgeStyle;rounded=0;orthogonalLoop=1;jettySize=auto;html=1;strokeColor=default;strokeWidth=2;align=center;verticalAlign=middle;fontFamily=Helvetica;fontSize=11;fontColor=default;labelBackgroundColor=default;endArrow=classic;" parent="1" source="SE4oea5at5pP_NoJNJHg-492" target="SE4oea5at5pP_NoJNJHg-494" edge="1">
          <mxGeometry relative="1" as="geometry" />
        </mxCell>
        <mxCell id="SE4oea5at5pP_NoJNJHg-492" value="2" style="ellipse;whiteSpace=wrap;html=1;aspect=fixed;strokeWidth=2;" parent="1" vertex="1">
          <mxGeometry x="348.5" y="4515.9400000000005" width="40" height="40" as="geometry" />
        </mxCell>
        <mxCell id="SE4oea5at5pP_NoJNJHg-493" style="edgeStyle=orthogonalEdgeStyle;rounded=0;orthogonalLoop=1;jettySize=auto;html=1;strokeColor=default;strokeWidth=2;align=center;verticalAlign=middle;fontFamily=Helvetica;fontSize=12;fontColor=default;labelBackgroundColor=default;endArrow=classic;" parent="1" source="SE4oea5at5pP_NoJNJHg-494" target="SE4oea5at5pP_NoJNJHg-496" edge="1">
          <mxGeometry relative="1" as="geometry" />
        </mxCell>
        <mxCell id="SE4oea5at5pP_NoJNJHg-494" value="3" style="ellipse;whiteSpace=wrap;html=1;aspect=fixed;strokeWidth=2;" parent="1" vertex="1">
          <mxGeometry x="428.5" y="4515.9400000000005" width="40" height="40" as="geometry" />
        </mxCell>
        <mxCell id="SE4oea5at5pP_NoJNJHg-495" style="edgeStyle=orthogonalEdgeStyle;rounded=0;orthogonalLoop=1;jettySize=auto;html=1;strokeColor=default;strokeWidth=2;align=center;verticalAlign=middle;fontFamily=Helvetica;fontSize=12;fontColor=default;labelBackgroundColor=default;endArrow=classic;" parent="1" source="SE4oea5at5pP_NoJNJHg-496" target="SE4oea5at5pP_NoJNJHg-497" edge="1">
          <mxGeometry relative="1" as="geometry">
            <mxPoint x="588.5" y="4535.9400000000005" as="targetPoint" />
          </mxGeometry>
        </mxCell>
        <mxCell id="SE4oea5at5pP_NoJNJHg-496" value="2" style="ellipse;whiteSpace=wrap;html=1;aspect=fixed;strokeWidth=2;strokeColor=default;align=center;verticalAlign=middle;fontFamily=Helvetica;fontSize=12;fontColor=default;fillColor=default;" parent="1" vertex="1">
          <mxGeometry x="508.5" y="4515.9400000000005" width="40" height="40" as="geometry" />
        </mxCell>
        <mxCell id="SE4oea5at5pP_NoJNJHg-497" value="" style="verticalLabelPosition=bottom;verticalAlign=top;html=1;shape=mxgraph.basic.x;strokeColor=default;strokeWidth=2;align=center;fontFamily=Helvetica;fontSize=12;fontColor=default;fillColor=default;" parent="1" vertex="1">
          <mxGeometry x="588.5" y="4528.4400000000005" width="20" height="15" as="geometry" />
        </mxCell>
        <mxCell id="SE4oea5at5pP_NoJNJHg-498" value="&lt;pre&gt;&lt;span class=&quot;o&quot;&gt;&lt;/span&gt;&lt;span class=&quot;n&quot;&gt;listDelete&lt;/span&gt;&lt;span class=&quot;p&quot;&gt;&lt;/span&gt;&lt;/pre&gt;" style="text;html=1;align=center;verticalAlign=middle;whiteSpace=wrap;rounded=0;" parent="1" vertex="1">
          <mxGeometry x="158.5" y="4520.9400000000005" width="70" height="30" as="geometry" />
        </mxCell>
        <mxCell id="SE4oea5at5pP_NoJNJHg-499" value="&lt;font style=&quot;font-size: 36px;&quot;&gt;(&lt;/font&gt;" style="text;html=1;align=center;verticalAlign=middle;whiteSpace=wrap;rounded=0;" parent="1" vertex="1">
          <mxGeometry x="213.5" y="4520.9400000000005" width="60" height="30" as="geometry" />
        </mxCell>
        <mxCell id="SE4oea5at5pP_NoJNJHg-500" value="&lt;font style=&quot;font-size: 36px;&quot;&gt;)&lt;/font&gt;" style="text;html=1;align=center;verticalAlign=middle;whiteSpace=wrap;rounded=0;" parent="1" vertex="1">
          <mxGeometry x="672.25" y="4520.9400000000005" width="60" height="30" as="geometry" />
        </mxCell>
        <mxCell id="SE4oea5at5pP_NoJNJHg-501" style="edgeStyle=orthogonalEdgeStyle;rounded=0;orthogonalLoop=1;jettySize=auto;html=1;strokeColor=default;strokeWidth=2;align=center;verticalAlign=middle;fontFamily=Helvetica;fontSize=11;fontColor=default;labelBackgroundColor=default;endArrow=classic;" parent="1" source="SE4oea5at5pP_NoJNJHg-502" target="SE4oea5at5pP_NoJNJHg-504" edge="1">
          <mxGeometry relative="1" as="geometry" />
        </mxCell>
        <mxCell id="SE4oea5at5pP_NoJNJHg-502" value="2" style="ellipse;whiteSpace=wrap;html=1;aspect=fixed;strokeWidth=2;" parent="1" vertex="1">
          <mxGeometry x="348.5" y="4595.9400000000005" width="40" height="40" as="geometry" />
        </mxCell>
        <mxCell id="SE4oea5at5pP_NoJNJHg-503" style="edgeStyle=orthogonalEdgeStyle;rounded=0;orthogonalLoop=1;jettySize=auto;html=1;strokeColor=default;strokeWidth=2;align=center;verticalAlign=middle;fontFamily=Helvetica;fontSize=12;fontColor=default;labelBackgroundColor=default;endArrow=classic;" parent="1" source="SE4oea5at5pP_NoJNJHg-504" target="SE4oea5at5pP_NoJNJHg-506" edge="1">
          <mxGeometry relative="1" as="geometry" />
        </mxCell>
        <mxCell id="SE4oea5at5pP_NoJNJHg-504" value="3" style="ellipse;whiteSpace=wrap;html=1;aspect=fixed;strokeWidth=2;" parent="1" vertex="1">
          <mxGeometry x="428.5" y="4595.9400000000005" width="40" height="40" as="geometry" />
        </mxCell>
        <mxCell id="SE4oea5at5pP_NoJNJHg-505" style="edgeStyle=orthogonalEdgeStyle;rounded=0;orthogonalLoop=1;jettySize=auto;html=1;strokeColor=default;strokeWidth=2;align=center;verticalAlign=middle;fontFamily=Helvetica;fontSize=12;fontColor=default;labelBackgroundColor=default;endArrow=classic;" parent="1" source="SE4oea5at5pP_NoJNJHg-506" target="SE4oea5at5pP_NoJNJHg-507" edge="1">
          <mxGeometry relative="1" as="geometry">
            <mxPoint x="588.5" y="4615.9400000000005" as="targetPoint" />
          </mxGeometry>
        </mxCell>
        <mxCell id="SE4oea5at5pP_NoJNJHg-506" value="2" style="ellipse;whiteSpace=wrap;html=1;aspect=fixed;strokeWidth=2;strokeColor=default;align=center;verticalAlign=middle;fontFamily=Helvetica;fontSize=12;fontColor=default;fillColor=default;" parent="1" vertex="1">
          <mxGeometry x="508.5" y="4595.9400000000005" width="40" height="40" as="geometry" />
        </mxCell>
        <mxCell id="SE4oea5at5pP_NoJNJHg-507" value="" style="verticalLabelPosition=bottom;verticalAlign=top;html=1;shape=mxgraph.basic.x;strokeColor=default;strokeWidth=2;align=center;fontFamily=Helvetica;fontSize=12;fontColor=default;fillColor=default;" parent="1" vertex="1">
          <mxGeometry x="588.5" y="4608.4400000000005" width="20" height="15" as="geometry" />
        </mxCell>
        <mxCell id="SE4oea5at5pP_NoJNJHg-508" value="&lt;pre&gt;&lt;span class=&quot;o&quot;&gt;&lt;/span&gt;&lt;span class=&quot;n&quot;&gt;listDelete&lt;/span&gt;&lt;span class=&quot;p&quot;&gt;&lt;/span&gt;&lt;/pre&gt;" style="text;html=1;align=center;verticalAlign=middle;whiteSpace=wrap;rounded=0;" parent="1" vertex="1">
          <mxGeometry x="242.25" y="4600.3099999999995" width="70" height="30.63" as="geometry" />
        </mxCell>
        <mxCell id="SE4oea5at5pP_NoJNJHg-509" value="&lt;font style=&quot;font-size: 36px;&quot;&gt;(&lt;/font&gt;" style="text;html=1;align=center;verticalAlign=middle;whiteSpace=wrap;rounded=0;" parent="1" vertex="1">
          <mxGeometry x="293.5" y="4600.9400000000005" width="60" height="30" as="geometry" />
        </mxCell>
        <mxCell id="SE4oea5at5pP_NoJNJHg-510" value="&lt;font style=&quot;font-size: 36px;&quot;&gt;)&lt;/font&gt;" style="text;html=1;align=center;verticalAlign=middle;whiteSpace=wrap;rounded=0;" parent="1" vertex="1">
          <mxGeometry x="672.25" y="4600.9400000000005" width="60" height="30" as="geometry" />
        </mxCell>
        <mxCell id="SE4oea5at5pP_NoJNJHg-511" style="edgeStyle=orthogonalEdgeStyle;rounded=0;orthogonalLoop=1;jettySize=auto;html=1;strokeColor=default;strokeWidth=2;align=center;verticalAlign=middle;fontFamily=Helvetica;fontSize=12;fontColor=default;labelBackgroundColor=default;endArrow=classic;" parent="1" source="SE4oea5at5pP_NoJNJHg-512" target="SE4oea5at5pP_NoJNJHg-514" edge="1">
          <mxGeometry relative="1" as="geometry" />
        </mxCell>
        <mxCell id="SE4oea5at5pP_NoJNJHg-512" value="3" style="ellipse;whiteSpace=wrap;html=1;aspect=fixed;strokeWidth=2;" parent="1" vertex="1">
          <mxGeometry x="428.5" y="4675.9400000000005" width="40" height="40" as="geometry" />
        </mxCell>
        <mxCell id="SE4oea5at5pP_NoJNJHg-513" style="edgeStyle=orthogonalEdgeStyle;rounded=0;orthogonalLoop=1;jettySize=auto;html=1;strokeColor=default;strokeWidth=2;align=center;verticalAlign=middle;fontFamily=Helvetica;fontSize=12;fontColor=default;labelBackgroundColor=default;endArrow=classic;" parent="1" source="SE4oea5at5pP_NoJNJHg-514" target="SE4oea5at5pP_NoJNJHg-515" edge="1">
          <mxGeometry relative="1" as="geometry">
            <mxPoint x="588.5" y="4695.9400000000005" as="targetPoint" />
          </mxGeometry>
        </mxCell>
        <mxCell id="SE4oea5at5pP_NoJNJHg-514" value="2" style="ellipse;whiteSpace=wrap;html=1;aspect=fixed;strokeWidth=2;strokeColor=default;align=center;verticalAlign=middle;fontFamily=Helvetica;fontSize=12;fontColor=default;fillColor=default;" parent="1" vertex="1">
          <mxGeometry x="508.5" y="4675.9400000000005" width="40" height="40" as="geometry" />
        </mxCell>
        <mxCell id="SE4oea5at5pP_NoJNJHg-515" value="" style="verticalLabelPosition=bottom;verticalAlign=top;html=1;shape=mxgraph.basic.x;strokeColor=default;strokeWidth=2;align=center;fontFamily=Helvetica;fontSize=12;fontColor=default;fillColor=default;" parent="1" vertex="1">
          <mxGeometry x="588.5" y="4688.4400000000005" width="20" height="15" as="geometry" />
        </mxCell>
        <mxCell id="SE4oea5at5pP_NoJNJHg-516" value="&lt;pre&gt;&lt;span class=&quot;o&quot;&gt;&lt;/span&gt;&lt;span class=&quot;n&quot;&gt;listDelete&lt;/span&gt;&lt;span class=&quot;p&quot;&gt;&lt;/span&gt;&lt;/pre&gt;" style="text;html=1;align=center;verticalAlign=middle;whiteSpace=wrap;rounded=0;" parent="1" vertex="1">
          <mxGeometry x="322.25" y="4680.9400000000005" width="70" height="30" as="geometry" />
        </mxCell>
        <mxCell id="SE4oea5at5pP_NoJNJHg-517" value="&lt;font style=&quot;font-size: 36px;&quot;&gt;(&lt;/font&gt;" style="text;html=1;align=center;verticalAlign=middle;whiteSpace=wrap;rounded=0;" parent="1" vertex="1">
          <mxGeometry x="373.5" y="4680.9400000000005" width="60" height="30" as="geometry" />
        </mxCell>
        <mxCell id="SE4oea5at5pP_NoJNJHg-518" value="&lt;font style=&quot;font-size: 36px;&quot;&gt;)&lt;/font&gt;" style="text;html=1;align=center;verticalAlign=middle;whiteSpace=wrap;rounded=0;" parent="1" vertex="1">
          <mxGeometry x="672.25" y="4680.9400000000005" width="60" height="30" as="geometry" />
        </mxCell>
        <mxCell id="SE4oea5at5pP_NoJNJHg-519" value="" style="shape=curlyBracket;whiteSpace=wrap;html=1;rounded=1;labelPosition=left;verticalLabelPosition=middle;align=right;verticalAlign=middle;rotation=-90;" parent="1" vertex="1">
          <mxGeometry x="464.35" y="4422.110000000001" width="22.5" height="470.16" as="geometry" />
        </mxCell>
        <mxCell id="SE4oea5at5pP_NoJNJHg-520" value="" style="shape=curlyBracket;whiteSpace=wrap;html=1;rounded=1;labelPosition=left;verticalLabelPosition=middle;align=right;verticalAlign=middle;rotation=-90;" parent="1" vertex="1">
          <mxGeometry x="420.07" y="4300" width="23.75" height="558.13" as="geometry" />
        </mxCell>
        <mxCell id="SE4oea5at5pP_NoJNJHg-521" value="" style="shape=curlyBracket;whiteSpace=wrap;html=1;rounded=1;labelPosition=left;verticalLabelPosition=middle;align=right;verticalAlign=middle;rotation=-90;" parent="1" vertex="1">
          <mxGeometry x="509.03999999999996" y="4540.549999999999" width="22.5" height="388.29" as="geometry" />
        </mxCell>
        <mxCell id="SE4oea5at5pP_NoJNJHg-522" style="edgeStyle=orthogonalEdgeStyle;rounded=0;orthogonalLoop=1;jettySize=auto;html=1;strokeColor=default;strokeWidth=2;align=center;verticalAlign=middle;fontFamily=Helvetica;fontSize=12;fontColor=default;labelBackgroundColor=default;endArrow=classic;" parent="1" source="SE4oea5at5pP_NoJNJHg-523" target="SE4oea5at5pP_NoJNJHg-524" edge="1">
          <mxGeometry relative="1" as="geometry">
            <mxPoint x="586" y="4775.9400000000005" as="targetPoint" />
          </mxGeometry>
        </mxCell>
        <mxCell id="SE4oea5at5pP_NoJNJHg-523" value="2" style="ellipse;whiteSpace=wrap;html=1;aspect=fixed;strokeWidth=2;strokeColor=default;align=center;verticalAlign=middle;fontFamily=Helvetica;fontSize=12;fontColor=default;fillColor=default;" parent="1" vertex="1">
          <mxGeometry x="506" y="4755.9400000000005" width="40" height="40" as="geometry" />
        </mxCell>
        <mxCell id="SE4oea5at5pP_NoJNJHg-524" value="" style="verticalLabelPosition=bottom;verticalAlign=top;html=1;shape=mxgraph.basic.x;strokeColor=default;strokeWidth=2;align=center;fontFamily=Helvetica;fontSize=12;fontColor=default;fillColor=default;" parent="1" vertex="1">
          <mxGeometry x="586" y="4768.4400000000005" width="20" height="15" as="geometry" />
        </mxCell>
        <mxCell id="SE4oea5at5pP_NoJNJHg-525" value="&lt;pre&gt;&lt;span class=&quot;o&quot;&gt;&lt;/span&gt;&lt;span class=&quot;n&quot;&gt;listDelete&lt;/span&gt;&lt;span class=&quot;p&quot;&gt;&lt;/span&gt;&lt;/pre&gt;" style="text;html=1;align=center;verticalAlign=middle;whiteSpace=wrap;rounded=0;" parent="1" vertex="1">
          <mxGeometry x="399.75" y="4760.9400000000005" width="70" height="30" as="geometry" />
        </mxCell>
        <mxCell id="SE4oea5at5pP_NoJNJHg-526" value="&lt;font style=&quot;font-size: 36px;&quot;&gt;(&lt;/font&gt;" style="text;html=1;align=center;verticalAlign=middle;whiteSpace=wrap;rounded=0;" parent="1" vertex="1">
          <mxGeometry x="449.75" y="4760.9400000000005" width="60" height="30" as="geometry" />
        </mxCell>
        <mxCell id="SE4oea5at5pP_NoJNJHg-527" value="&lt;font style=&quot;font-size: 36px;&quot;&gt;)&lt;/font&gt;" style="text;html=1;align=center;verticalAlign=middle;whiteSpace=wrap;rounded=0;" parent="1" vertex="1">
          <mxGeometry x="669.75" y="4760.9400000000005" width="60" height="30" as="geometry" />
        </mxCell>
        <mxCell id="SE4oea5at5pP_NoJNJHg-528" value="" style="shape=curlyBracket;whiteSpace=wrap;html=1;rounded=1;labelPosition=left;verticalLabelPosition=middle;align=right;verticalAlign=middle;rotation=-90;" parent="1" vertex="1">
          <mxGeometry x="538.63" y="4649.15" width="22.76" height="321.34" as="geometry" />
        </mxCell>
        <mxCell id="SE4oea5at5pP_NoJNJHg-529" value="recurse..." style="text;html=1;align=center;verticalAlign=middle;whiteSpace=wrap;rounded=0;" parent="1" vertex="1">
          <mxGeometry x="721" y="4557.5" width="60" height="30" as="geometry" />
        </mxCell>
        <mxCell id="SE4oea5at5pP_NoJNJHg-530" value="recurse..." style="text;html=1;align=center;verticalAlign=middle;whiteSpace=wrap;rounded=0;" parent="1" vertex="1">
          <mxGeometry x="723.5" y="4637.5" width="60" height="30" as="geometry" />
        </mxCell>
        <mxCell id="SE4oea5at5pP_NoJNJHg-531" value="recurse..." style="text;html=1;align=center;verticalAlign=middle;whiteSpace=wrap;rounded=0;" parent="1" vertex="1">
          <mxGeometry x="723.5" y="4712.5" width="60" height="30" as="geometry" />
        </mxCell>
        <mxCell id="SE4oea5at5pP_NoJNJHg-532" value="base" style="text;html=1;align=center;verticalAlign=middle;whiteSpace=wrap;rounded=0;" parent="1" vertex="1">
          <mxGeometry x="712.25" y="4792.5" width="60" height="30" as="geometry" />
        </mxCell>
        <mxCell id="SE4oea5at5pP_NoJNJHg-533" value="&lt;font style=&quot;font-size: 36px;&quot;&gt;,&lt;/font&gt;" style="text;html=1;align=center;verticalAlign=middle;whiteSpace=wrap;rounded=0;" parent="1" vertex="1">
          <mxGeometry x="604.75" y="4528.4400000000005" width="60" height="30" as="geometry" />
        </mxCell>
        <mxCell id="SE4oea5at5pP_NoJNJHg-534" value="&lt;pre&gt;&lt;font style=&quot;font-size: 18px;&quot;&gt;&lt;span class=&quot;n&quot;&gt;2&lt;/span&gt;&lt;/font&gt;&lt;/pre&gt;" style="text;html=1;align=center;verticalAlign=middle;whiteSpace=wrap;rounded=0;" parent="1" vertex="1">
          <mxGeometry x="631" y="4520.9400000000005" width="70" height="30" as="geometry" />
        </mxCell>
        <mxCell id="SE4oea5at5pP_NoJNJHg-535" value="&lt;font style=&quot;font-size: 36px;&quot;&gt;,&lt;/font&gt;" style="text;html=1;align=center;verticalAlign=middle;whiteSpace=wrap;rounded=0;" parent="1" vertex="1">
          <mxGeometry x="606" y="4608.4400000000005" width="60" height="30" as="geometry" />
        </mxCell>
        <mxCell id="SE4oea5at5pP_NoJNJHg-536" value="&lt;pre&gt;&lt;font style=&quot;font-size: 18px;&quot;&gt;&lt;span class=&quot;n&quot;&gt;2&lt;/span&gt;&lt;/font&gt;&lt;/pre&gt;" style="text;html=1;align=center;verticalAlign=middle;whiteSpace=wrap;rounded=0;" parent="1" vertex="1">
          <mxGeometry x="632.25" y="4600.9400000000005" width="70" height="30" as="geometry" />
        </mxCell>
        <mxCell id="SE4oea5at5pP_NoJNJHg-537" value="&lt;font style=&quot;font-size: 36px;&quot;&gt;,&lt;/font&gt;" style="text;html=1;align=center;verticalAlign=middle;whiteSpace=wrap;rounded=0;" parent="1" vertex="1">
          <mxGeometry x="606" y="4688.4400000000005" width="60" height="30" as="geometry" />
        </mxCell>
        <mxCell id="SE4oea5at5pP_NoJNJHg-538" value="&lt;pre&gt;&lt;font style=&quot;font-size: 18px;&quot;&gt;&lt;span class=&quot;n&quot;&gt;2&lt;/span&gt;&lt;/font&gt;&lt;/pre&gt;" style="text;html=1;align=center;verticalAlign=middle;whiteSpace=wrap;rounded=0;" parent="1" vertex="1">
          <mxGeometry x="632.25" y="4680.9400000000005" width="70" height="30" as="geometry" />
        </mxCell>
        <mxCell id="SE4oea5at5pP_NoJNJHg-539" value="&lt;font style=&quot;font-size: 36px;&quot;&gt;,&lt;/font&gt;" style="text;html=1;align=center;verticalAlign=middle;whiteSpace=wrap;rounded=0;" parent="1" vertex="1">
          <mxGeometry x="606" y="4768.4400000000005" width="60" height="30" as="geometry" />
        </mxCell>
        <mxCell id="SE4oea5at5pP_NoJNJHg-540" value="&lt;pre&gt;&lt;font style=&quot;font-size: 18px;&quot;&gt;&lt;span class=&quot;n&quot;&gt;2&lt;/span&gt;&lt;/font&gt;&lt;/pre&gt;" style="text;html=1;align=center;verticalAlign=middle;whiteSpace=wrap;rounded=0;" parent="1" vertex="1">
          <mxGeometry x="632.25" y="4760.9400000000005" width="70" height="30" as="geometry" />
        </mxCell>
        <mxCell id="SE4oea5at5pP_NoJNJHg-541" style="edgeStyle=orthogonalEdgeStyle;rounded=0;orthogonalLoop=1;jettySize=auto;html=1;strokeWidth=2;" parent="1" source="SE4oea5at5pP_NoJNJHg-542" edge="1">
          <mxGeometry relative="1" as="geometry">
            <mxPoint x="221" y="4616.3099999999995" as="targetPoint" />
          </mxGeometry>
        </mxCell>
        <mxCell id="SE4oea5at5pP_NoJNJHg-542" value="1" style="ellipse;whiteSpace=wrap;html=1;aspect=fixed;strokeWidth=2;" parent="1" vertex="1">
          <mxGeometry x="150.5" y="4595.9400000000005" width="40" height="40" as="geometry" />
        </mxCell>
        <mxCell id="SE4oea5at5pP_NoJNJHg-543" style="edgeStyle=orthogonalEdgeStyle;rounded=0;orthogonalLoop=1;jettySize=auto;html=1;strokeWidth=2;" parent="1" source="SE4oea5at5pP_NoJNJHg-544" edge="1">
          <mxGeometry relative="1" as="geometry">
            <mxPoint x="221" y="4696.3099999999995" as="targetPoint" />
          </mxGeometry>
        </mxCell>
        <mxCell id="SE4oea5at5pP_NoJNJHg-544" value="1" style="ellipse;whiteSpace=wrap;html=1;aspect=fixed;strokeWidth=2;" parent="1" vertex="1">
          <mxGeometry x="150.5" y="4675.9400000000005" width="40" height="40" as="geometry" />
        </mxCell>
        <mxCell id="SE4oea5at5pP_NoJNJHg-545" style="edgeStyle=orthogonalEdgeStyle;rounded=0;orthogonalLoop=1;jettySize=auto;html=1;strokeWidth=2;" parent="1" source="SE4oea5at5pP_NoJNJHg-546" edge="1">
          <mxGeometry relative="1" as="geometry">
            <mxPoint x="221.25" y="4776.3099999999995" as="targetPoint" />
          </mxGeometry>
        </mxCell>
        <mxCell id="SE4oea5at5pP_NoJNJHg-546" value="1" style="ellipse;whiteSpace=wrap;html=1;aspect=fixed;strokeWidth=2;" parent="1" vertex="1">
          <mxGeometry x="150.75" y="4755.9400000000005" width="40" height="40" as="geometry" />
        </mxCell>
        <mxCell id="SE4oea5at5pP_NoJNJHg-547" style="edgeStyle=orthogonalEdgeStyle;rounded=0;orthogonalLoop=1;jettySize=auto;html=1;strokeColor=default;strokeWidth=2;align=center;verticalAlign=middle;fontFamily=Helvetica;fontSize=11;fontColor=default;labelBackgroundColor=default;endArrow=classic;" parent="1" source="SE4oea5at5pP_NoJNJHg-548" edge="1">
          <mxGeometry relative="1" as="geometry">
            <mxPoint x="393.5" y="4775.3099999999995" as="targetPoint" />
          </mxGeometry>
        </mxCell>
        <mxCell id="SE4oea5at5pP_NoJNJHg-548" value="3" style="ellipse;whiteSpace=wrap;html=1;aspect=fixed;strokeWidth=2;" parent="1" vertex="1">
          <mxGeometry x="323" y="4755.9400000000005" width="40" height="40" as="geometry" />
        </mxCell>
        <mxCell id="SE4oea5at5pP_NoJNJHg-549" value="" style="verticalLabelPosition=bottom;verticalAlign=top;html=1;shape=mxgraph.basic.x;strokeColor=default;strokeWidth=2;align=center;fontFamily=Helvetica;fontSize=12;fontColor=default;fillColor=default;" parent="1" vertex="1">
          <mxGeometry x="586" y="4847.8099999999995" width="20" height="15" as="geometry" />
        </mxCell>
        <mxCell id="SE4oea5at5pP_NoJNJHg-550" value="&lt;pre&gt;&lt;span class=&quot;o&quot;&gt;&lt;/span&gt;&lt;span class=&quot;n&quot;&gt;listDelete&lt;/span&gt;&lt;span class=&quot;p&quot;&gt;&lt;/span&gt;&lt;/pre&gt;" style="text;html=1;align=center;verticalAlign=middle;whiteSpace=wrap;rounded=0;" parent="1" vertex="1">
          <mxGeometry x="469.75" y="4840.3099999999995" width="70" height="30" as="geometry" />
        </mxCell>
        <mxCell id="SE4oea5at5pP_NoJNJHg-551" value="&lt;font style=&quot;font-size: 36px;&quot;&gt;(&lt;/font&gt;" style="text;html=1;align=center;verticalAlign=middle;whiteSpace=wrap;rounded=0;" parent="1" vertex="1">
          <mxGeometry x="519.75" y="4840.3099999999995" width="60" height="30" as="geometry" />
        </mxCell>
        <mxCell id="SE4oea5at5pP_NoJNJHg-552" value="&lt;font style=&quot;font-size: 36px;&quot;&gt;)&lt;/font&gt;" style="text;html=1;align=center;verticalAlign=middle;whiteSpace=wrap;rounded=0;" parent="1" vertex="1">
          <mxGeometry x="669.75" y="4840.3099999999995" width="60" height="30" as="geometry" />
        </mxCell>
        <mxCell id="SE4oea5at5pP_NoJNJHg-553" value="&lt;font style=&quot;font-size: 36px;&quot;&gt;,&lt;/font&gt;" style="text;html=1;align=center;verticalAlign=middle;whiteSpace=wrap;rounded=0;" parent="1" vertex="1">
          <mxGeometry x="606" y="4847.8099999999995" width="60" height="30" as="geometry" />
        </mxCell>
        <mxCell id="SE4oea5at5pP_NoJNJHg-554" value="&lt;pre&gt;&lt;font style=&quot;font-size: 18px;&quot;&gt;&lt;span class=&quot;n&quot;&gt;2&lt;/span&gt;&lt;/font&gt;&lt;/pre&gt;" style="text;html=1;align=center;verticalAlign=middle;whiteSpace=wrap;rounded=0;" parent="1" vertex="1">
          <mxGeometry x="632.25" y="4840.3099999999995" width="70" height="30" as="geometry" />
        </mxCell>
        <mxCell id="SE4oea5at5pP_NoJNJHg-555" style="edgeStyle=orthogonalEdgeStyle;rounded=0;orthogonalLoop=1;jettySize=auto;html=1;strokeColor=default;strokeWidth=2;align=center;verticalAlign=middle;fontFamily=Helvetica;fontSize=11;fontColor=default;labelBackgroundColor=default;endArrow=classic;" parent="1" source="SE4oea5at5pP_NoJNJHg-556" edge="1">
          <mxGeometry relative="1" as="geometry">
            <mxPoint x="393.5" y="4854.68" as="targetPoint" />
          </mxGeometry>
        </mxCell>
        <mxCell id="SE4oea5at5pP_NoJNJHg-556" value="3" style="ellipse;whiteSpace=wrap;html=1;aspect=fixed;strokeWidth=2;" parent="1" vertex="1">
          <mxGeometry x="323" y="4835.3099999999995" width="40" height="40" as="geometry" />
        </mxCell>
        <mxCell id="SE4oea5at5pP_NoJNJHg-557" value="" style="shape=curlyBracket;whiteSpace=wrap;html=1;rounded=1;labelPosition=left;verticalLabelPosition=middle;align=right;verticalAlign=middle;rotation=-90;" parent="1" vertex="1">
          <mxGeometry x="581" y="4765.3099999999995" width="22.76" height="241.34" as="geometry" />
        </mxCell>
        <mxCell id="SE4oea5at5pP_NoJNJHg-558" value="" style="verticalLabelPosition=bottom;verticalAlign=top;html=1;shape=mxgraph.basic.x;strokeColor=default;strokeWidth=2;align=center;fontFamily=Helvetica;fontSize=12;fontColor=default;fillColor=default;" parent="1" vertex="1">
          <mxGeometry x="582.38" y="4923.93" width="20" height="15" as="geometry" />
        </mxCell>
        <mxCell id="SE4oea5at5pP_NoJNJHg-559" style="edgeStyle=orthogonalEdgeStyle;rounded=0;orthogonalLoop=1;jettySize=auto;html=1;strokeWidth=2;" parent="1" source="SE4oea5at5pP_NoJNJHg-560" target="SE4oea5at5pP_NoJNJHg-562" edge="1">
          <mxGeometry relative="1" as="geometry">
            <mxPoint x="220" y="5005.68" as="targetPoint" />
          </mxGeometry>
        </mxCell>
        <mxCell id="SE4oea5at5pP_NoJNJHg-560" value="1" style="ellipse;whiteSpace=wrap;html=1;aspect=fixed;strokeWidth=2;" parent="1" vertex="1">
          <mxGeometry x="149.5" y="4985.3099999999995" width="40" height="40" as="geometry" />
        </mxCell>
        <mxCell id="SE4oea5at5pP_NoJNJHg-561" style="edgeStyle=orthogonalEdgeStyle;rounded=0;orthogonalLoop=1;jettySize=auto;html=1;strokeWidth=2;" parent="1" source="SE4oea5at5pP_NoJNJHg-562" edge="1">
          <mxGeometry relative="1" as="geometry">
            <mxPoint x="579.75" y="5003.969999999999" as="targetPoint" />
          </mxGeometry>
        </mxCell>
        <mxCell id="SE4oea5at5pP_NoJNJHg-562" value="3" style="ellipse;whiteSpace=wrap;html=1;aspect=fixed;strokeWidth=2;" parent="1" vertex="1">
          <mxGeometry x="321.75" y="4985.3099999999995" width="40" height="40" as="geometry" />
        </mxCell>
        <mxCell id="SE4oea5at5pP_NoJNJHg-563" value="" style="verticalLabelPosition=bottom;verticalAlign=top;html=1;shape=mxgraph.basic.x;strokeColor=default;strokeWidth=2;align=center;fontFamily=Helvetica;fontSize=12;fontColor=default;fillColor=default;" parent="1" vertex="1">
          <mxGeometry x="582.51" y="4997.8099999999995" width="20" height="15" as="geometry" />
        </mxCell>
        <mxCell id="SE4oea5at5pP_NoJNJHg-564" value="&lt;div align=&quot;left&quot;&gt;&lt;u&gt;&lt;font style=&quot;font-size: 14px;&quot;&gt;Delete first occurence only&lt;/font&gt;&lt;/u&gt;&lt;/div&gt;" style="text;html=1;align=left;verticalAlign=middle;whiteSpace=wrap;rounded=0;fontFamily=Helvetica;fontSize=12;fontColor=default;labelBackgroundColor=default;" parent="1" vertex="1">
          <mxGeometry x="126" y="4030" width="235" height="30" as="geometry" />
        </mxCell>
        <mxCell id="SE4oea5at5pP_NoJNJHg-566" value="&lt;div align=&quot;left&quot;&gt;&lt;u&gt;&lt;font style=&quot;font-size: 14px;&quot;&gt;Delete all occurences&lt;/font&gt;&lt;/u&gt;&lt;/div&gt;" style="text;html=1;align=left;verticalAlign=middle;whiteSpace=wrap;rounded=0;fontFamily=Helvetica;fontSize=12;fontColor=default;labelBackgroundColor=default;" parent="1" vertex="1">
          <mxGeometry x="130" y="4470" width="235" height="30" as="geometry" />
        </mxCell>
        <mxCell id="SE4oea5at5pP_NoJNJHg-571" style="edgeStyle=orthogonalEdgeStyle;rounded=0;orthogonalLoop=1;jettySize=auto;html=1;strokeColor=default;strokeWidth=2;align=center;verticalAlign=middle;fontFamily=Helvetica;fontSize=12;fontColor=default;labelBackgroundColor=default;endArrow=classic;" parent="1" source="SE4oea5at5pP_NoJNJHg-572" target="SE4oea5at5pP_NoJNJHg-574" edge="1">
          <mxGeometry relative="1" as="geometry" />
        </mxCell>
        <mxCell id="SE4oea5at5pP_NoJNJHg-572" value="3" style="ellipse;whiteSpace=wrap;html=1;aspect=fixed;strokeWidth=2;" parent="1" vertex="1">
          <mxGeometry x="429.06" y="4340" width="40" height="40" as="geometry" />
        </mxCell>
        <mxCell id="SE4oea5at5pP_NoJNJHg-573" style="edgeStyle=orthogonalEdgeStyle;rounded=0;orthogonalLoop=1;jettySize=auto;html=1;strokeColor=default;strokeWidth=2;align=center;verticalAlign=middle;fontFamily=Helvetica;fontSize=12;fontColor=default;labelBackgroundColor=default;endArrow=classic;" parent="1" source="SE4oea5at5pP_NoJNJHg-574" target="SE4oea5at5pP_NoJNJHg-575" edge="1">
          <mxGeometry relative="1" as="geometry">
            <mxPoint x="589.06" y="4360" as="targetPoint" />
          </mxGeometry>
        </mxCell>
        <mxCell id="SE4oea5at5pP_NoJNJHg-574" value="2" style="ellipse;whiteSpace=wrap;html=1;aspect=fixed;strokeWidth=2;strokeColor=default;align=center;verticalAlign=middle;fontFamily=Helvetica;fontSize=12;fontColor=default;fillColor=default;" parent="1" vertex="1">
          <mxGeometry x="509.05999999999995" y="4340" width="40" height="40" as="geometry" />
        </mxCell>
        <mxCell id="SE4oea5at5pP_NoJNJHg-575" value="" style="verticalLabelPosition=bottom;verticalAlign=top;html=1;shape=mxgraph.basic.x;strokeColor=default;strokeWidth=2;align=center;fontFamily=Helvetica;fontSize=12;fontColor=default;fillColor=default;" parent="1" vertex="1">
          <mxGeometry x="589.06" y="4352.5" width="20" height="15" as="geometry" />
        </mxCell>
        <mxCell id="SE4oea5at5pP_NoJNJHg-576" value="&lt;font style=&quot;font-size: 24px;&quot;&gt;=&lt;/font&gt;" style="text;html=1;align=center;verticalAlign=middle;whiteSpace=wrap;rounded=0;fontFamily=Helvetica;fontSize=12;fontColor=default;labelBackgroundColor=default;" parent="1" vertex="1">
          <mxGeometry x="71.25" y="4990.31" width="60" height="30" as="geometry" />
        </mxCell>
        <mxCell id="SE4oea5at5pP_NoJNJHg-577" value="&lt;font style=&quot;font-size: 24px;&quot;&gt;=&lt;/font&gt;" style="text;html=1;align=center;verticalAlign=middle;whiteSpace=wrap;rounded=0;fontFamily=Helvetica;fontSize=12;fontColor=default;labelBackgroundColor=default;" parent="1" vertex="1">
          <mxGeometry x="70" y="4345" width="60" height="30" as="geometry" />
        </mxCell>
        <mxCell id="SE4oea5at5pP_NoJNJHg-578" value="&lt;font style=&quot;font-size: 24px;&quot;&gt;=&lt;/font&gt;" style="text;html=1;align=center;verticalAlign=middle;whiteSpace=wrap;rounded=0;fontFamily=Helvetica;fontSize=12;fontColor=default;labelBackgroundColor=default;" parent="1" vertex="1">
          <mxGeometry x="71.25" y="3813.84" width="60" height="30" as="geometry" />
        </mxCell>
        <mxCell id="SE4oea5at5pP_NoJNJHg-579" value="&lt;font style=&quot;font-size: 24px;&quot;&gt;=&lt;/font&gt;" style="text;html=1;align=center;verticalAlign=middle;whiteSpace=wrap;rounded=0;fontFamily=Helvetica;fontSize=12;fontColor=default;labelBackgroundColor=default;" parent="1" vertex="1">
          <mxGeometry x="70" y="3225" width="60" height="30" as="geometry" />
        </mxCell>
        <mxCell id="SE4oea5at5pP_NoJNJHg-580" value="&lt;font style=&quot;font-size: 24px;&quot;&gt;=&lt;/font&gt;" style="text;html=1;align=center;verticalAlign=middle;whiteSpace=wrap;rounded=0;fontFamily=Helvetica;fontSize=12;fontColor=default;labelBackgroundColor=default;" parent="1" vertex="1">
          <mxGeometry x="80" y="2660.63" width="60" height="30" as="geometry" />
        </mxCell>
        <mxCell id="SE4oea5at5pP_NoJNJHg-581" value="&lt;font style=&quot;font-size: 24px;&quot;&gt;=&lt;/font&gt;" style="text;html=1;align=center;verticalAlign=middle;whiteSpace=wrap;rounded=0;fontFamily=Helvetica;fontSize=12;fontColor=default;labelBackgroundColor=default;" parent="1" vertex="1">
          <mxGeometry x="91.06" y="1770" width="60" height="30" as="geometry" />
        </mxCell>
        <mxCell id="SE4oea5at5pP_NoJNJHg-583" value="" style="endArrow=none;html=1;rounded=0;strokeColor=#B3B3B3;strokeWidth=2;align=center;verticalAlign=middle;fontFamily=Helvetica;fontSize=12;fontColor=default;labelBackgroundColor=default;edgeStyle=orthogonalEdgeStyle;dashed=1;" parent="1" edge="1">
          <mxGeometry width="50" height="50" relative="1" as="geometry">
            <mxPoint x="94.47999999999999" y="1750" as="sourcePoint" />
            <mxPoint x="725" y="1751" as="targetPoint" />
            <Array as="points">
              <mxPoint x="170" y="1751" />
              <mxPoint x="245" y="1751" />
            </Array>
          </mxGeometry>
        </mxCell>
        <mxCell id="SE4oea5at5pP_NoJNJHg-585" value="" style="endArrow=none;html=1;rounded=0;strokeColor=#B3B3B3;strokeWidth=2;align=center;verticalAlign=middle;fontFamily=Helvetica;fontSize=12;fontColor=default;labelBackgroundColor=default;edgeStyle=orthogonalEdgeStyle;dashed=1;" parent="1" edge="1">
          <mxGeometry width="50" height="50" relative="1" as="geometry">
            <mxPoint x="142.23999999999998" y="2010" as="sourcePoint" />
            <mxPoint x="820" y="2010" as="targetPoint" />
            <Array as="points">
              <mxPoint x="217.76" y="2011" />
              <mxPoint x="292.76" y="2011" />
            </Array>
          </mxGeometry>
        </mxCell>
        <mxCell id="SE4oea5at5pP_NoJNJHg-586" value="" style="endArrow=none;html=1;rounded=0;strokeColor=#B3B3B3;strokeWidth=2;align=center;verticalAlign=middle;fontFamily=Helvetica;fontSize=12;fontColor=default;labelBackgroundColor=default;edgeStyle=orthogonalEdgeStyle;dashed=1;" parent="1" edge="1">
          <mxGeometry width="50" height="50" relative="1" as="geometry">
            <mxPoint x="69.99999999999999" y="2647.82" as="sourcePoint" />
            <mxPoint x="747.76" y="2647.82" as="targetPoint" />
            <Array as="points">
              <mxPoint x="145.51999999999998" y="2648.82" />
              <mxPoint x="220.51999999999998" y="2648.82" />
            </Array>
          </mxGeometry>
        </mxCell>
        <mxCell id="SE4oea5at5pP_NoJNJHg-587" value="" style="endArrow=none;html=1;rounded=0;strokeColor=#B3B3B3;strokeWidth=2;align=center;verticalAlign=middle;fontFamily=Helvetica;fontSize=12;fontColor=default;labelBackgroundColor=default;edgeStyle=orthogonalEdgeStyle;dashed=1;" parent="1" edge="1">
          <mxGeometry width="50" height="50" relative="1" as="geometry">
            <mxPoint x="83.48999999999998" y="3204" as="sourcePoint" />
            <mxPoint x="761.25" y="3204" as="targetPoint" />
            <Array as="points">
              <mxPoint x="159.01" y="3205" />
              <mxPoint x="234.01" y="3205" />
            </Array>
          </mxGeometry>
        </mxCell>
        <mxCell id="SE4oea5at5pP_NoJNJHg-588" value="" style="endArrow=none;html=1;rounded=0;strokeColor=#B3B3B3;strokeWidth=2;align=center;verticalAlign=middle;fontFamily=Helvetica;fontSize=12;fontColor=default;labelBackgroundColor=default;edgeStyle=orthogonalEdgeStyle;dashed=1;" parent="1" edge="1">
          <mxGeometry width="50" height="50" relative="1" as="geometry">
            <mxPoint x="77.37999999999998" y="3794.42" as="sourcePoint" />
            <mxPoint x="840" y="3794" as="targetPoint" />
            <Array as="points">
              <mxPoint x="152.89999999999998" y="3795.42" />
              <mxPoint x="227.89999999999998" y="3795.42" />
            </Array>
          </mxGeometry>
        </mxCell>
        <mxCell id="SE4oea5at5pP_NoJNJHg-589" value="" style="endArrow=none;html=1;rounded=0;strokeColor=#B3B3B3;strokeWidth=2;align=center;verticalAlign=middle;fontFamily=Helvetica;fontSize=12;fontColor=default;labelBackgroundColor=default;edgeStyle=orthogonalEdgeStyle;dashed=1;" parent="1" edge="1">
          <mxGeometry width="50" height="50" relative="1" as="geometry">
            <mxPoint x="91.05999999999999" y="4320.42" as="sourcePoint" />
            <mxPoint x="790" y="4320" as="targetPoint" />
            <Array as="points">
              <mxPoint x="166.57999999999998" y="4321.42" />
              <mxPoint x="241.57999999999998" y="4321.42" />
            </Array>
          </mxGeometry>
        </mxCell>
        <mxCell id="SE4oea5at5pP_NoJNJHg-590" value="" style="endArrow=none;html=1;rounded=0;strokeColor=#B3B3B3;strokeWidth=2;align=center;verticalAlign=middle;fontFamily=Helvetica;fontSize=12;fontColor=default;labelBackgroundColor=default;edgeStyle=orthogonalEdgeStyle;dashed=1;" parent="1" edge="1">
          <mxGeometry width="50" height="50" relative="1" as="geometry">
            <mxPoint x="86.15999999999998" y="4960.42" as="sourcePoint" />
            <mxPoint x="785.1" y="4960" as="targetPoint" />
            <Array as="points">
              <mxPoint x="161.67999999999998" y="4961.42" />
              <mxPoint x="236.67999999999998" y="4961.42" />
            </Array>
          </mxGeometry>
        </mxCell>
      </root>
    </mxGraphModel>
  </diagram>
</mxfile>
